<mxfile host="app.diagrams.net" modified="2024-01-15T01:19:17.108Z" agent="Mozilla/5.0 (Windows NT 10.0; Win64; x64) AppleWebKit/537.36 (KHTML, like Gecko) Chrome/120.0.0.0 Safari/537.36" etag="ECGnqtzfKpsSetFGjK0F" version="22.1.18" type="device">
  <diagram name="페이지-1" id="n6hgaRQhbf0AORm-Ml-y">
    <mxGraphModel dx="2927" dy="2213" grid="1" gridSize="10" guides="1" tooltips="1" connect="1" arrows="1" fold="1" page="1" pageScale="1" pageWidth="827" pageHeight="1169" math="0" shadow="0">
      <root>
        <mxCell id="0" />
        <mxCell id="1" parent="0" />
        <mxCell id="P5fyJ_uZ24H15enQcCNX-1" value="On-Premise" style="sketch=0;outlineConnect=0;gradientColor=none;html=1;whiteSpace=wrap;fontSize=12;fontStyle=0;shape=mxgraph.aws4.group;grIcon=mxgraph.aws4.group_on_premise;strokeColor=#858B94;fillColor=default;verticalAlign=top;align=left;spacingLeft=30;fontColor=#858B94;dashed=0;" parent="1" vertex="1">
          <mxGeometry x="1022" y="60" width="610" height="1070" as="geometry" />
        </mxCell>
        <mxCell id="P5fyJ_uZ24H15enQcCNX-2" value="" style="rounded=0;whiteSpace=wrap;html=1;dashed=1;strokeColor=#CCCCCC;" parent="1" vertex="1">
          <mxGeometry x="1052" y="100" width="550" height="1000" as="geometry" />
        </mxCell>
        <mxCell id="P5fyJ_uZ24H15enQcCNX-3" style="edgeStyle=orthogonalEdgeStyle;rounded=0;orthogonalLoop=1;jettySize=auto;html=1;" parent="1" source="P5fyJ_uZ24H15enQcCNX-4" target="P5fyJ_uZ24H15enQcCNX-23" edge="1">
          <mxGeometry relative="1" as="geometry" />
        </mxCell>
        <mxCell id="P5fyJ_uZ24H15enQcCNX-4" value="" style="shape=image;verticalLabelPosition=bottom;labelBackgroundColor=default;verticalAlign=top;aspect=fixed;imageAspect=0;image=data:image/jpeg,/9j/4AAQSkZJRgABAQAAAQABAAD/2wCEAAkGBw0NDQ0NDQ0NDQ0NDQ4ODg0PDQ8NDQ0NFREWFhUVFRUYHSghGBomGxUVITEiJSkrLjAuFx80OTQsOCguOy0BCgoKDg0OGhAQFS0mHyAuKy0rLSstLTArKy0rLi0tKysrLS0tLS0tKy0rLS0rKysrLSsrLS0tKy0tLSsrKy0tLf/AABEIAOEA4QMBIgACEQEDEQH/xAAbAAEBAQADAQEAAAAAAAAAAAAAAgEFBgcDBP/EAEsQAAEEAQICBQULBgwHAAAAAAEAAgMRBAUSBiEHEzFBUSJhcYGRIzJCUmJygqGxssEUFnSSs8IVJCUzNUNTY3ODhNE0NlSUo8Pi/8QAGgEBAAMBAQEAAAAAAAAAAAAAAAECAwQFBv/EADERAAICAQEFBwQBBAMAAAAAAAABAgMRIQQSMUHwE1FxkbHB0SJhgeEUJFOh8SMzQv/aAAwDAQACEQMRAD8A5NFKL5k8MpLUogKRSloCkWWsQFIptEBSKUQFWilEBSKbRAUlrFiApFixAUilLQFIpRAVaKUQFIpRAVaLLRAZaWptLUgq0tTaWgKtLU2loCrS1NpaAq0tSloCrS1NpaAq0tTaWgKtLU2loCrS1NpaAq0tTaWgKtLU2loCrS1NpaAq0tTaWgKtLU2loCrRSiAjcm5ZaWpIN3JuWWloDdybllpaA3cm5ZaWgN3JuWWloDdybllpaA3cm5ZaWgN3JuWWloDdybllpaA3cm5ZaWgN3JuWWloDdybllpaA3cm5ZaWgN3JuWWloDdyLLRARaWotLVyC7S187XctG4dwMzGYWTP6/Zcu143Mee0FhHYDy8/itK6pWPETSuuVjxE6jaWuT13QZ8JwL6khcabM0UL8HD4JXE2qSi4vElqVlFxeGi7S1Fp4+bt8ygqXaWotLQF2lqLS0Bdpai0tAXaWotLQF2lqLS0Bdpai0tAXaWotLQF2lqLS0Bdpai0tAXaWotLQF2ii1iAm1lqbS1IyXauCd8b2yRvcx7TbXNNEFfG0tBk9U0jMj1TBIlaPKBinYO547x4dxHh6l5tqGI7Gmlgf76J+2+zcD2H1ij612Lo5y9uTNDfkyxBwHy2H/Zx9idI2NsyoZhy66JwPnczv9jm+xdtv/JSrHxWj9PXB2WvtKVY+K0fXkzrmn4zsiaKBvvpXhl+AvmfULPqXr2FhR48TYYmBsbRVUOfiT4krz7o+xt+aZD2QwucPM51NH1Fy7Nr2pmHP0yIGmukkLxfIh42Nv9Yn1K+yJQg7HzePb1L7LiEHN83j29Tq/GmlNxJ2vibtinBc1o5Bjx74DwHMH1rrtr0bpCx9+D1nfDKx1/Jd5BHtcPYvNrXPtMFGx456nPtMFCxpc9S7S1Fpa5zDJdrLU2loMl2lqLS0GS7S1FpaDJdrLU2loMl2stTaWgyXaWotLQZKtbai0tBku0tRaWgyXaKLRBkm0tfO0tXKn0tLXztLQHPcFzbNSxvlF7D64nfjS7R0lRXjQSfFlLfU5hP7oXTOGH1n4Z/vmD2mvxXfekVt6eT8WaI/WR+K66taJrrkdtOuzzXXBHHdGcXk5Uvi6KMeoOJ+8FxXHmaf4S5duPHEB5ne/wD3guydHUW3A3f2ssjvZTP3V0XiibrNQzHf3xZ6meR+6lv07PFd/wC2LXu7NFd/7Z6dxFGJtPya53C57fojcPsXkG5ewaOev0/Hvn1mK1rvOSyj9drybSMXr8nHgP8AWStY75t+V9Vq22LecWuf6+S22LLg1zXx8nfuF+F4G47JsmJssszQ7a8eSxh7Bt8a7VwnG+gsxXMngbthlOxzOZEclWK8xAPLzedd04m1T8ixTMKsSRNaO4gvG4fqhy+fFuKMjT8gDmWxiVhHyPL5ekAj1raymG44JapZ9fXU2sphuOCWqWfX11PJrS187S15h5R9LS187W2gLtLXztLQH0tLXztLQH0tLXztLQH0tLXztLQH0tLXztLQH0tLXztLQH0tF87WoCLS1FpakF2lqLS0ByOgPrNxD4ZEX32r0fpBbemZB8HQn/yNH4ryzDlDJoXnsZLG4+gPB/Bet8bRF+m5TWiztY4D5sjT+C66P+qa64HbszzTYvt7Mvg+Lq9OxB2XF1n67i/95eR5M3WSSSf2kj3/AKzifxXsOoOGLp8lf1GKWt+cI6H10vFwVO1LCjHu/wBDbPpUI9y/R65wHLv0zH8WGVh9Urq+ql1bhTBrW521yxn5Dh63Fg+py5foxyN2JNH3xzX6nMb+IK5HRdOMeo6pOR5MjscMP+Xuf9ZHsWyjvxrfd8fKRvGO/Gp93x8pHDdKOTUeLB8d8kp+iA0ffPsXYuGZxk6djl3lbouqf5y22O+wronSPlb88MB5QxRsr5Rt5+pzfYuf6MczfizQE84ZtwHgx/8A9Nd7VWE/6h+XkVrs/qZL8eXTPPcmExSSRHtie+M+lriPwXfeCeGIjC3Kyo2yOlG6ON/lMZH3OIPIk9vopcPxJozpNaEDRTcx8coI7m7fLPp8l5Xd+J9QGDgyPZTHbWxQgcqe7kK9As/RWdNSi5Slwj114mVFKjKUpcI568vY/LxDwtj5ULjDFHFO1pMb4wGBx+K6uRB8e5eVcwSCCCDRB5EHwK9H6NtU63HfiuNvxzbLPMwuJr2G/aF1fj3T/wAmz3uaKjyR1rfDf2PHt5/SCi+KlBWJeI2iKnBWxXj146HAWlqLS1yHEXaWotLQF2lqLS0Bdpai0tAXaWotLQF2lqLS0BdootEB87S1FpauQXaWotbaA08xXivbdCzmZ2HDLydvYGyN7akApwPr/BeI2v26ZrGVhlxxpnxbq3AU5rvS0gi/OtaLOzevBm+z39lJ5WjPSOknPEWD1IPl5L2gDv6tjg5x9Fho+kvLLX21DUZ8qTrciV0r6q3Vyb4ADkB6F+e1FtnaSyVvt7We9g7n0ZZ4jzJIHGhkxDb55I7IH6pf7F6ZI9rGue4hrWguc48gABzJ9S8CilcxzXscWvaQ5rmmnNcOwgrltR4pz8qLqJp7jNbg1jGF/wA4gcx5ltTtChDdaOijalXDda8D8mrZxycmfIN+6yucAe0Mumj1NAC5TgrWBh5jTIahmHVSk9jedtcfQfqJXXrS1zKTUt7mckZyjLe5nvL8OJ00c5aDLGx7GO8Gvon7o9p8V530lauJZ48SN1tgt0tdnWkdnqH3iuuY3EWfFF1MeXM2MCg3ySWjwa4i2j0FcaXXzPMnmSeZJXRbepxwljvOq/a1OO7FYzx69zk9A1Z2DlR5DQXAW2Rg+HEffD09hHnAXpetadBrOGx0MrbB3xS1Ya74THDtF947QQPBeQ2vtiZs0BLoZpYSe0xyObfpo81nXbupxaymZVX7icJLMWdzj6OMk+/yoW/Nje/7aX6oujb4+cT5m4+36y8rpj9ez3++y8g/50g+wr8cuRI/38kj/nyOf9pU71S4QfmS7KFwrf5bPR/zBwWfzuVKK+XGz7QVn5q6Iz3+WPpZULfsAXmYaPAexanaw/tont6+VS88+x6V/AHDw7ciI/6wfgU/gPh3/qIv+7P+681BXL6rw5m4cTZsiIMjc4NsSMcWuIsAgHzFWViayq1p9iVcmm1StOOh3T829Bd73KYPRls/FPzH02T+ay5fozRSD7F5payh4BR2sP7aI/kV86kcnruCzFypYGStmbGRUgrvF0a7x2FfgtTay1g8Z0OdtN6Iu0tRaWhBdoptYgItLUWlqSMl2lqLS1IyfaCJ8jgyNj5HuNNYxpe5x8wHarysaWB2yaKSJ9Xtka5rq8aPcuc6Oj/KuP8ANl/YuXI9LB/juP8Ao/8A7Hq6rXZuWeeDZVJ0uzPB49Pk6riYOROHOhgmmDPfGON7w30kBfmJXqXRSf4hL+lO/Zxrq3CWkszdVmEoBigfLI9h7HkOprT5rN/RpW7HSOP/AEXez/TBp6yOGxNHzJ274cWaRh7HtjcWH0HsPqX5MiCSJxZLG+J47WSMcx3sK9S4l42i0+cYzYDM9jWl/ugiawEWGjkbNUfWF9Ndig1bSTkNbThE+aJzgN8b2XvZfn2lp7u/wV3RHVRlqjR7LB5jCeZLrridc6OdGxcxmU7IhbKWOja3cXANBBJ5Arqmswshy8qGPkyOaRjG2SQ1ryALPmXeeiQ+5Zn+JF91y+PGvEsGTHNpscMv5T+UMiD3NYGb2yDmCCTzquzvRwj2KfD8cfsRKEHs8ZZw9eXH7dZOiY8MkztkUckrz8CNjnur0Bfqy9HzIG75sWaNg7XujcGj0mqC9QrE0DADi3cba1xaPdMicjxPYO30AL8PDvH0eZO3Glx+odKS2Nwk61jnfFdyFEp2EFhSlqx/Gri1Gc8SfXXA8utfTHiklcGRMfI89jGNc9x9QXZekTQ48LIjlhaGRZIedgHkxyNrcB4A7gQPSu4cO48GlaUMp4txhbNK4AGR5d71g83lAAdl8+8qkaW5OLfDiUhs7djjJ43eLPNsrRs2Fu+XEnjYBZe6N21o857vWuPter8NccR5+T+SuxzC54cYz1oka/aLIPIUaBPf2FdQ420EQ6nHDjNDW5vVujYOTWSF+xwA7hdH1lJ1JR3oPKFlEVDfrllcOvyddxcaWZ2yGKSV/btjY5zgPGgv0Zmk5eO3fNjSxM+O6NwYPS7sC9SypsPQMFgDC7mGADk+eWrLnHu7Cb7uwdwX4+GeOIs+b8mlgED5A7q/dOtjkoWWmwKNX6aKv2EE91y1NP41cWoTn9T+2h5aw+U30j7V6t0of0cP0iL7HLpfHehswcyMwjbBke6MYOxjw4B7R5ubSPnV3LunSj/Rw/SIvscphFxhZF/b3FUHCFsXy/Z5Pa+kcT3gljHuA7S1jnAesLs/R/w2zNkfPkN3Y8BDRH3Sy1dH5IFGu+x512PUukLCxJjjRQukZC7q3OjLGRtI5EMHfXZ3BZxqWN6UsL1Mo0x3VOye6nw+55jaWvT+ItLxdXwTn4gHXCMyMe0bXSbffMeO93IgeB76K8ttVsrcHxM7anW+OU+D7y7S1FpazM8n0RfO0QqRaWotLVwXaWotLQHZ+jx4bquLZrcJWj0mFy5fpaheMjGmLT1RgdHv+CHh90T3GnD6/BdFx53xSMljcWSRva9jh2tcDYK9O0zpLxXxgZkUkUleV1betiJ8Rzsegj1lbVuLg4N4OumUJVOqUsa5z14H6+i2B7NPe57S0S5D3ssVbNrW36LB9i4XoxeHahnuBsOY5wPiDLYUcT9IYmhfBhRyN6xpa+eSmua09oa0XzIvmarwXCcCa/BpuRLJO2Qskh6sGMBxaQ4HmCRy5K+/FSgk9FzNndWp1xUtI8X+C+kQ/wArZXog/YsXeuFP6Ab+j5X35F5pxVqjM7OnyYmvbHJ1YaH0H01jW2QLrsXZNE4yxcfSjhvjlM4injG1rTG4vc4g3fIeVz5d3eq1yirJNvv9SlFsFdOTejz6nIdEDx1ea2+YfC6vMWvH4FdW1x7sXWpZZWluzN60AgjfH1m8EeNhfj4a16XTp+ujAe1zdksRO0SM7e3uI7j6V2ninjrFzcCXGZDM2WQx11gZ1bdr2uJsOvu8O9QnF1pN4aKKcZUKLlhx18eJ2PpB0uXOwY3Yw610cglDW8zJGWkHb4nmD7V0fg/h/LlzoHugliiglbLJJJG5gG07g0bhzJIAoLeGeOcjBjED4xk47feNLyySMeDXUbHmI9YC5jO6T3O2jHxtg3N3vkkDnbL8oNaBV13k+pXcq5Pfbw+41lZRZJWyk09Mrw65H7+lz/h8X/Ff9xfv4p/5ed+jYn3410/jzirG1KKCPHbIOre57jI1rRzbVCibX6da4yxZ9J/ImMlE5ihjO5rRG0xuYSbvmPJ5cu/uUucd6evFF53VuVn1cY4X30ZxXR6f5Yw/9R+weuzcfZbcfVtLmf7yIB7z8Vgk5n2LpPC+psws/HypQ90cRk3BgBf5UbmcgSPjWuT411uLVMqA4rJKazq2h4a0vkc/lQvzgc1nGSVTWdc59DmrsSocc67ywvL4O69JOjzZeNDJjtdK6B7nGNvNz43gWWj4RFDl4ErqXAug5UmfBM6GWKHHeZHvkY5lkA01t9puvVa5nF1TVdDx4xnYwnxQWxse2ZvWQ8uTSQDY7hfovsX6tK47lz8yDFxsXq2PcXTSPfvc2Jot1NAodwuz2rR7kppttPTQ6J9lO1Sk2pafTh/jl6d2p+bpeIH8HE9z5+fm9yXMdJkTpNNLmNLwyaKQ7Rfkcxfo5hcD0wSjdgR/CAyHkeAPVgfYfYvlw30iDHgZBmQySdU0NZNGWl5YOQDmuI5gd98/DxmUo784y54JnZBW2wk8b2Nfwc10UZDHYMsYI3x5Di4eZzW0fqI9SzUekDHxZpIJsOdkkTi1wPVgHwI58we0FdQyOL3s1WXUMRhbHKGNfFJQ65jY2g79pIBsciLr2hdsi6QtLlDXzwyNlb2B0TZdp+S6/wDZIWfTuqWMf5Fe0LcUFYk1plrRrrl+mcmeJ5RjnJOmZYg2F5cXRD3OrLi291Vz7F4yzkAPAALuPFvHTs2N2NjRuigd/OOeR1so+LQ5Nb6zfm7+mWsbpKTWHnBz7VapySTzj3LtLUWlrI5C7RRaICbS1Fpakgu1lqbS0BVpam0tAXay1NpaAu1lqbS0GS7S1FpaAu0tRaWgKtLU2loMlWtDq5gkEcwRyIKi0tAeo6H0h4ssIh1JpbJtDHv6vrYph4uaASD4iq+xfu/PLQ8Njjihpc74EGM6IvPdbi1oXkFpa2V8jrW3WpcvHGvqcnr2sS5+S/JmoFwDWMBtscYumg9/aTfeSVx9qLS1i9dTlcm3ll2lqLS0ILtLUWloC7WWptbaAq0U2sTAItLWWlqcFcm2lqbS0wMlWlrLWWmBkq0tTa20wMm2lqbW2mBk20tZay0wMlWlrLS0wMm2lqbW2mBk20tZay0wMlWlrLWWmBkq0tTa20wMm2lrLS0wMm2lrLWWmBkq0tTa20wTk20WWinBBFpai0tWILtLUWloC7S1FpaAu0tRaWgLtLUWloC7S1FpaAu0tRaWgLtLUWloC7S1FpaAu0tRaWgLtLUWloC7S1FpaAu0tRaWgLtLUWloC7WKUQEpaxFJBqWsRAaixLQGpaxEBtosRAaixEBtosS0BqLLRAaixEBqWsRAbaLEQG2lrEQGpaxEBqLEQG2ixEBiIiAIiIAiIgCIiAIiIAiIgCIiAIiIAiIgCIiAIiIAiIgCIiAIiIAiIgP/2Q==;" parent="1" vertex="1">
          <mxGeometry x="1249.5" y="148.38" width="70" height="70" as="geometry" />
        </mxCell>
        <mxCell id="P5fyJ_uZ24H15enQcCNX-5" value="ESXi" style="text;strokeColor=none;align=center;fillColor=none;html=1;verticalAlign=middle;whiteSpace=wrap;rounded=0;" parent="1" vertex="1">
          <mxGeometry x="1072" y="100" width="60" height="30" as="geometry" />
        </mxCell>
        <mxCell id="P5fyJ_uZ24H15enQcCNX-202" style="edgeStyle=orthogonalEdgeStyle;rounded=0;orthogonalLoop=1;jettySize=auto;html=1;exitX=0.5;exitY=1;exitDx=0;exitDy=0;entryX=0.5;entryY=0;entryDx=0;entryDy=0;" parent="1" source="P5fyJ_uZ24H15enQcCNX-6" target="P5fyJ_uZ24H15enQcCNX-61" edge="1">
          <mxGeometry relative="1" as="geometry" />
        </mxCell>
        <mxCell id="P5fyJ_uZ24H15enQcCNX-6" value="" style="rounded=0;whiteSpace=wrap;html=1;" parent="1" vertex="1">
          <mxGeometry x="1082" y="450" width="400" height="410" as="geometry" />
        </mxCell>
        <mxCell id="P5fyJ_uZ24H15enQcCNX-7" value="" style="image;sketch=0;aspect=fixed;html=1;points=[];align=center;fontSize=12;image=img/lib/mscae/OpenShift.svg;" parent="1" vertex="1">
          <mxGeometry x="1092" y="457" width="50" height="46" as="geometry" />
        </mxCell>
        <mxCell id="P5fyJ_uZ24H15enQcCNX-56" style="edgeStyle=orthogonalEdgeStyle;rounded=0;orthogonalLoop=1;jettySize=auto;html=1;exitX=0.5;exitY=1;exitDx=0;exitDy=0;exitPerimeter=0;entryX=0.5;entryY=0;entryDx=0;entryDy=0;" parent="1" source="P5fyJ_uZ24H15enQcCNX-8" target="P5fyJ_uZ24H15enQcCNX-6" edge="1">
          <mxGeometry relative="1" as="geometry" />
        </mxCell>
        <mxCell id="P5fyJ_uZ24H15enQcCNX-8" value="" style="verticalLabelPosition=bottom;html=1;verticalAlign=top;align=center;strokeColor=none;fillColor=#00BEF2;shape=mxgraph.azure.computer;pointerEvents=1;" parent="1" vertex="1">
          <mxGeometry x="1234" y="360" width="100" height="60" as="geometry" />
        </mxCell>
        <mxCell id="P5fyJ_uZ24H15enQcCNX-9" value="" style="shadow=0;dashed=0;html=1;strokeColor=none;fillColor=#EF8F21;labelPosition=center;verticalLabelPosition=bottom;verticalAlign=top;align=center;outlineConnect=0;shape=mxgraph.veeam.vsphere" parent="1" vertex="1">
          <mxGeometry x="1052" y="100" width="30" height="30" as="geometry" />
        </mxCell>
        <mxCell id="P5fyJ_uZ24H15enQcCNX-10" value="" style="rounded=0;whiteSpace=wrap;html=1;dashed=1;" parent="1" vertex="1">
          <mxGeometry x="1094.5" y="520" width="150" height="330" as="geometry" />
        </mxCell>
        <mxCell id="P5fyJ_uZ24H15enQcCNX-11" value="" style="rounded=0;whiteSpace=wrap;html=1;dashed=1;" parent="1" vertex="1">
          <mxGeometry x="1250" y="520" width="220" height="330" as="geometry" />
        </mxCell>
        <mxCell id="P5fyJ_uZ24H15enQcCNX-12" value="Master 1,2,3" style="text;strokeColor=none;align=center;fillColor=none;html=1;verticalAlign=middle;whiteSpace=wrap;rounded=0;" parent="1" vertex="1">
          <mxGeometry x="1129.5" y="530" width="80" height="30" as="geometry" />
        </mxCell>
        <mxCell id="P5fyJ_uZ24H15enQcCNX-13" value="Worker 1,2,3" style="text;strokeColor=none;align=center;fillColor=none;html=1;verticalAlign=middle;whiteSpace=wrap;rounded=0;" parent="1" vertex="1">
          <mxGeometry x="1317" y="530" width="80" height="30" as="geometry" />
        </mxCell>
        <mxCell id="P5fyJ_uZ24H15enQcCNX-14" value="10.0.0.10" style="image;sketch=0;aspect=fixed;html=1;points=[];align=center;fontSize=12;image=img/lib/mscae/VM_Linux.svg;" parent="1" vertex="1">
          <mxGeometry x="1147" y="560" width="50" height="46" as="geometry" />
        </mxCell>
        <mxCell id="P5fyJ_uZ24H15enQcCNX-15" value="10.0.0.11" style="image;sketch=0;aspect=fixed;html=1;points=[];align=center;fontSize=12;image=img/lib/mscae/VM_Linux.svg;" parent="1" vertex="1">
          <mxGeometry x="1147" y="665.3" width="50" height="46" as="geometry" />
        </mxCell>
        <mxCell id="P5fyJ_uZ24H15enQcCNX-16" value="10.0.0.12" style="image;sketch=0;aspect=fixed;html=1;points=[];align=center;fontSize=12;image=img/lib/mscae/VM_Linux.svg;" parent="1" vertex="1">
          <mxGeometry x="1147" y="770" width="50" height="46" as="geometry" />
        </mxCell>
        <mxCell id="P5fyJ_uZ24H15enQcCNX-17" value="OpenShift Cluster" style="text;strokeColor=none;align=center;fillColor=none;html=1;verticalAlign=middle;whiteSpace=wrap;rounded=0;fontSize=16;" parent="1" vertex="1">
          <mxGeometry x="1142" y="457" width="85" height="45" as="geometry" />
        </mxCell>
        <mxCell id="P5fyJ_uZ24H15enQcCNX-20" value="DC,HAproxy&lt;br&gt;Bastion" style="text;strokeColor=none;align=center;fillColor=none;html=1;verticalAlign=middle;whiteSpace=wrap;rounded=0;" parent="1" vertex="1">
          <mxGeometry x="1246.5" y="370" width="77.5" height="30" as="geometry" />
        </mxCell>
        <mxCell id="P5fyJ_uZ24H15enQcCNX-23" value="" style="image;html=1;image=img/lib/clip_art/networking/Switch_128x128.png" parent="1" vertex="1">
          <mxGeometry x="1259.5" y="270" width="50" height="50" as="geometry" />
        </mxCell>
        <mxCell id="P5fyJ_uZ24H15enQcCNX-24" style="edgeStyle=orthogonalEdgeStyle;rounded=0;orthogonalLoop=1;jettySize=auto;html=1;" parent="1" source="P5fyJ_uZ24H15enQcCNX-25" target="P5fyJ_uZ24H15enQcCNX-4" edge="1">
          <mxGeometry relative="1" as="geometry" />
        </mxCell>
        <mxCell id="P5fyJ_uZ24H15enQcCNX-25" value="External&lt;br&gt;172.16.10.23" style="image;html=1;image=img/lib/clip_art/networking/Switch_128x128.png" parent="1" vertex="1">
          <mxGeometry x="1147" y="158.38" width="50" height="50" as="geometry" />
        </mxCell>
        <mxCell id="P5fyJ_uZ24H15enQcCNX-58" style="edgeStyle=orthogonalEdgeStyle;rounded=0;orthogonalLoop=1;jettySize=auto;html=1;exitX=1;exitY=0.5;exitDx=0;exitDy=0;entryX=1;entryY=0.5;entryDx=0;entryDy=0;" parent="1" source="P5fyJ_uZ24H15enQcCNX-28" target="P5fyJ_uZ24H15enQcCNX-6" edge="1">
          <mxGeometry relative="1" as="geometry">
            <Array as="points">
              <mxPoint x="1522" y="295" />
              <mxPoint x="1522" y="655" />
            </Array>
          </mxGeometry>
        </mxCell>
        <mxCell id="P5fyJ_uZ24H15enQcCNX-74" style="edgeStyle=orthogonalEdgeStyle;rounded=0;orthogonalLoop=1;jettySize=auto;html=1;entryX=1;entryY=0.5;entryDx=0;entryDy=0;" parent="1" source="P5fyJ_uZ24H15enQcCNX-28" target="P5fyJ_uZ24H15enQcCNX-61" edge="1">
          <mxGeometry relative="1" as="geometry">
            <Array as="points">
              <mxPoint x="1552" y="295" />
              <mxPoint x="1552" y="990" />
            </Array>
          </mxGeometry>
        </mxCell>
        <mxCell id="P5fyJ_uZ24H15enQcCNX-28" value="Internal&lt;br&gt;10.0.0.1" style="text;strokeColor=none;align=center;fillColor=none;html=1;verticalAlign=middle;whiteSpace=wrap;rounded=0;" parent="1" vertex="1">
          <mxGeometry x="1306.9999999999998" y="280" width="60" height="30" as="geometry" />
        </mxCell>
        <mxCell id="P5fyJ_uZ24H15enQcCNX-33" style="rounded=0;orthogonalLoop=1;jettySize=auto;html=1;dashed=1;" parent="1" source="P5fyJ_uZ24H15enQcCNX-35" target="P5fyJ_uZ24H15enQcCNX-25" edge="1">
          <mxGeometry relative="1" as="geometry" />
        </mxCell>
        <mxCell id="P5fyJ_uZ24H15enQcCNX-35" value="vCenter" style="sketch=0;pointerEvents=1;shadow=0;dashed=0;html=1;strokeColor=none;fillColor=#434445;aspect=fixed;labelPosition=center;verticalLabelPosition=bottom;verticalAlign=top;align=center;outlineConnect=0;shape=mxgraph.vvd.vcenter_server;" parent="1" vertex="1">
          <mxGeometry x="1158.38" y="100" width="27.24" height="28.38" as="geometry" />
        </mxCell>
        <mxCell id="P5fyJ_uZ24H15enQcCNX-36" value="" style="shape=image;verticalLabelPosition=bottom;labelBackgroundColor=default;verticalAlign=top;aspect=fixed;imageAspect=0;image=data:image/png,iVBORw0KGgoAAAANSUhEUgAAAOEAAADhCAMAAAAJbSJIAAAAllBMVEX///80lU41lk9rq3k0l04vlUswlUwAijK82cNvrn0AhyuqzLEzlE11s4Mrkkgpkkby9/M+m1cOizfH4c3S5dYikEKKu5SHwJbe6+Eajj34+/nl7+cAhiaex6depm/N4tFInV2TwJ1SoWWmyq232L8Agx1bpGt3s4VPn2KWx6JkqHOhzq1KpGNssX7X59taqW4Afw231L3vRKabAAAWGklEQVR4nO1dC2PaMA6uHSehkCYQGkqAFuj63rpu///PXWxL8iNOB+3WcHf51vEIIViWrJdl5+xswIABAwYMGDBgwIABAwYMGDBgwIABAwb8E3wfzbd389GdwuiywfLSwvbubrv9+fPu53J+d+lgqbH9ftk3Ce9jvavrukKol/KA+qtreF/V5qB+jR/LV6JvGt7FeldwJjhnjHPRPAtmXgrOuPqogZCHmyfB5b/mM6FO4/Jlfd03Fe9hVGsKmGA2OD3J49w7B98DkptV32S8g7Hkhfynmcc0N7mmQzFNUcs5UMvxNK6PqZf1t77J6MZ1xbWwCc0yLXuaBv1avVF/eJYmGemVb5LdtG9CurC6SVTbod0cxNM8wJMw0tkMSCHwTHyK7/umpAuTmhpKBGnJg+MglKCK8ESrB+B4ve2blDCmuwSbKPmCjReGe8hh7jHV0TjNY1bM+yYmiNcCWaMUB2oVZRrkABR6uAnSNeq40IMUOApDs9j3TUwQKUoh8I24SMYBrCAnwYRhiQKL+pSx8q5vagLYFyhlRgi5sF8jlZbMkiZ1bCLnyQl6NpNSjz7lnwCletAJsIeSPvhUnilwiMIRqX/UqUq8q9e+CfIxvcgt4QOxQyWqBJBbpl/5cZJz+hNB8k0nZU/LvknysC4dMfP1JB03EktqVmtY4B6p1XrSN0ke7hMO7ouwhpwx5ZaNBDQcVGJLpHFUwvp1OuqbJgfzWgufUSPocmrTCHIKcikMO2WPcM6F8WDlUFUs3fRNlIPzHMROt9ZVjZIkYQ5x0D6uMWEwOM151SmFUY2/RjrGkknOQf6ArwLEWMeDxncFoabwUQeTpxRGTRsWkrE2niZHbxS1B8dQyhqWthtLVl8fqqKTCTLmJUQKVlirHrMizzv/zKuMuQKL2ild900ZYLqxtSUmKppj8e15dADOd4Uxo9yyGeJUlE1UAGEUJoG8HmrT1rPElmYU+CbcP40YY84zJyCiF4erimnKqVsMnYzlL/+05YdiX+iYEMMmjkqmPFzdP1QUaIDXoK9VLf5hww/FOmWoRq0XTeuOCfJW0qAaRWzik1NQNg85UATWjEhMj/GdJyVaDps+zvKHf9bwQzFNzdATGP/JNlaPRxls5RVxsqNoE0X9/K9afiheCuNgQ+yjhuKx4c92zCjIFzSaOUv6DqO2FBNCIKsiXfEBNfhb5ctd9/UEwqjpW47tMdKlMD72UutdYowO5+ZK/YZR+4qjjbb+mrfV8dkymW61k6jUZb16NmMdypGvxvHFUYpUY3VbWO4CuX6NnPYYRil/jWBM4QcHz9hxiRj68T2GUcunTMukgLgIHdNs9yEFqGWekZOLAUt/YVQzcgQHJ8viZOOvfcwTWYuECYqDTaj50et9Gj/HwogU5emb11n9wStupRNvXQ3FIutpNuqiMPGuyarJUfjhOc7IUjbcGtk9zUaNLe1p+90fsBSI6X2WZSxLkoxniVQyzdssad6LHkhc3Sa22uPkj2T8E61Zl7MAdrNdD2Zf5de4kVISqiL6xFWnd/M2tpfzHpzT9S7H1JhAp1TTmJ5MhuxzkIUl5D1ySI1KPlb9R3R/BxvULuivgaVObv5HWHhdkUYXlEdUev2Eq2GOweomQd+fE/vku/wzauaEMD2vMCK07aFk4WlkOD+Ndanl05qm0KKanGyxz5HYONGSVXVxCsm/v4F5zV1vBuktzv9HFGlU6JILKyzUBjE+xTKYD8Dy17jFRMbyi66vLNf3ZVWV43dQlHVNb8q0EvG4KjbjcVpVdZmOx3VV1tVz5y/8Tej5UHRGyWI0z2lHjfZ2H4smQMjcQJnykHqKP7P7qvHf5ReyhCdM/2s+TxqX90vyGcuUWsmpAEa2ru7w/6dvRUMd56ZbmHZjsbaBW+EzhyjFmCIr1f9FudNl6sa7aO2T27Ai/b1JyOnhRCizu4lhlZ/570Edzs+/hMBGSguG2Sequ2te549BRbrdQK2ezQ2kVdPG0bLiGVTMx3XhInDzyyL9y1lmdy0hmC+a5wl3T+UMqyxRQn2zE7w6+8rUcJTbDSIGZZsAE/c1NpbYAt9Cco380gdWSYYwp32hO7FNTUMgV6oeAm73UledCqr1Mn4ehwIwqifGGWSOPpLR0/LFl7oTo5pRoyyWZLPWQFnWAZFzpY97bzypRYX7tYHneheTwhAw7S6pbGfZLmsoQxTqTC6gqg+/JaAQkxthJ7oEJWDlxb84LoMyL5PF0OSK1lD5ETPuDD909JgVejnhCVlC+gX9Yfq1+US5tAL1oal/ZazwkzS/ce5GQFEe119BQaR5ceHYTHWQZkvlWV3uxD/DdUljhFSgbJjPxGVppQFQ5NBP0AfRFjLj/jGUV/QFWLz78rhsX5jpTKq+58JPli5ryxxQy2E9Bufgn5nJJkYqTFhCzEQPc91LrMEwFlu+8xPe+jSOgkoS6w08KL90tSjpHMbjPqYQpbKhgUKmg2eenOoCBOKhaw2IZD3ufPoMob1MAy+fEkb1zeSwtEqhlrsEF98Zg0BWHP12TsVieIa9Yu/j03WfQ1QEooCmUV4VxvRXbOIJ0qbGCTcHWqBjaU8ZvLHXHBhHhVdJM53VbsOdoRskzTmVH1zF+dexKDmOQONhBaqhlpNNlaOkmjHL7UMkoSbGQk73ubpkXxB5mE+U/9tdvlxcbGqr7DlPilz+s4qiE/mf+gnHqHr81HTd5zCyRpix5OEqptXVn6uhI5yws4W+34qhm5wLCNVRb6h3H2zTdYESYamij5RX/T2o0kvtaeJiHtXCDy4GGTOKGsmrFx8pr/qLeHCKoggfqmKCqi/jRuiHnmsTYYrGcI93KZs/gyr3SIvKy8aznutL9xU1y/KcWXJ8KADVl5Z7p171XxXwkqMhtCGOD+dGnl+gL3gCdd7zGhU7xzpvVZsxPnYXlnsTRjHOcXnpKUzXbTJwr7jDzPzxuMtcFySaWoUqnMSy9XWqNknw3EvOyqOUjVyNQKoKF7bzjJ/CpLlM8ltuJGY7eX5MenN1ntM6U8NL7jvxPeGuIouB3qliwDFD6Kom3kPOSl0vlETvA+exFZaDbWyessN9N1jZZecdlbE/BRmV2KZuIh7JLA5e7hIVyHorVuZZdTJr8lWS385B6EYePN23NdGhnd2oT0GRajTuiJVhIi7w+rC1dctxZtkJUlsnVV6lXEpuOICyepiyUZ6fiSmQmyczCiX0/kkMs240OXGYzzXGTLfJr/H+qtc7AKWKtpBqzyb9I8rUlk3z6hT8NRu6GsHkVlCvZonImMiyJEmyTBemy9J0AGteC2S9MYfy9cmVV41KtIc4EIFaYTLG3KS9ccySi2CkFPrmOKfvKzCpaboa4wMuLP3j0kUZRfUgYKacxmDjr53Sphgacg0U8MHOz1v6w8q/kLJlrvo1bD6VvQZs4Do2awbJuKnYeI6kWLAOYDqEVb2v/g1hjGyxfZOWcBrvlWGFBjNsh3cfSIJ8BWTljB1emL3ozCEYjzhxbBsYy+PuO7/WhdUj7I+hcxDciCWHGFmvu4PMqgHyT+/T0zye0s40DuauzfbHGw1N75D7gaT3pHYXcvBSmMCAJM8eaGRHzBlGo6KaOU1FqqGT/HpXXWQKECDQZBjJ1adZ+QF8Kk9rly8HDznKGjcS2BbMoPiSWBfHbTfxtVjTJhnkkUG8brJMKIrW4CMzKB+y3Unvd72ojVMWZpX1mcVhqwOKm76JeB9RbrSi8dLIF0ddQ4et1Ax8fPR2E1+MeW05oYI0pUWu48UYi4gM7nU+9CDc53me5HGSJ0nzkMc5IJFv5IN6JU+I4cxEHZCv5Ufjk8mvdWF6c8gGZp14OaXkzIABAwYMGDBgwIABAwYMGDBgwID/ZqyX/dRYLCeTyR9mC75NJn8hD7acpeef3Q3s2+SPV5hPvHPOn6qqfhj9fOcrV3VVJdd+L6yfF115wWBm926Xs7g0H83vmjMv3l2lHT2eR9GzmVFc7euqfnx3q59pxKuqHJn5j8V9rO4JUox/d31nOZY1pKL+7c2vj9JYZn4VhHylX8vn+L7d8JdabWhJU7zLTZHEeXHTPRdz/VbISxY7JOnyTRbsxsWvbgIfxrHMtFczbOwypYqecVdvypUj8oTaK0veOMl5q6akeZHcti4TxSqBT7vWLfS8eNK5RHSd4oKqEr5T6htF8Piqo5hhdYXzsALnIdc1zYHFXRWhD7GmMHErIq8rQxfjFnXqTXvxbqRLgyosRLiHieDOae2bmCZ2SnXgZ4kTcnHHLhIXuLSVC7y12QZmg+RT190WYF6Qxw6Fq4fELuayirjU++TBH7aR3vKUKBzDlFPHBlOr1wLn3ppzlPi8xDhjxeI4QOLqosI5ZcZxGis19WWdJJbQCS6Fk9pMwNOEkiG1vYeippBbFOq+CVO4iiqcgZOdq+RrW5sJuvytJairq1hAU5t/WA+QAt/1HqThdeElMFnYFMqVSjT5p0oN5TODW5bIifqZ18vNOJQz+g6F8rwwhW8VTbsx2kJpbNVsxG8+Fy9imnu19q1KqevVzwWLAkv4mjMORzWwrtGj8t53M0HAHVe8KlipaZgjpbq3gxROUyxuUEg0hQ8JDgvWEtTVVUWz6NxaXWbu8aJ/LVQoUMI5DoX3OGU9ux5JzEeIpwT6zKtkjhLujUPdmhCF61u8SZL+Awq1XsQZZEdQGxFl5gvWCvDUmVZnvAj8HIxDh8LrAro3adU6y+5Xne+OW00h9ykMahp5V1OrUIPTRl+LGhWJ/KotqBe07kOZQ1OCq/Y5EjitLmsFnlpcxPpYq8WTEqetAwU+6xL6y9VckfCllHXwcHqPRcdYF5CgJbs2uzZKLqKgSi1qKgREcmUulnJbGORfu6KlhKFqKJS3dNQHi4D6nZ7n8A2nXDvS0mtTqAZHm8IotpvEuUWh4iJqDYaCunp0RDR5tkhIOdGOnVb7ahj5ZXTpOoXO5cGZd8lh7XvYnk2k7eefeUglcpxMraFQb3VAxGtBvSiYZYyrK5tHKXQSExWKfuIbU7xDpRmH91hRUoUrJXE9IS+tS523dGmYh6M4g75OqpaUyouTZyPRCOrqtcIjzb/MFtEzJaXqh5Lb0RPKRuzdvqFE5iOF8paOWsU9dBRP3MdQcjIzIctLog6RJ9ChS7doRXh1Maq5L6VnqG6Qx8nuojIy3UQIz+4oS8GqNk7DNE7AnsQzR1BL9KaRwgilvui66etyP07TdJxurBuJT3/JrTs3t9iAMfy0S+G8IGF7XdEgciiUgkrVY02zYmaZTldEz4yUytaTjuZupTVYfKLwGzpPgQDiCIzBv3MoXD3iNiHKbqET40UFSlCN/re0qyeiZ0aXqk6a1PhFZzNST0qn5zELqMoPUdji4XUNHoh2SlI8x4t7lKAyS+XgGHxu2TqQUqb05OqW7q5tb6CHPg1Yi+/YiE+uRB5DI20Kv9FaRH1nOvDd3HGoSCypIhfVKg+I6JmJLaD1tyin9hYlrpROa7ic+ORK5ICULmqQPQwa0eVqr2ZEQSUdKo1AS0TP9DhU8Za+xOqxQANpnBXXa9MOtLzgJ1ciAw8tz3uPo4RK+FJ0NtrR+aK0RbT5y2bfQ/k0ip5Ai9zVMICtpTml7itN4YjhvQ6tLR3mz9G5ROT8QbEayfLL8/cG9Bb8UovCDSpIkv8U+RzIP+wr4B9IaRKuTUVdSh7ZdYmeBJFYMsuTHqEyZyVd5FddqJRU7EE0kVVMi85vCgXLHrrWQq9jVM4TR0WHUhrMsEgDa3QpL8MZ0ZQ7Uiq7JsaxUILPCTSjlOb6c3ODG9rDnFNeilH1vYmhIr2zmRtbGE2zukhwSJmcWApGr6VpYEChPpWP2VMwd+NLqSSxEI4+oxgfNA06AMT2lwTawZycFIAyf8qf5i3PG6X0FtdpJrFRcqgIA1J6E4MJ5Ni74U1OUxipduwXoZMgdG5T+6UCe2GO0RRGmUr3IBs1fw0vjc2M9EKhDs/7pcK22oYKLH6bh6sbe/sf1Lih9BSmS+1odYtaLtORlOe1Tc8hy4dbQ9yYYAe+iI6Ds30ExERhz1tu4qe/48TNKXpPHoUqokf/1Zj+PMDFFHjsZJlGZaYPar+sBOWJfMYdWpE/0x+FyKArm2eR4Y9zZz857c2GpVTeSlH3TuJsFgEZx5aU3mDSCUe7bmFIUFNojZvtvZzhDpVF4yi3YvwIlBiNsavSSkSpZBSIjs2QSK/tCklpE9RDlyQ7p4nIAJeHq4siYzT+jJTK9v7wSUTHz8tnP2NIKZkQip70IVSny28mESXxmsBlS2tMRXrPXY+HjfP3uJ6h4fa3dk/RXbEpVBG9cUeTwowLuWLDc5YxevIFfZOgR7hbVSgCJgLWuVLLcLl4jPWvO9spRXqX0tY4FLvbGKSEjz0OpDCwHXt4UXDjr7Hi4bokKZWtfPXiQ+a3XmM6S+AKCYb4lg5Y423l4qDzvb7Vps1dDSozwgEpbSICgc1r3S4KrIXNgNVFZYYfU+ESRv2oUVfuJTocv0ZySFfBOVYvLPBXQgHU9Bzkxl0NGs5EaYWkZaxq3d/BCe6AQFcolbO9qNF5Uxr1de1cwucPtROvjh3MLH1LN0SKA0GwvpU18ydnosSXUnNx1YbiNRzcOVJ6g/M12rhCuKTTUxBJ8fzVybVxL49GgJkDIwC2JO8h2cADW6r9gh/yps3autTqeNlZAc8ZIiyyFitJIIWEVkTvCmrxw6OQ8dDk4SqqUF8F9O09yk8rhtpCnspPFrctviVuPLzxEjkkunnTCG9WqsavHdEvMC4H/fzTXEIbb1/TKBJfC47Ml99zemFUovR6U8dbvPOIvxpUZ/VbFOJQCG65g3kAnLdIUYuqvnIi+gWl4ZUWt+ctuC+BBrsY+e57dnofQPVB7W5XUuvtFdrbjLez+vq31fZlIjwTnLpSeo/sY6yddHIE1aSqUUrDFC5Ts6u87/eMYuAv+UyMRnvzIGa+qVQOfUtK4Ysd6/IwegLxQaGVXdJOOi0oRcCtXakxiO6YxF/U3MQn3iz3LfpuzAqXQOQauWrNSUXKSPpZfc2SrqQWeW3qp2XlgB4B4aTTooSoVDGRfuY9Hp6dfROYm/JnuVXSAUaE8X3h1JaaOWvr0o1J64q4I6lFmQ4VjO8LHLlZMOlkBJWbPNNe68tOCs8mIkHW+5vgLQqSTkvjwrntOSk9M8MqzGLsC7QWovPmDr/0Llsc7mKT0s8Ek040M2WL/fRNKZOkewu/0SzWSYLiwr/1QSr5m6nbUWUZ3K9YbR7EssCc1Iv6deMGyIqh5spJMROda/C3b4U6BYKYXzqdKrrvJLkotVeeWxMTN6KqxO07u1btH6rmlEK097OcPMUiiGIWmpP6XsdMlEZnzp9v6qp6unovsbxaNKe8XKFbcdfoBVE/vZx11uFdP1ZNN1Rvlp4bjSaT3+8UtTW/MmlOmQQK336u70ZB3F2GLjid7NJHh/RVc90/Lf39NpkYdqx/p3Xx/lemk99puu9rA5i/UH25XP55NfQBpwwYMGDAgAEDBgwYMGDAgAEDBgwYMGDA/xf+A+jFCtSMa1q0AAAAAElFTkSuQmCC;" parent="1" vertex="1">
          <mxGeometry x="1259.5" y="568.1999999999999" width="45" height="45" as="geometry" />
        </mxCell>
        <mxCell id="P5fyJ_uZ24H15enQcCNX-37" value="" style="shape=image;verticalLabelPosition=bottom;labelBackgroundColor=default;verticalAlign=top;aspect=fixed;imageAspect=0;image=data:image/png,iVBORw0KGgoAAAANSUhEUgAAAOEAAADhCAMAAAAJbSJIAAAAllBMVEX///80lU41lk9rq3k0l04vlUswlUwAijK82cNvrn0AhyuqzLEzlE11s4Mrkkgpkkby9/M+m1cOizfH4c3S5dYikEKKu5SHwJbe6+Eajj34+/nl7+cAhiaex6depm/N4tFInV2TwJ1SoWWmyq232L8Agx1bpGt3s4VPn2KWx6JkqHOhzq1KpGNssX7X59taqW4Afw231L3vRKabAAAWGklEQVR4nO1dC2PaMA6uHSehkCYQGkqAFuj63rpu///PXWxL8iNOB+3WcHf51vEIIViWrJdl5+xswIABAwYMGDBgwIABAwYMGDBgwIABAwb8E3wfzbd389GdwuiywfLSwvbubrv9+fPu53J+d+lgqbH9ftk3Ce9jvavrukKol/KA+qtreF/V5qB+jR/LV6JvGt7FeldwJjhnjHPRPAtmXgrOuPqogZCHmyfB5b/mM6FO4/Jlfd03Fe9hVGsKmGA2OD3J49w7B98DkptV32S8g7Hkhfynmcc0N7mmQzFNUcs5UMvxNK6PqZf1t77J6MZ1xbWwCc0yLXuaBv1avVF/eJYmGemVb5LdtG9CurC6SVTbod0cxNM8wJMw0tkMSCHwTHyK7/umpAuTmhpKBGnJg+MglKCK8ESrB+B4ve2blDCmuwSbKPmCjReGe8hh7jHV0TjNY1bM+yYmiNcCWaMUB2oVZRrkABR6uAnSNeq40IMUOApDs9j3TUwQKUoh8I24SMYBrCAnwYRhiQKL+pSx8q5vagLYFyhlRgi5sF8jlZbMkiZ1bCLnyQl6NpNSjz7lnwCletAJsIeSPvhUnilwiMIRqX/UqUq8q9e+CfIxvcgt4QOxQyWqBJBbpl/5cZJz+hNB8k0nZU/LvknysC4dMfP1JB03EktqVmtY4B6p1XrSN0ke7hMO7ouwhpwx5ZaNBDQcVGJLpHFUwvp1OuqbJgfzWgufUSPocmrTCHIKcikMO2WPcM6F8WDlUFUs3fRNlIPzHMROt9ZVjZIkYQ5x0D6uMWEwOM151SmFUY2/RjrGkknOQf6ArwLEWMeDxncFoabwUQeTpxRGTRsWkrE2niZHbxS1B8dQyhqWthtLVl8fqqKTCTLmJUQKVlirHrMizzv/zKuMuQKL2ild900ZYLqxtSUmKppj8e15dADOd4Uxo9yyGeJUlE1UAGEUJoG8HmrT1rPElmYU+CbcP40YY84zJyCiF4erimnKqVsMnYzlL/+05YdiX+iYEMMmjkqmPFzdP1QUaIDXoK9VLf5hww/FOmWoRq0XTeuOCfJW0qAaRWzik1NQNg85UATWjEhMj/GdJyVaDps+zvKHf9bwQzFNzdATGP/JNlaPRxls5RVxsqNoE0X9/K9afiheCuNgQ+yjhuKx4c92zCjIFzSaOUv6DqO2FBNCIKsiXfEBNfhb5ctd9/UEwqjpW47tMdKlMD72UutdYowO5+ZK/YZR+4qjjbb+mrfV8dkymW61k6jUZb16NmMdypGvxvHFUYpUY3VbWO4CuX6NnPYYRil/jWBM4QcHz9hxiRj68T2GUcunTMukgLgIHdNs9yEFqGWekZOLAUt/YVQzcgQHJ8viZOOvfcwTWYuECYqDTaj50et9Gj/HwogU5emb11n9wStupRNvXQ3FIutpNuqiMPGuyarJUfjhOc7IUjbcGtk9zUaNLe1p+90fsBSI6X2WZSxLkoxniVQyzdssad6LHkhc3Sa22uPkj2T8E61Zl7MAdrNdD2Zf5de4kVISqiL6xFWnd/M2tpfzHpzT9S7H1JhAp1TTmJ5MhuxzkIUl5D1ySI1KPlb9R3R/BxvULuivgaVObv5HWHhdkUYXlEdUev2Eq2GOweomQd+fE/vku/wzauaEMD2vMCK07aFk4WlkOD+Ndanl05qm0KKanGyxz5HYONGSVXVxCsm/v4F5zV1vBuktzv9HFGlU6JILKyzUBjE+xTKYD8Dy17jFRMbyi66vLNf3ZVWV43dQlHVNb8q0EvG4KjbjcVpVdZmOx3VV1tVz5y/8Tej5UHRGyWI0z2lHjfZ2H4smQMjcQJnykHqKP7P7qvHf5ReyhCdM/2s+TxqX90vyGcuUWsmpAEa2ru7w/6dvRUMd56ZbmHZjsbaBW+EzhyjFmCIr1f9FudNl6sa7aO2T27Ai/b1JyOnhRCizu4lhlZ/570Edzs+/hMBGSguG2Sequ2te549BRbrdQK2ezQ2kVdPG0bLiGVTMx3XhInDzyyL9y1lmdy0hmC+a5wl3T+UMqyxRQn2zE7w6+8rUcJTbDSIGZZsAE/c1NpbYAt9Cco380gdWSYYwp32hO7FNTUMgV6oeAm73UledCqr1Mn4ehwIwqifGGWSOPpLR0/LFl7oTo5pRoyyWZLPWQFnWAZFzpY97bzypRYX7tYHneheTwhAw7S6pbGfZLmsoQxTqTC6gqg+/JaAQkxthJ7oEJWDlxb84LoMyL5PF0OSK1lD5ETPuDD909JgVejnhCVlC+gX9Yfq1+US5tAL1oal/ZazwkzS/ce5GQFEe119BQaR5ceHYTHWQZkvlWV3uxD/DdUljhFSgbJjPxGVppQFQ5NBP0AfRFjLj/jGUV/QFWLz78rhsX5jpTKq+58JPli5ryxxQy2E9Bufgn5nJJkYqTFhCzEQPc91LrMEwFlu+8xPe+jSOgkoS6w08KL90tSjpHMbjPqYQpbKhgUKmg2eenOoCBOKhaw2IZD3ufPoMob1MAy+fEkb1zeSwtEqhlrsEF98Zg0BWHP12TsVieIa9Yu/j03WfQ1QEooCmUV4VxvRXbOIJ0qbGCTcHWqBjaU8ZvLHXHBhHhVdJM53VbsOdoRskzTmVH1zF+dexKDmOQONhBaqhlpNNlaOkmjHL7UMkoSbGQk73ubpkXxB5mE+U/9tdvlxcbGqr7DlPilz+s4qiE/mf+gnHqHr81HTd5zCyRpix5OEqptXVn6uhI5yws4W+34qhm5wLCNVRb6h3H2zTdYESYamij5RX/T2o0kvtaeJiHtXCDy4GGTOKGsmrFx8pr/qLeHCKoggfqmKCqi/jRuiHnmsTYYrGcI93KZs/gyr3SIvKy8aznutL9xU1y/KcWXJ8KADVl5Z7p171XxXwkqMhtCGOD+dGnl+gL3gCdd7zGhU7xzpvVZsxPnYXlnsTRjHOcXnpKUzXbTJwr7jDzPzxuMtcFySaWoUqnMSy9XWqNknw3EvOyqOUjVyNQKoKF7bzjJ/CpLlM8ltuJGY7eX5MenN1ntM6U8NL7jvxPeGuIouB3qliwDFD6Kom3kPOSl0vlETvA+exFZaDbWyessN9N1jZZecdlbE/BRmV2KZuIh7JLA5e7hIVyHorVuZZdTJr8lWS385B6EYePN23NdGhnd2oT0GRajTuiJVhIi7w+rC1dctxZtkJUlsnVV6lXEpuOICyepiyUZ6fiSmQmyczCiX0/kkMs240OXGYzzXGTLfJr/H+qtc7AKWKtpBqzyb9I8rUlk3z6hT8NRu6GsHkVlCvZonImMiyJEmyTBemy9J0AGteC2S9MYfy9cmVV41KtIc4EIFaYTLG3KS9ccySi2CkFPrmOKfvKzCpaboa4wMuLP3j0kUZRfUgYKacxmDjr53Sphgacg0U8MHOz1v6w8q/kLJlrvo1bD6VvQZs4Do2awbJuKnYeI6kWLAOYDqEVb2v/g1hjGyxfZOWcBrvlWGFBjNsh3cfSIJ8BWTljB1emL3ozCEYjzhxbBsYy+PuO7/WhdUj7I+hcxDciCWHGFmvu4PMqgHyT+/T0zye0s40DuauzfbHGw1N75D7gaT3pHYXcvBSmMCAJM8eaGRHzBlGo6KaOU1FqqGT/HpXXWQKECDQZBjJ1adZ+QF8Kk9rly8HDznKGjcS2BbMoPiSWBfHbTfxtVjTJhnkkUG8brJMKIrW4CMzKB+y3Unvd72ojVMWZpX1mcVhqwOKm76JeB9RbrSi8dLIF0ddQ4et1Ax8fPR2E1+MeW05oYI0pUWu48UYi4gM7nU+9CDc53me5HGSJ0nzkMc5IJFv5IN6JU+I4cxEHZCv5Ufjk8mvdWF6c8gGZp14OaXkzIABAwYMGDBgwIABAwYMGDBgwID/ZqyX/dRYLCeTyR9mC75NJn8hD7acpeef3Q3s2+SPV5hPvHPOn6qqfhj9fOcrV3VVJdd+L6yfF115wWBm926Xs7g0H83vmjMv3l2lHT2eR9GzmVFc7euqfnx3q59pxKuqHJn5j8V9rO4JUox/d31nOZY1pKL+7c2vj9JYZn4VhHylX8vn+L7d8JdabWhJU7zLTZHEeXHTPRdz/VbISxY7JOnyTRbsxsWvbgIfxrHMtFczbOwypYqecVdvypUj8oTaK0veOMl5q6akeZHcti4TxSqBT7vWLfS8eNK5RHSd4oKqEr5T6htF8Piqo5hhdYXzsALnIdc1zYHFXRWhD7GmMHErIq8rQxfjFnXqTXvxbqRLgyosRLiHieDOae2bmCZ2SnXgZ4kTcnHHLhIXuLSVC7y12QZmg+RT190WYF6Qxw6Fq4fELuayirjU++TBH7aR3vKUKBzDlFPHBlOr1wLn3ppzlPi8xDhjxeI4QOLqosI5ZcZxGis19WWdJJbQCS6Fk9pMwNOEkiG1vYeippBbFOq+CVO4iiqcgZOdq+RrW5sJuvytJairq1hAU5t/WA+QAt/1HqThdeElMFnYFMqVSjT5p0oN5TODW5bIifqZ18vNOJQz+g6F8rwwhW8VTbsx2kJpbNVsxG8+Fy9imnu19q1KqevVzwWLAkv4mjMORzWwrtGj8t53M0HAHVe8KlipaZgjpbq3gxROUyxuUEg0hQ8JDgvWEtTVVUWz6NxaXWbu8aJ/LVQoUMI5DoX3OGU9ux5JzEeIpwT6zKtkjhLujUPdmhCF61u8SZL+Awq1XsQZZEdQGxFl5gvWCvDUmVZnvAj8HIxDh8LrAro3adU6y+5Xne+OW00h9ykMahp5V1OrUIPTRl+LGhWJ/KotqBe07kOZQ1OCq/Y5EjitLmsFnlpcxPpYq8WTEqetAwU+6xL6y9VckfCllHXwcHqPRcdYF5CgJbs2uzZKLqKgSi1qKgREcmUulnJbGORfu6KlhKFqKJS3dNQHi4D6nZ7n8A2nXDvS0mtTqAZHm8IotpvEuUWh4iJqDYaCunp0RDR5tkhIOdGOnVb7ahj5ZXTpOoXO5cGZd8lh7XvYnk2k7eefeUglcpxMraFQb3VAxGtBvSiYZYyrK5tHKXQSExWKfuIbU7xDpRmH91hRUoUrJXE9IS+tS523dGmYh6M4g75OqpaUyouTZyPRCOrqtcIjzb/MFtEzJaXqh5Lb0RPKRuzdvqFE5iOF8paOWsU9dBRP3MdQcjIzIctLog6RJ9ChS7doRXh1Maq5L6VnqG6Qx8nuojIy3UQIz+4oS8GqNk7DNE7AnsQzR1BL9KaRwgilvui66etyP07TdJxurBuJT3/JrTs3t9iAMfy0S+G8IGF7XdEgciiUgkrVY02zYmaZTldEz4yUytaTjuZupTVYfKLwGzpPgQDiCIzBv3MoXD3iNiHKbqET40UFSlCN/re0qyeiZ0aXqk6a1PhFZzNST0qn5zELqMoPUdji4XUNHoh2SlI8x4t7lKAyS+XgGHxu2TqQUqb05OqW7q5tb6CHPg1Yi+/YiE+uRB5DI20Kv9FaRH1nOvDd3HGoSCypIhfVKg+I6JmJLaD1tyin9hYlrpROa7ic+ORK5ICULmqQPQwa0eVqr2ZEQSUdKo1AS0TP9DhU8Za+xOqxQANpnBXXa9MOtLzgJ1ciAw8tz3uPo4RK+FJ0NtrR+aK0RbT5y2bfQ/k0ip5Ai9zVMICtpTml7itN4YjhvQ6tLR3mz9G5ROT8QbEayfLL8/cG9Bb8UovCDSpIkv8U+RzIP+wr4B9IaRKuTUVdSh7ZdYmeBJFYMsuTHqEyZyVd5FddqJRU7EE0kVVMi85vCgXLHrrWQq9jVM4TR0WHUhrMsEgDa3QpL8MZ0ZQ7Uiq7JsaxUILPCTSjlOb6c3ODG9rDnFNeilH1vYmhIr2zmRtbGE2zukhwSJmcWApGr6VpYEChPpWP2VMwd+NLqSSxEI4+oxgfNA06AMT2lwTawZycFIAyf8qf5i3PG6X0FtdpJrFRcqgIA1J6E4MJ5Ni74U1OUxipduwXoZMgdG5T+6UCe2GO0RRGmUr3IBs1fw0vjc2M9EKhDs/7pcK22oYKLH6bh6sbe/sf1Lih9BSmS+1odYtaLtORlOe1Tc8hy4dbQ9yYYAe+iI6Ds30ExERhz1tu4qe/48TNKXpPHoUqokf/1Zj+PMDFFHjsZJlGZaYPar+sBOWJfMYdWpE/0x+FyKArm2eR4Y9zZz857c2GpVTeSlH3TuJsFgEZx5aU3mDSCUe7bmFIUFNojZvtvZzhDpVF4yi3YvwIlBiNsavSSkSpZBSIjs2QSK/tCklpE9RDlyQ7p4nIAJeHq4siYzT+jJTK9v7wSUTHz8tnP2NIKZkQip70IVSny28mESXxmsBlS2tMRXrPXY+HjfP3uJ6h4fa3dk/RXbEpVBG9cUeTwowLuWLDc5YxevIFfZOgR7hbVSgCJgLWuVLLcLl4jPWvO9spRXqX0tY4FLvbGKSEjz0OpDCwHXt4UXDjr7Hi4bokKZWtfPXiQ+a3XmM6S+AKCYb4lg5Y423l4qDzvb7Vps1dDSozwgEpbSICgc1r3S4KrIXNgNVFZYYfU+ESRv2oUVfuJTocv0ZySFfBOVYvLPBXQgHU9Bzkxl0NGs5EaYWkZaxq3d/BCe6AQFcolbO9qNF5Uxr1de1cwucPtROvjh3MLH1LN0SKA0GwvpU18ydnosSXUnNx1YbiNRzcOVJ6g/M12rhCuKTTUxBJ8fzVybVxL49GgJkDIwC2JO8h2cADW6r9gh/yps3autTqeNlZAc8ZIiyyFitJIIWEVkTvCmrxw6OQ8dDk4SqqUF8F9O09yk8rhtpCnspPFrctviVuPLzxEjkkunnTCG9WqsavHdEvMC4H/fzTXEIbb1/TKBJfC47Ml99zemFUovR6U8dbvPOIvxpUZ/VbFOJQCG65g3kAnLdIUYuqvnIi+gWl4ZUWt+ctuC+BBrsY+e57dnofQPVB7W5XUuvtFdrbjLez+vq31fZlIjwTnLpSeo/sY6yddHIE1aSqUUrDFC5Ts6u87/eMYuAv+UyMRnvzIGa+qVQOfUtK4Ysd6/IwegLxQaGVXdJOOi0oRcCtXakxiO6YxF/U3MQn3iz3LfpuzAqXQOQauWrNSUXKSPpZfc2SrqQWeW3qp2XlgB4B4aTTooSoVDGRfuY9Hp6dfROYm/JnuVXSAUaE8X3h1JaaOWvr0o1J64q4I6lFmQ4VjO8LHLlZMOlkBJWbPNNe68tOCs8mIkHW+5vgLQqSTkvjwrntOSk9M8MqzGLsC7QWovPmDr/0Llsc7mKT0s8Ek040M2WL/fRNKZOkewu/0SzWSYLiwr/1QSr5m6nbUWUZ3K9YbR7EssCc1Iv6deMGyIqh5spJMROda/C3b4U6BYKYXzqdKrrvJLkotVeeWxMTN6KqxO07u1btH6rmlEK097OcPMUiiGIWmpP6XsdMlEZnzp9v6qp6unovsbxaNKe8XKFbcdfoBVE/vZx11uFdP1ZNN1Rvlp4bjSaT3+8UtTW/MmlOmQQK336u70ZB3F2GLjid7NJHh/RVc90/Lf39NpkYdqx/p3Xx/lemk99puu9rA5i/UH25XP55NfQBpwwYMGDAgAEDBgwYMGDAgAEDBgwYMGDA/xf+A+jFCtSMa1q0AAAAAElFTkSuQmCC;" parent="1" vertex="1">
          <mxGeometry x="1259.5" y="665.3" width="45" height="45" as="geometry" />
        </mxCell>
        <mxCell id="P5fyJ_uZ24H15enQcCNX-38" value="" style="shape=image;verticalLabelPosition=bottom;labelBackgroundColor=default;verticalAlign=top;aspect=fixed;imageAspect=0;image=data:image/png,iVBORw0KGgoAAAANSUhEUgAAAOEAAADhCAMAAAAJbSJIAAAAllBMVEX///80lU41lk9rq3k0l04vlUswlUwAijK82cNvrn0AhyuqzLEzlE11s4Mrkkgpkkby9/M+m1cOizfH4c3S5dYikEKKu5SHwJbe6+Eajj34+/nl7+cAhiaex6depm/N4tFInV2TwJ1SoWWmyq232L8Agx1bpGt3s4VPn2KWx6JkqHOhzq1KpGNssX7X59taqW4Afw231L3vRKabAAAWGklEQVR4nO1dC2PaMA6uHSehkCYQGkqAFuj63rpu///PXWxL8iNOB+3WcHf51vEIIViWrJdl5+xswIABAwYMGDBgwIABAwYMGDBgwIABAwb8E3wfzbd389GdwuiywfLSwvbubrv9+fPu53J+d+lgqbH9ftk3Ce9jvavrukKol/KA+qtreF/V5qB+jR/LV6JvGt7FeldwJjhnjHPRPAtmXgrOuPqogZCHmyfB5b/mM6FO4/Jlfd03Fe9hVGsKmGA2OD3J49w7B98DkptV32S8g7Hkhfynmcc0N7mmQzFNUcs5UMvxNK6PqZf1t77J6MZ1xbWwCc0yLXuaBv1avVF/eJYmGemVb5LdtG9CurC6SVTbod0cxNM8wJMw0tkMSCHwTHyK7/umpAuTmhpKBGnJg+MglKCK8ESrB+B4ve2blDCmuwSbKPmCjReGe8hh7jHV0TjNY1bM+yYmiNcCWaMUB2oVZRrkABR6uAnSNeq40IMUOApDs9j3TUwQKUoh8I24SMYBrCAnwYRhiQKL+pSx8q5vagLYFyhlRgi5sF8jlZbMkiZ1bCLnyQl6NpNSjz7lnwCletAJsIeSPvhUnilwiMIRqX/UqUq8q9e+CfIxvcgt4QOxQyWqBJBbpl/5cZJz+hNB8k0nZU/LvknysC4dMfP1JB03EktqVmtY4B6p1XrSN0ke7hMO7ouwhpwx5ZaNBDQcVGJLpHFUwvp1OuqbJgfzWgufUSPocmrTCHIKcikMO2WPcM6F8WDlUFUs3fRNlIPzHMROt9ZVjZIkYQ5x0D6uMWEwOM151SmFUY2/RjrGkknOQf6ArwLEWMeDxncFoabwUQeTpxRGTRsWkrE2niZHbxS1B8dQyhqWthtLVl8fqqKTCTLmJUQKVlirHrMizzv/zKuMuQKL2ild900ZYLqxtSUmKppj8e15dADOd4Uxo9yyGeJUlE1UAGEUJoG8HmrT1rPElmYU+CbcP40YY84zJyCiF4erimnKqVsMnYzlL/+05YdiX+iYEMMmjkqmPFzdP1QUaIDXoK9VLf5hww/FOmWoRq0XTeuOCfJW0qAaRWzik1NQNg85UATWjEhMj/GdJyVaDps+zvKHf9bwQzFNzdATGP/JNlaPRxls5RVxsqNoE0X9/K9afiheCuNgQ+yjhuKx4c92zCjIFzSaOUv6DqO2FBNCIKsiXfEBNfhb5ctd9/UEwqjpW47tMdKlMD72UutdYowO5+ZK/YZR+4qjjbb+mrfV8dkymW61k6jUZb16NmMdypGvxvHFUYpUY3VbWO4CuX6NnPYYRil/jWBM4QcHz9hxiRj68T2GUcunTMukgLgIHdNs9yEFqGWekZOLAUt/YVQzcgQHJ8viZOOvfcwTWYuECYqDTaj50et9Gj/HwogU5emb11n9wStupRNvXQ3FIutpNuqiMPGuyarJUfjhOc7IUjbcGtk9zUaNLe1p+90fsBSI6X2WZSxLkoxniVQyzdssad6LHkhc3Sa22uPkj2T8E61Zl7MAdrNdD2Zf5de4kVISqiL6xFWnd/M2tpfzHpzT9S7H1JhAp1TTmJ5MhuxzkIUl5D1ySI1KPlb9R3R/BxvULuivgaVObv5HWHhdkUYXlEdUev2Eq2GOweomQd+fE/vku/wzauaEMD2vMCK07aFk4WlkOD+Ndanl05qm0KKanGyxz5HYONGSVXVxCsm/v4F5zV1vBuktzv9HFGlU6JILKyzUBjE+xTKYD8Dy17jFRMbyi66vLNf3ZVWV43dQlHVNb8q0EvG4KjbjcVpVdZmOx3VV1tVz5y/8Tej5UHRGyWI0z2lHjfZ2H4smQMjcQJnykHqKP7P7qvHf5ReyhCdM/2s+TxqX90vyGcuUWsmpAEa2ru7w/6dvRUMd56ZbmHZjsbaBW+EzhyjFmCIr1f9FudNl6sa7aO2T27Ai/b1JyOnhRCizu4lhlZ/570Edzs+/hMBGSguG2Sequ2te549BRbrdQK2ezQ2kVdPG0bLiGVTMx3XhInDzyyL9y1lmdy0hmC+a5wl3T+UMqyxRQn2zE7w6+8rUcJTbDSIGZZsAE/c1NpbYAt9Cco380gdWSYYwp32hO7FNTUMgV6oeAm73UledCqr1Mn4ehwIwqifGGWSOPpLR0/LFl7oTo5pRoyyWZLPWQFnWAZFzpY97bzypRYX7tYHneheTwhAw7S6pbGfZLmsoQxTqTC6gqg+/JaAQkxthJ7oEJWDlxb84LoMyL5PF0OSK1lD5ETPuDD909JgVejnhCVlC+gX9Yfq1+US5tAL1oal/ZazwkzS/ce5GQFEe119BQaR5ceHYTHWQZkvlWV3uxD/DdUljhFSgbJjPxGVppQFQ5NBP0AfRFjLj/jGUV/QFWLz78rhsX5jpTKq+58JPli5ryxxQy2E9Bufgn5nJJkYqTFhCzEQPc91LrMEwFlu+8xPe+jSOgkoS6w08KL90tSjpHMbjPqYQpbKhgUKmg2eenOoCBOKhaw2IZD3ufPoMob1MAy+fEkb1zeSwtEqhlrsEF98Zg0BWHP12TsVieIa9Yu/j03WfQ1QEooCmUV4VxvRXbOIJ0qbGCTcHWqBjaU8ZvLHXHBhHhVdJM53VbsOdoRskzTmVH1zF+dexKDmOQONhBaqhlpNNlaOkmjHL7UMkoSbGQk73ubpkXxB5mE+U/9tdvlxcbGqr7DlPilz+s4qiE/mf+gnHqHr81HTd5zCyRpix5OEqptXVn6uhI5yws4W+34qhm5wLCNVRb6h3H2zTdYESYamij5RX/T2o0kvtaeJiHtXCDy4GGTOKGsmrFx8pr/qLeHCKoggfqmKCqi/jRuiHnmsTYYrGcI93KZs/gyr3SIvKy8aznutL9xU1y/KcWXJ8KADVl5Z7p171XxXwkqMhtCGOD+dGnl+gL3gCdd7zGhU7xzpvVZsxPnYXlnsTRjHOcXnpKUzXbTJwr7jDzPzxuMtcFySaWoUqnMSy9XWqNknw3EvOyqOUjVyNQKoKF7bzjJ/CpLlM8ltuJGY7eX5MenN1ntM6U8NL7jvxPeGuIouB3qliwDFD6Kom3kPOSl0vlETvA+exFZaDbWyessN9N1jZZecdlbE/BRmV2KZuIh7JLA5e7hIVyHorVuZZdTJr8lWS385B6EYePN23NdGhnd2oT0GRajTuiJVhIi7w+rC1dctxZtkJUlsnVV6lXEpuOICyepiyUZ6fiSmQmyczCiX0/kkMs240OXGYzzXGTLfJr/H+qtc7AKWKtpBqzyb9I8rUlk3z6hT8NRu6GsHkVlCvZonImMiyJEmyTBemy9J0AGteC2S9MYfy9cmVV41KtIc4EIFaYTLG3KS9ccySi2CkFPrmOKfvKzCpaboa4wMuLP3j0kUZRfUgYKacxmDjr53Sphgacg0U8MHOz1v6w8q/kLJlrvo1bD6VvQZs4Do2awbJuKnYeI6kWLAOYDqEVb2v/g1hjGyxfZOWcBrvlWGFBjNsh3cfSIJ8BWTljB1emL3ozCEYjzhxbBsYy+PuO7/WhdUj7I+hcxDciCWHGFmvu4PMqgHyT+/T0zye0s40DuauzfbHGw1N75D7gaT3pHYXcvBSmMCAJM8eaGRHzBlGo6KaOU1FqqGT/HpXXWQKECDQZBjJ1adZ+QF8Kk9rly8HDznKGjcS2BbMoPiSWBfHbTfxtVjTJhnkkUG8brJMKIrW4CMzKB+y3Unvd72ojVMWZpX1mcVhqwOKm76JeB9RbrSi8dLIF0ddQ4et1Ax8fPR2E1+MeW05oYI0pUWu48UYi4gM7nU+9CDc53me5HGSJ0nzkMc5IJFv5IN6JU+I4cxEHZCv5Ufjk8mvdWF6c8gGZp14OaXkzIABAwYMGDBgwIABAwYMGDBgwID/ZqyX/dRYLCeTyR9mC75NJn8hD7acpeef3Q3s2+SPV5hPvHPOn6qqfhj9fOcrV3VVJdd+L6yfF115wWBm926Xs7g0H83vmjMv3l2lHT2eR9GzmVFc7euqfnx3q59pxKuqHJn5j8V9rO4JUox/d31nOZY1pKL+7c2vj9JYZn4VhHylX8vn+L7d8JdabWhJU7zLTZHEeXHTPRdz/VbISxY7JOnyTRbsxsWvbgIfxrHMtFczbOwypYqecVdvypUj8oTaK0veOMl5q6akeZHcti4TxSqBT7vWLfS8eNK5RHSd4oKqEr5T6htF8Piqo5hhdYXzsALnIdc1zYHFXRWhD7GmMHErIq8rQxfjFnXqTXvxbqRLgyosRLiHieDOae2bmCZ2SnXgZ4kTcnHHLhIXuLSVC7y12QZmg+RT190WYF6Qxw6Fq4fELuayirjU++TBH7aR3vKUKBzDlFPHBlOr1wLn3ppzlPi8xDhjxeI4QOLqosI5ZcZxGis19WWdJJbQCS6Fk9pMwNOEkiG1vYeippBbFOq+CVO4iiqcgZOdq+RrW5sJuvytJairq1hAU5t/WA+QAt/1HqThdeElMFnYFMqVSjT5p0oN5TODW5bIifqZ18vNOJQz+g6F8rwwhW8VTbsx2kJpbNVsxG8+Fy9imnu19q1KqevVzwWLAkv4mjMORzWwrtGj8t53M0HAHVe8KlipaZgjpbq3gxROUyxuUEg0hQ8JDgvWEtTVVUWz6NxaXWbu8aJ/LVQoUMI5DoX3OGU9ux5JzEeIpwT6zKtkjhLujUPdmhCF61u8SZL+Awq1XsQZZEdQGxFl5gvWCvDUmVZnvAj8HIxDh8LrAro3adU6y+5Xne+OW00h9ykMahp5V1OrUIPTRl+LGhWJ/KotqBe07kOZQ1OCq/Y5EjitLmsFnlpcxPpYq8WTEqetAwU+6xL6y9VckfCllHXwcHqPRcdYF5CgJbs2uzZKLqKgSi1qKgREcmUulnJbGORfu6KlhKFqKJS3dNQHi4D6nZ7n8A2nXDvS0mtTqAZHm8IotpvEuUWh4iJqDYaCunp0RDR5tkhIOdGOnVb7ahj5ZXTpOoXO5cGZd8lh7XvYnk2k7eefeUglcpxMraFQb3VAxGtBvSiYZYyrK5tHKXQSExWKfuIbU7xDpRmH91hRUoUrJXE9IS+tS523dGmYh6M4g75OqpaUyouTZyPRCOrqtcIjzb/MFtEzJaXqh5Lb0RPKRuzdvqFE5iOF8paOWsU9dBRP3MdQcjIzIctLog6RJ9ChS7doRXh1Maq5L6VnqG6Qx8nuojIy3UQIz+4oS8GqNk7DNE7AnsQzR1BL9KaRwgilvui66etyP07TdJxurBuJT3/JrTs3t9iAMfy0S+G8IGF7XdEgciiUgkrVY02zYmaZTldEz4yUytaTjuZupTVYfKLwGzpPgQDiCIzBv3MoXD3iNiHKbqET40UFSlCN/re0qyeiZ0aXqk6a1PhFZzNST0qn5zELqMoPUdji4XUNHoh2SlI8x4t7lKAyS+XgGHxu2TqQUqb05OqW7q5tb6CHPg1Yi+/YiE+uRB5DI20Kv9FaRH1nOvDd3HGoSCypIhfVKg+I6JmJLaD1tyin9hYlrpROa7ic+ORK5ICULmqQPQwa0eVqr2ZEQSUdKo1AS0TP9DhU8Za+xOqxQANpnBXXa9MOtLzgJ1ciAw8tz3uPo4RK+FJ0NtrR+aK0RbT5y2bfQ/k0ip5Ai9zVMICtpTml7itN4YjhvQ6tLR3mz9G5ROT8QbEayfLL8/cG9Bb8UovCDSpIkv8U+RzIP+wr4B9IaRKuTUVdSh7ZdYmeBJFYMsuTHqEyZyVd5FddqJRU7EE0kVVMi85vCgXLHrrWQq9jVM4TR0WHUhrMsEgDa3QpL8MZ0ZQ7Uiq7JsaxUILPCTSjlOb6c3ODG9rDnFNeilH1vYmhIr2zmRtbGE2zukhwSJmcWApGr6VpYEChPpWP2VMwd+NLqSSxEI4+oxgfNA06AMT2lwTawZycFIAyf8qf5i3PG6X0FtdpJrFRcqgIA1J6E4MJ5Ni74U1OUxipduwXoZMgdG5T+6UCe2GO0RRGmUr3IBs1fw0vjc2M9EKhDs/7pcK22oYKLH6bh6sbe/sf1Lih9BSmS+1odYtaLtORlOe1Tc8hy4dbQ9yYYAe+iI6Ds30ExERhz1tu4qe/48TNKXpPHoUqokf/1Zj+PMDFFHjsZJlGZaYPar+sBOWJfMYdWpE/0x+FyKArm2eR4Y9zZz857c2GpVTeSlH3TuJsFgEZx5aU3mDSCUe7bmFIUFNojZvtvZzhDpVF4yi3YvwIlBiNsavSSkSpZBSIjs2QSK/tCklpE9RDlyQ7p4nIAJeHq4siYzT+jJTK9v7wSUTHz8tnP2NIKZkQip70IVSny28mESXxmsBlS2tMRXrPXY+HjfP3uJ6h4fa3dk/RXbEpVBG9cUeTwowLuWLDc5YxevIFfZOgR7hbVSgCJgLWuVLLcLl4jPWvO9spRXqX0tY4FLvbGKSEjz0OpDCwHXt4UXDjr7Hi4bokKZWtfPXiQ+a3XmM6S+AKCYb4lg5Y423l4qDzvb7Vps1dDSozwgEpbSICgc1r3S4KrIXNgNVFZYYfU+ESRv2oUVfuJTocv0ZySFfBOVYvLPBXQgHU9Bzkxl0NGs5EaYWkZaxq3d/BCe6AQFcolbO9qNF5Uxr1de1cwucPtROvjh3MLH1LN0SKA0GwvpU18ydnosSXUnNx1YbiNRzcOVJ6g/M12rhCuKTTUxBJ8fzVybVxL49GgJkDIwC2JO8h2cADW6r9gh/yps3autTqeNlZAc8ZIiyyFitJIIWEVkTvCmrxw6OQ8dDk4SqqUF8F9O09yk8rhtpCnspPFrctviVuPLzxEjkkunnTCG9WqsavHdEvMC4H/fzTXEIbb1/TKBJfC47Ml99zemFUovR6U8dbvPOIvxpUZ/VbFOJQCG65g3kAnLdIUYuqvnIi+gWl4ZUWt+ctuC+BBrsY+e57dnofQPVB7W5XUuvtFdrbjLez+vq31fZlIjwTnLpSeo/sY6yddHIE1aSqUUrDFC5Ts6u87/eMYuAv+UyMRnvzIGa+qVQOfUtK4Ysd6/IwegLxQaGVXdJOOi0oRcCtXakxiO6YxF/U3MQn3iz3LfpuzAqXQOQauWrNSUXKSPpZfc2SrqQWeW3qp2XlgB4B4aTTooSoVDGRfuY9Hp6dfROYm/JnuVXSAUaE8X3h1JaaOWvr0o1J64q4I6lFmQ4VjO8LHLlZMOlkBJWbPNNe68tOCs8mIkHW+5vgLQqSTkvjwrntOSk9M8MqzGLsC7QWovPmDr/0Llsc7mKT0s8Ek040M2WL/fRNKZOkewu/0SzWSYLiwr/1QSr5m6nbUWUZ3K9YbR7EssCc1Iv6deMGyIqh5spJMROda/C3b4U6BYKYXzqdKrrvJLkotVeeWxMTN6KqxO07u1btH6rmlEK097OcPMUiiGIWmpP6XsdMlEZnzp9v6qp6unovsbxaNKe8XKFbcdfoBVE/vZx11uFdP1ZNN1Rvlp4bjSaT3+8UtTW/MmlOmQQK336u70ZB3F2GLjid7NJHh/RVc90/Lf39NpkYdqx/p3Xx/lemk99puu9rA5i/UH25XP55NfQBpwwYMGDAgAEDBgwYMGDAgAEDBgwYMGDA/xf+A+jFCtSMa1q0AAAAAElFTkSuQmCC;" parent="1" vertex="1">
          <mxGeometry x="1260.4" y="770" width="45" height="45" as="geometry" />
        </mxCell>
        <mxCell id="P5fyJ_uZ24H15enQcCNX-39" value="" style="shape=image;verticalLabelPosition=bottom;labelBackgroundColor=default;verticalAlign=top;aspect=fixed;imageAspect=0;image=data:image/png,iVBORw0KGgoAAAANSUhEUgAAAOEAAADhCAMAAAAJbSJIAAAAh1BMVEX///8AAADz8/P5+fmrq6t7e3t4eHj8/Pz29vbt7e3a2tr09PTQ0NDq6urKysq1tbWSkpLg4OCfn59wcHBgYGDk5OTBwcFQUFBBQUEQEBA1NTVGRkalpaW5ubnU1NRZWVmEhISZmZkrKyshISFoaGiLi4sYGBgkJCQ5OTkNDQ1UVFQwMDBxcXG2pZK8AAATZElEQVR4nO1dB5eiPBtNAKUMHQRUelPR///7vhRKKL67O6uj7Oc9Z44zik6uT/L0BAA++OCDDz744IMPPvhgnZBtx0mVV4/iidBhY8kGrF49jqfhCx7wgwC9V4/kWVCgwMsSeti+eiTPAgdtCPOggJtXj+Rp2Bx9iCG8eiDPQ0EIQvHV43geZBcTrF89jKfi9o/LEIAYM/R1TpItXZdfPZpnQIDwAnv8g0pVhbBwMDXDJBSlVw/o0RBa2V31aIMfi39sRfIlnOAfc252+ZQghMarB/VIiCOC6Zk++oLCv3pkjwI/Eh4Aln2ivxZnx1ZfPbqHQGEZEkrq4d+ar+K5p3Pc+/iZKJtyXjloYJGbKg+4s42eYAlC89XD+3tIWNX4urD1G6e6QXsyb/PUWLvOMYhaGSgF5vl0i3YADE/Zrx7jX0Gf2sJjGiOhicBkngtWm4jT9O2InW97bWAh7tTRK+tcjiETTsDat/UvDi85mlasvHAsW1NZnT9+Y2ZmZRiZixfjvrTOJK1ow83APj+fg2tR3PRVueTMAgzDcj/8dYYFmqoJUUBu5UTKTibERN6C12pFKzIjdJpqqmmI0IwUlqHOiWAHrxwKr1IqPByFBKtJyXmIiGnZiwTdsBNVBOENpGXr2STtkuReNuo/gppu3AV6hzRGL3ZWXq+hY3X2cDfM6xeN+Y9gHBfoHW0LcGFzLfZFTC+TNF7s6Pq9Xi2bt3d0tDm/ixPh2VfVobyrBG3+niEXsAFa8+ZqdeLJ1MHWsMgL/N01pl4vnhKH7VLUjfdOdcQsvdywsCOj6KBKIrAoGjmqkMx35HfNwCSLBL5zWpXvnZkrGni74mIJIMuxUEO0jIRc7/bPyEbqlm8dG1NvJa/U9lcfz0wPpkAeyUWUlCijs3KPwuTsNYP9DjQ85jOVFvG88RKUAqRJqYLUVCE0zI3fJmxgca0k0ViHhaDACWBHBGFzNChbF1PkLRem6MHobQLWr2Wm7rA/zoPzisILNDMDAFJ4sZBa4VLM5Iu84IUgYxxUWMbMu9L0JYP9FkqcQpOHmE/xWvMtCgO7vXMduy6h89Pj/D5Q2KRjh/NM/pIsS0gxWa7LlMJWc1qCw+QvouNrRvsdZLhkj11uIhWSd9pw3q2fn6equlUzaxflPz/S7wJxajBNJEW1dW9aAxmQRTm3C1Itg3D/irF+E8jGxSESHAot8lnhCcJk5lULUJHNNVXBkRADA2maYM4Omf9o/gb/opjpmhiCYJQh7WGKSrzkbYrQiQR/VZXhaEKtToJTDSEJ7PX55RbMSgvChYDqbSFOGeIEk1Xc88ti6PpIIcV3Xn5LMJnEM8kiOjcLNAVRMRz24Uby0rCLYMAF6b4vvJ7ghQM49etJStmZiQxP45E+LRMUMsEFFfS+4OpBhiY84E4TWCBZkgA/SmQwLziJ+WrSiATIFDadsUiCClv8c94GwMpytem8ogARYBt+3LdyvAxJm4S8pp1HHdFfbbI0SH98lH8DC06bTPbuxsTGUERmLzuxmoaGViBYUXCBMSV4a5/34m1pajJbnthRuufmxwf5V+gKh7Xqkcx3JzQHprKSlBZ7LVmAUn798UH+FYxOeIWAQ8UtmYrK5kuCOLbSQjZtSthruNtmTcAJmi0OCV2c/aamTkRRY6htT3A6H7FHaq2NIW5E0HAYbOFyBEloiCCzDNiIQHf9cRyBjaPlw5WUnDogF+aIG2cvCbaLWErKRgycMMAmQ16IlNR1OaYAtGX6IiIx8EE4VlyYO0xmewplbZtqRn1BhCsUMvQgxx5jDDtZ8iKKMN46kT8HLl5caE/bCRvHGFTQS+GBi3eDaReRCtKxGvIsz1tTXp8Am0G998DxDCxPwMMFJgn00kIh4w0vzDC2U1i+bKzfgw3NxO5ywCT4jXptacZNn85o9qoIFM8z/OAl4/w+FHiW/LZ7rcBLb4tLhJ6Eg6TIzPr6oI8TyEDXUFC5pkwNgnSCu1DJWiEiXsj0cyYUfWQsNGjBc+tx+6TJVBSlTVsjXQ9cuAUC1y3EFCCyon/FscXBaMxbG0thw4mZ4ezVqvIYgLimSgxox8nxBA0R+WUppqV4oYA3JdK9MwJ1eUqHW10bJnJNXUmjPUPuCWlTtQFZifP8NaCiJTKTzjAXgZjwYH0bMZC7tutbELdIs8RW6JIsVQlwBcOn687CZkKyVZCsTZlixy0d2oDQHGwwLfJ7BvbQ7AqMmYVDfw1kb91/sQQ8FbvOE2MXIK+sgQ3Ou10LqGkqmPYhqqtTNbQaPAix4EFyKmEZXC5zLhy/k9fXKuzhQjDTC+yRbPhV0yt7IXyywfn882P8O/DI5da1gSHWlRmk7SdLSNfm1QDckO+DoYxYA7CrjrA634kEvXVl9jF2cH/yjEGIGxUHUqZ2hwm3uvACe25ewQ0MTZpkBPeKhQl8+77SKVRYReehYIr0i3FAa7PE0e6CsjHWlslAyC/S8XjtGJIoXjXQ+qzQIyk2jYyi9h95nHeFAQ02Y9NOTp1YPqI4rdF8zVfn1gBQXBmbD7dtCHig/UFj48D5oFpbOgpg51TvK8LXCsLGw+tPC2ze2knQtSQmZLp6URc1rghSfRW7nuGC9LefsZh4WMAN3n5gbYcGBuSLN3fdgfeFDXV2Jx7GQafdYLhB2NeGial5SOSrCxIBfznJ9YQiDLy+wiiXjInACfL16ZoQhq1FzP0pUxQuhirsU1Bkxd7+89PeEhBytMFm73WF09yla3OvqPtsIKUIOEu+ov1rLQxkx9s96+2GkYMvAyUjz5HN+fXgrCXYWV8djjCSulY+B83UQ0JdGatzdvpKhmaDer/CM7OQ3uQ7z+ZqpJDWuLkNYX06JkM8LHsgi4JVNfFRuCgsQkHUlejP64X6pzLVpvXEi1EUC66o57sF6c1DKyxst7Q1uNzrhe0kHVfV+C8Qry9hg4N9eQe7XCI8YsdF6YP/dHq5vL6sGyhgw3rg1I/pk1RHj+1S2GFHaHV2X8flp37bcx1vU/SkNDC+nAapbQ0g5qtLu9Hq4bCz2yDqkknhMGfVyA5ODqyszY20nCIN2Uf78Crg4HC02XTkyzirK+tjn7P68hhCJxw2IcpG5Ae4osH4MryGZ/DqcjYOmqfjY6P8HUmmhsByIXJlhtCQj8k3sjYHlS9gCpwRRZhq+IncAHoZjBh5PC7ArawPDB8uqDHTNKhwxOFCvKWtti3VZNPEeDuiD4M17aPBMGEiDsHwsUwg3oXoyCQHsB2lLyxkXKR8fTnwBnqD9sQR4j7EzmkVkUAqYFVLBSXAX1d3TiYHL3xcducteJrlpcR1wzsViqCGJ2EIFH0bXZ+vzmaoJKndUqR5RAXvG95F5zySrRvc95EUj52ceFW72AlCHN52sWKXKlV95GkLcC9ompcWbDSFOznWdpi7g21CbzMcRRKByCFvzv4S4xLCs7+H18FFRZ5QUKxM3YhFrbG7hi7BsT1HsUn7o6OGnKkHzQ09lGE9sOBBArsGUpLHhnqp6OeWMZak50QsSbGuBmkP5hIOclvPjdBqsBxNzRs2fPepGjSD/evK9I0A8x0A8+wwMo/DEW8FN1yeOH0D1UoQwksE+GRCrzvWNJRjG+mcoDeNCnolWMnhUR1CokwaVnooipJT2HjkuAUd+6pMnY22/x3XJEYDU+Sr4TSpjXeBjiUTMxK2xysP6gbwJlmhm68XjvkPoVNLrrNnZaDFh2Yn0jyu+qUIaWqzMuPJ6UpQ+FW0IWrvksOy9oSiNDsUjCibU5IKXhyPT4zWBPQFHP67qSi7Qt95k5YVzoclPsmUKpiGZPjr62XE9jqVmIWcgsP97IaFP+yNMpEoiE91kWiRjG5bCAwXusxJfQv1CzxXa3uZQxuZvZGXZ4wFRh/SXWtGytTP5quuNTKOPp+KXf7gbUSIoLSKpg4Ye9jBDpdrUG2V9ZROTsrWQ5qOfa8UndhOySOxiCxOOVqSgQ6kuUS8U96WPG7eYD66Y/DerviY0XG5MB0zzN2EnJPd1W0UFe9Ekenc9JzjNaDT9Vh5Gp7LXcyZvojHf0BB8gsOG0tAhtDL4AKwfdBvgJTmDqVB/QCeWcWBY0edEp4GWm9x6Dvy4TID2TkTnq5LDKEE9KtKOwFqJLlbG0sZ54VrfdPO3HNTtavxBjc0CyvJSxtXfwqcg+L6KlC5dGHIkM5V5OvkFa6cYoUURHS0mnHr9VNxveajvp3EFiatSscXVs/VI9L/VanK5tLhRAQuTIitPx70HWKbKTvKckfOgj0q+C9Jiz3zlhzRh/hUc5XIDboUQeOW5QG+tmku2sONLpSRbOTQvi2TtAGuLIoc0qQ5InDY0LtJYJVjK7GuqxZVrRaSeUjlmRewMOJYVQ1895AXb8oRcC1YTy2gpv7o7kmw3JLUPyzPEA3eLA24kVtLej5OrEyd57Mes2GavpYh4nhADhleK3IY7O0o7Qr9iAWTETjyPtzW4TlNz8ZlkchdpC8miIAP0ShJB2q89Q2Z081yrjCx1EobJjd56bDp+0iMtyj0aGEOa3LXUk4IfDsWgZxNRtrJ0124DdEyLokpqG8UPWt2jqMO5L7gw6XgMb2rX38Luf2OLVa7sMHUop2mKF5VHk+/JjJFk6mKolbX981DcnGGl1nd3EI9tjRLN8Issw1V07fU8zkdE/8ec78/MPxN4v17EGXPJue9wUuwsT2ldzrFTmeIwgWqk+MnXeGdIsTfgqZG9iY5EDtXHMvURMK0M7Mqg8Fa1Fd/E+q7L3l1299YSDsr1o0s3ZZJcCpO1/MxKZ1taoaeYq2rePM74BHewrx98MEHH3zwwQe/AS578M4DUUjfynHD7foP3XmgBm/VKOaRFMUDD1KQSZYufdwH/hV4o83mPqxYFLfdZM/uhBNyFN+EghF5HaLIMIQwqyocFTRtcWjYmfCg0oLXlwSezXDhdggj0FXC3MPyMXubmcMpns3wVzm+VrEMN/B8UJvMcBDO8/eFKX2O8+yWCK6b+EGfiu468vmuDvOwVFhU/BRDwLcpzdEpF1yrCAZCGb3qcVkV7fRTDLuK7LQPnVS7Bnss7h/MEAjMSn8yDosMcYd3zfy5fTTD+OcYlssMkWxPzJ/Zoxnufo7hdpkhaEYMhUcz5F7PUB1pn3+R4Rj/LwwfWBrifsxafBi2+DD8Y3wYPhALDPVylq74xxju4ewuJP8WQxHODxGgDO/FhxLH3a+f8RzHzSvYL2W4tFnyPkMt2jTX/f7sLvbAqGlzrvf1wS9Nb9REQhm2Mb4RqYq102QEbvH7+CvMGVYL7bv3GKpMmuA8m8TeqF+6Zl9nGbZ97ZfLfr+v63pfPLbphDJMZG1nKbpnhOTmzXc0zZShOr415GkixWmLJpuqYxnOzlB77Ba/LVzALOW0xFCigVdmKd3NkcdbukgUXXqKpUTtlXcYAmB5/XcVuLcHN4AvMpxNxwWG1okZNt1UOuqZJNmDbrAxvpgNVsYMu4zeWdAeX/JfZDhbCMJMtDxdY+3pNCJNgbJvwXM078f7hS6/MmWKKUMsw9NztidQhng/r8h/aZbu/CZDGqT3K9acMhRxGo9pE5X3o/ePGcr44vQhfOaY6dL09xh+EfXQGzRvypAnPUJM84w30iAjhkqBNOnT9pfMGEr7uwxHh7SoSeAMOldfZsi6DhrbK8QyxN9O8bxNmXN7mP4ewzFmMmy3uh3vVAIowxT/ineM5U/sKZ0z9O5aiz9hCLo9++Xiu3qGIln4z+zgmzPk4X72D3/JUJgxHM5dThaWWDdL5eBXn/zXWIgt+LljSAnc9zW8esYQMLtErjMjThk2Qtuz+Mze/D+JgBcZcp7Zb2cfv5INFOFlcugiU2IjeOJGtj9hOK+Q7mx2J/v0xogjv7UZTf2BYdvl/rwW779h6FF6lzLzkiWGKC5inOqF2AKfwMDTr+F5Nzf9PsOYfvspvU/5MkPEcdiJwLqtLUPs1cbDr0/BnzAcBVVUkVStVrrLEL3U73Nnejk4RnCtXXnWKZrfZUj7F3r9MbeHDLy21Mzs3WYsPhDbivCTjOI3GdKpNThlhOHlF/8lH55gGXZB/pMOfbt9j2E5FiFluGfekYxP+yaaaD9Q4Eb/tm1oec4dJZI/YMj4JqcJQ3LUOVM1liYRP/kGiinD/ltol+pTDgrN/4AhY7WnnQbGZB3ik4lYV4z4cMzOUGsstO4+RU+g2HqPv/Ka0uksajMzXUC0o5GE60W2Q9x2IiOGIumhYaRKl14w+Rt9CQ/fHNRlA9P/3OjR2eeq///tXT3riJMkzRh1V5Gp90Wv7z6ViKxgshjt/x3sh92++xI9Ut/IMZPubDa2vtzvyQl9I1p9s6nZ5yd7XoftlTWRnNhNu8xTdYGqMyZe7r8S5A61ku5PSLtuN+nDu686LB6Uv5ukM+kBfKNjd524l8GtFdvssweCfDN+oTWT7LMPWo9YR1/qU37NT8We/V9jtK17lxrno2EfBsS9YOk3Tpaq2y89ZTv+YphlML3HcqeCmW22jzpMS7WYdS3t4jtzQ1UVub9QGkbqpa7rZL1odNMYBwiWZzqJj+Cm3mj+R2bo6aqy4ySe57l+r5dUOZUd6boav+Ne0g8++OCDDz744IMPPvg/xf8AkdYh2P7UYvEAAAAASUVORK5CYII=;" parent="1" vertex="1">
          <mxGeometry x="1310.41" y="568.1999999999999" width="45" height="45" as="geometry" />
        </mxCell>
        <mxCell id="P5fyJ_uZ24H15enQcCNX-40" value="" style="shape=image;verticalLabelPosition=bottom;labelBackgroundColor=default;verticalAlign=top;aspect=fixed;imageAspect=0;image=data:image/png,iVBORw0KGgoAAAANSUhEUgAAAOEAAADhCAMAAAAJbSJIAAAAh1BMVEX///8AAADz8/P5+fmrq6t7e3t4eHj8/Pz29vbt7e3a2tr09PTQ0NDq6urKysq1tbWSkpLg4OCfn59wcHBgYGDk5OTBwcFQUFBBQUEQEBA1NTVGRkalpaW5ubnU1NRZWVmEhISZmZkrKyshISFoaGiLi4sYGBgkJCQ5OTkNDQ1UVFQwMDBxcXG2pZK8AAATZElEQVR4nO1dB5eiPBtNAKUMHQRUelPR///7vhRKKL67O6uj7Oc9Z44zik6uT/L0BAA++OCDDz744IMPPvhgnZBtx0mVV4/iidBhY8kGrF49jqfhCx7wgwC9V4/kWVCgwMsSeti+eiTPAgdtCPOggJtXj+Rp2Bx9iCG8eiDPQ0EIQvHV43geZBcTrF89jKfi9o/LEIAYM/R1TpItXZdfPZpnQIDwAnv8g0pVhbBwMDXDJBSlVw/o0RBa2V31aIMfi39sRfIlnOAfc252+ZQghMarB/VIiCOC6Zk++oLCv3pkjwI/Eh4Aln2ivxZnx1ZfPbqHQGEZEkrq4d+ar+K5p3Pc+/iZKJtyXjloYJGbKg+4s42eYAlC89XD+3tIWNX4urD1G6e6QXsyb/PUWLvOMYhaGSgF5vl0i3YADE/Zrx7jX0Gf2sJjGiOhicBkngtWm4jT9O2InW97bWAh7tTRK+tcjiETTsDat/UvDi85mlasvHAsW1NZnT9+Y2ZmZRiZixfjvrTOJK1ow83APj+fg2tR3PRVueTMAgzDcj/8dYYFmqoJUUBu5UTKTibERN6C12pFKzIjdJpqqmmI0IwUlqHOiWAHrxwKr1IqPByFBKtJyXmIiGnZiwTdsBNVBOENpGXr2STtkuReNuo/gppu3AV6hzRGL3ZWXq+hY3X2cDfM6xeN+Y9gHBfoHW0LcGFzLfZFTC+TNF7s6Pq9Xi2bt3d0tDm/ixPh2VfVobyrBG3+niEXsAFa8+ZqdeLJ1MHWsMgL/N01pl4vnhKH7VLUjfdOdcQsvdywsCOj6KBKIrAoGjmqkMx35HfNwCSLBL5zWpXvnZkrGni74mIJIMuxUEO0jIRc7/bPyEbqlm8dG1NvJa/U9lcfz0wPpkAeyUWUlCijs3KPwuTsNYP9DjQ85jOVFvG88RKUAqRJqYLUVCE0zI3fJmxgca0k0ViHhaDACWBHBGFzNChbF1PkLRem6MHobQLWr2Wm7rA/zoPzisILNDMDAFJ4sZBa4VLM5Iu84IUgYxxUWMbMu9L0JYP9FkqcQpOHmE/xWvMtCgO7vXMduy6h89Pj/D5Q2KRjh/NM/pIsS0gxWa7LlMJWc1qCw+QvouNrRvsdZLhkj11uIhWSd9pw3q2fn6equlUzaxflPz/S7wJxajBNJEW1dW9aAxmQRTm3C1Itg3D/irF+E8jGxSESHAot8lnhCcJk5lULUJHNNVXBkRADA2maYM4Omf9o/gb/opjpmhiCYJQh7WGKSrzkbYrQiQR/VZXhaEKtToJTDSEJ7PX55RbMSgvChYDqbSFOGeIEk1Xc88ti6PpIIcV3Xn5LMJnEM8kiOjcLNAVRMRz24Uby0rCLYMAF6b4vvJ7ghQM49etJStmZiQxP45E+LRMUMsEFFfS+4OpBhiY84E4TWCBZkgA/SmQwLziJ+WrSiATIFDadsUiCClv8c94GwMpytem8ogARYBt+3LdyvAxJm4S8pp1HHdFfbbI0SH98lH8DC06bTPbuxsTGUERmLzuxmoaGViBYUXCBMSV4a5/34m1pajJbnthRuufmxwf5V+gKh7Xqkcx3JzQHprKSlBZ7LVmAUn798UH+FYxOeIWAQ8UtmYrK5kuCOLbSQjZtSthruNtmTcAJmi0OCV2c/aamTkRRY6htT3A6H7FHaq2NIW5E0HAYbOFyBEloiCCzDNiIQHf9cRyBjaPlw5WUnDogF+aIG2cvCbaLWErKRgycMMAmQ16IlNR1OaYAtGX6IiIx8EE4VlyYO0xmewplbZtqRn1BhCsUMvQgxx5jDDtZ8iKKMN46kT8HLl5caE/bCRvHGFTQS+GBi3eDaReRCtKxGvIsz1tTXp8Am0G998DxDCxPwMMFJgn00kIh4w0vzDC2U1i+bKzfgw3NxO5ywCT4jXptacZNn85o9qoIFM8z/OAl4/w+FHiW/LZ7rcBLb4tLhJ6Eg6TIzPr6oI8TyEDXUFC5pkwNgnSCu1DJWiEiXsj0cyYUfWQsNGjBc+tx+6TJVBSlTVsjXQ9cuAUC1y3EFCCyon/FscXBaMxbG0thw4mZ4ezVqvIYgLimSgxox8nxBA0R+WUppqV4oYA3JdK9MwJ1eUqHW10bJnJNXUmjPUPuCWlTtQFZifP8NaCiJTKTzjAXgZjwYH0bMZC7tutbELdIs8RW6JIsVQlwBcOn687CZkKyVZCsTZlixy0d2oDQHGwwLfJ7BvbQ7AqMmYVDfw1kb91/sQQ8FbvOE2MXIK+sgQ3Ou10LqGkqmPYhqqtTNbQaPAix4EFyKmEZXC5zLhy/k9fXKuzhQjDTC+yRbPhV0yt7IXyywfn882P8O/DI5da1gSHWlRmk7SdLSNfm1QDckO+DoYxYA7CrjrA634kEvXVl9jF2cH/yjEGIGxUHUqZ2hwm3uvACe25ewQ0MTZpkBPeKhQl8+77SKVRYReehYIr0i3FAa7PE0e6CsjHWlslAyC/S8XjtGJIoXjXQ+qzQIyk2jYyi9h95nHeFAQ02Y9NOTp1YPqI4rdF8zVfn1gBQXBmbD7dtCHig/UFj48D5oFpbOgpg51TvK8LXCsLGw+tPC2ze2knQtSQmZLp6URc1rghSfRW7nuGC9LefsZh4WMAN3n5gbYcGBuSLN3fdgfeFDXV2Jx7GQafdYLhB2NeGial5SOSrCxIBfznJ9YQiDLy+wiiXjInACfL16ZoQhq1FzP0pUxQuhirsU1Bkxd7+89PeEhBytMFm73WF09yla3OvqPtsIKUIOEu+ov1rLQxkx9s96+2GkYMvAyUjz5HN+fXgrCXYWV8djjCSulY+B83UQ0JdGatzdvpKhmaDer/CM7OQ3uQ7z+ZqpJDWuLkNYX06JkM8LHsgi4JVNfFRuCgsQkHUlejP64X6pzLVpvXEi1EUC66o57sF6c1DKyxst7Q1uNzrhe0kHVfV+C8Qry9hg4N9eQe7XCI8YsdF6YP/dHq5vL6sGyhgw3rg1I/pk1RHj+1S2GFHaHV2X8flp37bcx1vU/SkNDC+nAapbQ0g5qtLu9Hq4bCz2yDqkknhMGfVyA5ODqyszY20nCIN2Uf78Crg4HC02XTkyzirK+tjn7P68hhCJxw2IcpG5Ae4osH4MryGZ/DqcjYOmqfjY6P8HUmmhsByIXJlhtCQj8k3sjYHlS9gCpwRRZhq+IncAHoZjBh5PC7ArawPDB8uqDHTNKhwxOFCvKWtti3VZNPEeDuiD4M17aPBMGEiDsHwsUwg3oXoyCQHsB2lLyxkXKR8fTnwBnqD9sQR4j7EzmkVkUAqYFVLBSXAX1d3TiYHL3xcducteJrlpcR1wzsViqCGJ2EIFH0bXZ+vzmaoJKndUqR5RAXvG95F5zySrRvc95EUj52ceFW72AlCHN52sWKXKlV95GkLcC9ompcWbDSFOznWdpi7g21CbzMcRRKByCFvzv4S4xLCs7+H18FFRZ5QUKxM3YhFrbG7hi7BsT1HsUn7o6OGnKkHzQ09lGE9sOBBArsGUpLHhnqp6OeWMZak50QsSbGuBmkP5hIOclvPjdBqsBxNzRs2fPepGjSD/evK9I0A8x0A8+wwMo/DEW8FN1yeOH0D1UoQwksE+GRCrzvWNJRjG+mcoDeNCnolWMnhUR1CokwaVnooipJT2HjkuAUd+6pMnY22/x3XJEYDU+Sr4TSpjXeBjiUTMxK2xysP6gbwJlmhm68XjvkPoVNLrrNnZaDFh2Yn0jyu+qUIaWqzMuPJ6UpQ+FW0IWrvksOy9oSiNDsUjCibU5IKXhyPT4zWBPQFHP67qSi7Qt95k5YVzoclPsmUKpiGZPjr62XE9jqVmIWcgsP97IaFP+yNMpEoiE91kWiRjG5bCAwXusxJfQv1CzxXa3uZQxuZvZGXZ4wFRh/SXWtGytTP5quuNTKOPp+KXf7gbUSIoLSKpg4Ye9jBDpdrUG2V9ZROTsrWQ5qOfa8UndhOySOxiCxOOVqSgQ6kuUS8U96WPG7eYD66Y/DerviY0XG5MB0zzN2EnJPd1W0UFe9Ekenc9JzjNaDT9Vh5Gp7LXcyZvojHf0BB8gsOG0tAhtDL4AKwfdBvgJTmDqVB/QCeWcWBY0edEp4GWm9x6Dvy4TID2TkTnq5LDKEE9KtKOwFqJLlbG0sZ54VrfdPO3HNTtavxBjc0CyvJSxtXfwqcg+L6KlC5dGHIkM5V5OvkFa6cYoUURHS0mnHr9VNxveajvp3EFiatSscXVs/VI9L/VanK5tLhRAQuTIitPx70HWKbKTvKckfOgj0q+C9Jiz3zlhzRh/hUc5XIDboUQeOW5QG+tmku2sONLpSRbOTQvi2TtAGuLIoc0qQ5InDY0LtJYJVjK7GuqxZVrRaSeUjlmRewMOJYVQ1895AXb8oRcC1YTy2gpv7o7kmw3JLUPyzPEA3eLA24kVtLej5OrEyd57Mes2GavpYh4nhADhleK3IY7O0o7Qr9iAWTETjyPtzW4TlNz8ZlkchdpC8miIAP0ShJB2q89Q2Z081yrjCx1EobJjd56bDp+0iMtyj0aGEOa3LXUk4IfDsWgZxNRtrJ0124DdEyLokpqG8UPWt2jqMO5L7gw6XgMb2rX38Luf2OLVa7sMHUop2mKF5VHk+/JjJFk6mKolbX981DcnGGl1nd3EI9tjRLN8Issw1V07fU8zkdE/8ec78/MPxN4v17EGXPJue9wUuwsT2ldzrFTmeIwgWqk+MnXeGdIsTfgqZG9iY5EDtXHMvURMK0M7Mqg8Fa1Fd/E+q7L3l1299YSDsr1o0s3ZZJcCpO1/MxKZ1taoaeYq2rePM74BHewrx98MEHH3zwwQe/AS578M4DUUjfynHD7foP3XmgBm/VKOaRFMUDD1KQSZYufdwH/hV4o83mPqxYFLfdZM/uhBNyFN+EghF5HaLIMIQwqyocFTRtcWjYmfCg0oLXlwSezXDhdggj0FXC3MPyMXubmcMpns3wVzm+VrEMN/B8UJvMcBDO8/eFKX2O8+yWCK6b+EGfiu468vmuDvOwVFhU/BRDwLcpzdEpF1yrCAZCGb3qcVkV7fRTDLuK7LQPnVS7Bnss7h/MEAjMSn8yDosMcYd3zfy5fTTD+OcYlssMkWxPzJ/Zoxnufo7hdpkhaEYMhUcz5F7PUB1pn3+R4Rj/LwwfWBrifsxafBi2+DD8Y3wYPhALDPVylq74xxju4ewuJP8WQxHODxGgDO/FhxLH3a+f8RzHzSvYL2W4tFnyPkMt2jTX/f7sLvbAqGlzrvf1wS9Nb9REQhm2Mb4RqYq102QEbvH7+CvMGVYL7bv3GKpMmuA8m8TeqF+6Zl9nGbZ97ZfLfr+v63pfPLbphDJMZG1nKbpnhOTmzXc0zZShOr415GkixWmLJpuqYxnOzlB77Ba/LVzALOW0xFCigVdmKd3NkcdbukgUXXqKpUTtlXcYAmB5/XcVuLcHN4AvMpxNxwWG1okZNt1UOuqZJNmDbrAxvpgNVsYMu4zeWdAeX/JfZDhbCMJMtDxdY+3pNCJNgbJvwXM078f7hS6/MmWKKUMsw9NztidQhng/r8h/aZbu/CZDGqT3K9acMhRxGo9pE5X3o/ePGcr44vQhfOaY6dL09xh+EfXQGzRvypAnPUJM84w30iAjhkqBNOnT9pfMGEr7uwxHh7SoSeAMOldfZsi6DhrbK8QyxN9O8bxNmXN7mP4ewzFmMmy3uh3vVAIowxT/ineM5U/sKZ0z9O5aiz9hCLo9++Xiu3qGIln4z+zgmzPk4X72D3/JUJgxHM5dThaWWDdL5eBXn/zXWIgt+LljSAnc9zW8esYQMLtErjMjThk2Qtuz+Mze/D+JgBcZcp7Zb2cfv5INFOFlcugiU2IjeOJGtj9hOK+Q7mx2J/v0xogjv7UZTf2BYdvl/rwW779h6FF6lzLzkiWGKC5inOqF2AKfwMDTr+F5Nzf9PsOYfvspvU/5MkPEcdiJwLqtLUPs1cbDr0/BnzAcBVVUkVStVrrLEL3U73Nnejk4RnCtXXnWKZrfZUj7F3r9MbeHDLy21Mzs3WYsPhDbivCTjOI3GdKpNThlhOHlF/8lH55gGXZB/pMOfbt9j2E5FiFluGfekYxP+yaaaD9Q4Eb/tm1oec4dJZI/YMj4JqcJQ3LUOVM1liYRP/kGiinD/ltol+pTDgrN/4AhY7WnnQbGZB3ik4lYV4z4cMzOUGsstO4+RU+g2HqPv/Ka0uksajMzXUC0o5GE60W2Q9x2IiOGIumhYaRKl14w+Rt9CQ/fHNRlA9P/3OjR2eeq///tXT3riJMkzRh1V5Gp90Wv7z6ViKxgshjt/x3sh92++xI9Ut/IMZPubDa2vtzvyQl9I1p9s6nZ5yd7XoftlTWRnNhNu8xTdYGqMyZe7r8S5A61ku5PSLtuN+nDu686LB6Uv5ukM+kBfKNjd524l8GtFdvssweCfDN+oTWT7LMPWo9YR1/qU37NT8We/V9jtK17lxrno2EfBsS9YOk3Tpaq2y89ZTv+YphlML3HcqeCmW22jzpMS7WYdS3t4jtzQ1UVub9QGkbqpa7rZL1odNMYBwiWZzqJj+Cm3mj+R2bo6aqy4ySe57l+r5dUOZUd6boav+Ne0g8++OCDDz744IMPPvg/xf8AkdYh2P7UYvEAAAAASUVORK5CYII=;" parent="1" vertex="1">
          <mxGeometry x="1309.51" y="665.3" width="45" height="45" as="geometry" />
        </mxCell>
        <mxCell id="P5fyJ_uZ24H15enQcCNX-41" value="" style="shape=image;verticalLabelPosition=bottom;labelBackgroundColor=default;verticalAlign=top;aspect=fixed;imageAspect=0;image=data:image/png,iVBORw0KGgoAAAANSUhEUgAAAOEAAADhCAMAAAAJbSJIAAAAh1BMVEX///8AAADz8/P5+fmrq6t7e3t4eHj8/Pz29vbt7e3a2tr09PTQ0NDq6urKysq1tbWSkpLg4OCfn59wcHBgYGDk5OTBwcFQUFBBQUEQEBA1NTVGRkalpaW5ubnU1NRZWVmEhISZmZkrKyshISFoaGiLi4sYGBgkJCQ5OTkNDQ1UVFQwMDBxcXG2pZK8AAATZElEQVR4nO1dB5eiPBtNAKUMHQRUelPR///7vhRKKL67O6uj7Oc9Z44zik6uT/L0BAA++OCDDz744IMPPvhgnZBtx0mVV4/iidBhY8kGrF49jqfhCx7wgwC9V4/kWVCgwMsSeti+eiTPAgdtCPOggJtXj+Rp2Bx9iCG8eiDPQ0EIQvHV43geZBcTrF89jKfi9o/LEIAYM/R1TpItXZdfPZpnQIDwAnv8g0pVhbBwMDXDJBSlVw/o0RBa2V31aIMfi39sRfIlnOAfc252+ZQghMarB/VIiCOC6Zk++oLCv3pkjwI/Eh4Aln2ivxZnx1ZfPbqHQGEZEkrq4d+ar+K5p3Pc+/iZKJtyXjloYJGbKg+4s42eYAlC89XD+3tIWNX4urD1G6e6QXsyb/PUWLvOMYhaGSgF5vl0i3YADE/Zrx7jX0Gf2sJjGiOhicBkngtWm4jT9O2InW97bWAh7tTRK+tcjiETTsDat/UvDi85mlasvHAsW1NZnT9+Y2ZmZRiZixfjvrTOJK1ow83APj+fg2tR3PRVueTMAgzDcj/8dYYFmqoJUUBu5UTKTibERN6C12pFKzIjdJpqqmmI0IwUlqHOiWAHrxwKr1IqPByFBKtJyXmIiGnZiwTdsBNVBOENpGXr2STtkuReNuo/gppu3AV6hzRGL3ZWXq+hY3X2cDfM6xeN+Y9gHBfoHW0LcGFzLfZFTC+TNF7s6Pq9Xi2bt3d0tDm/ixPh2VfVobyrBG3+niEXsAFa8+ZqdeLJ1MHWsMgL/N01pl4vnhKH7VLUjfdOdcQsvdywsCOj6KBKIrAoGjmqkMx35HfNwCSLBL5zWpXvnZkrGni74mIJIMuxUEO0jIRc7/bPyEbqlm8dG1NvJa/U9lcfz0wPpkAeyUWUlCijs3KPwuTsNYP9DjQ85jOVFvG88RKUAqRJqYLUVCE0zI3fJmxgca0k0ViHhaDACWBHBGFzNChbF1PkLRem6MHobQLWr2Wm7rA/zoPzisILNDMDAFJ4sZBa4VLM5Iu84IUgYxxUWMbMu9L0JYP9FkqcQpOHmE/xWvMtCgO7vXMduy6h89Pj/D5Q2KRjh/NM/pIsS0gxWa7LlMJWc1qCw+QvouNrRvsdZLhkj11uIhWSd9pw3q2fn6equlUzaxflPz/S7wJxajBNJEW1dW9aAxmQRTm3C1Itg3D/irF+E8jGxSESHAot8lnhCcJk5lULUJHNNVXBkRADA2maYM4Omf9o/gb/opjpmhiCYJQh7WGKSrzkbYrQiQR/VZXhaEKtToJTDSEJ7PX55RbMSgvChYDqbSFOGeIEk1Xc88ti6PpIIcV3Xn5LMJnEM8kiOjcLNAVRMRz24Uby0rCLYMAF6b4vvJ7ghQM49etJStmZiQxP45E+LRMUMsEFFfS+4OpBhiY84E4TWCBZkgA/SmQwLziJ+WrSiATIFDadsUiCClv8c94GwMpytem8ogARYBt+3LdyvAxJm4S8pp1HHdFfbbI0SH98lH8DC06bTPbuxsTGUERmLzuxmoaGViBYUXCBMSV4a5/34m1pajJbnthRuufmxwf5V+gKh7Xqkcx3JzQHprKSlBZ7LVmAUn798UH+FYxOeIWAQ8UtmYrK5kuCOLbSQjZtSthruNtmTcAJmi0OCV2c/aamTkRRY6htT3A6H7FHaq2NIW5E0HAYbOFyBEloiCCzDNiIQHf9cRyBjaPlw5WUnDogF+aIG2cvCbaLWErKRgycMMAmQ16IlNR1OaYAtGX6IiIx8EE4VlyYO0xmewplbZtqRn1BhCsUMvQgxx5jDDtZ8iKKMN46kT8HLl5caE/bCRvHGFTQS+GBi3eDaReRCtKxGvIsz1tTXp8Am0G998DxDCxPwMMFJgn00kIh4w0vzDC2U1i+bKzfgw3NxO5ywCT4jXptacZNn85o9qoIFM8z/OAl4/w+FHiW/LZ7rcBLb4tLhJ6Eg6TIzPr6oI8TyEDXUFC5pkwNgnSCu1DJWiEiXsj0cyYUfWQsNGjBc+tx+6TJVBSlTVsjXQ9cuAUC1y3EFCCyon/FscXBaMxbG0thw4mZ4ezVqvIYgLimSgxox8nxBA0R+WUppqV4oYA3JdK9MwJ1eUqHW10bJnJNXUmjPUPuCWlTtQFZifP8NaCiJTKTzjAXgZjwYH0bMZC7tutbELdIs8RW6JIsVQlwBcOn687CZkKyVZCsTZlixy0d2oDQHGwwLfJ7BvbQ7AqMmYVDfw1kb91/sQQ8FbvOE2MXIK+sgQ3Ou10LqGkqmPYhqqtTNbQaPAix4EFyKmEZXC5zLhy/k9fXKuzhQjDTC+yRbPhV0yt7IXyywfn882P8O/DI5da1gSHWlRmk7SdLSNfm1QDckO+DoYxYA7CrjrA634kEvXVl9jF2cH/yjEGIGxUHUqZ2hwm3uvACe25ewQ0MTZpkBPeKhQl8+77SKVRYReehYIr0i3FAa7PE0e6CsjHWlslAyC/S8XjtGJIoXjXQ+qzQIyk2jYyi9h95nHeFAQ02Y9NOTp1YPqI4rdF8zVfn1gBQXBmbD7dtCHig/UFj48D5oFpbOgpg51TvK8LXCsLGw+tPC2ze2knQtSQmZLp6URc1rghSfRW7nuGC9LefsZh4WMAN3n5gbYcGBuSLN3fdgfeFDXV2Jx7GQafdYLhB2NeGial5SOSrCxIBfznJ9YQiDLy+wiiXjInACfL16ZoQhq1FzP0pUxQuhirsU1Bkxd7+89PeEhBytMFm73WF09yla3OvqPtsIKUIOEu+ov1rLQxkx9s96+2GkYMvAyUjz5HN+fXgrCXYWV8djjCSulY+B83UQ0JdGatzdvpKhmaDer/CM7OQ3uQ7z+ZqpJDWuLkNYX06JkM8LHsgi4JVNfFRuCgsQkHUlejP64X6pzLVpvXEi1EUC66o57sF6c1DKyxst7Q1uNzrhe0kHVfV+C8Qry9hg4N9eQe7XCI8YsdF6YP/dHq5vL6sGyhgw3rg1I/pk1RHj+1S2GFHaHV2X8flp37bcx1vU/SkNDC+nAapbQ0g5qtLu9Hq4bCz2yDqkknhMGfVyA5ODqyszY20nCIN2Uf78Crg4HC02XTkyzirK+tjn7P68hhCJxw2IcpG5Ae4osH4MryGZ/DqcjYOmqfjY6P8HUmmhsByIXJlhtCQj8k3sjYHlS9gCpwRRZhq+IncAHoZjBh5PC7ArawPDB8uqDHTNKhwxOFCvKWtti3VZNPEeDuiD4M17aPBMGEiDsHwsUwg3oXoyCQHsB2lLyxkXKR8fTnwBnqD9sQR4j7EzmkVkUAqYFVLBSXAX1d3TiYHL3xcducteJrlpcR1wzsViqCGJ2EIFH0bXZ+vzmaoJKndUqR5RAXvG95F5zySrRvc95EUj52ceFW72AlCHN52sWKXKlV95GkLcC9ompcWbDSFOznWdpi7g21CbzMcRRKByCFvzv4S4xLCs7+H18FFRZ5QUKxM3YhFrbG7hi7BsT1HsUn7o6OGnKkHzQ09lGE9sOBBArsGUpLHhnqp6OeWMZak50QsSbGuBmkP5hIOclvPjdBqsBxNzRs2fPepGjSD/evK9I0A8x0A8+wwMo/DEW8FN1yeOH0D1UoQwksE+GRCrzvWNJRjG+mcoDeNCnolWMnhUR1CokwaVnooipJT2HjkuAUd+6pMnY22/x3XJEYDU+Sr4TSpjXeBjiUTMxK2xysP6gbwJlmhm68XjvkPoVNLrrNnZaDFh2Yn0jyu+qUIaWqzMuPJ6UpQ+FW0IWrvksOy9oSiNDsUjCibU5IKXhyPT4zWBPQFHP67qSi7Qt95k5YVzoclPsmUKpiGZPjr62XE9jqVmIWcgsP97IaFP+yNMpEoiE91kWiRjG5bCAwXusxJfQv1CzxXa3uZQxuZvZGXZ4wFRh/SXWtGytTP5quuNTKOPp+KXf7gbUSIoLSKpg4Ye9jBDpdrUG2V9ZROTsrWQ5qOfa8UndhOySOxiCxOOVqSgQ6kuUS8U96WPG7eYD66Y/DerviY0XG5MB0zzN2EnJPd1W0UFe9Ekenc9JzjNaDT9Vh5Gp7LXcyZvojHf0BB8gsOG0tAhtDL4AKwfdBvgJTmDqVB/QCeWcWBY0edEp4GWm9x6Dvy4TID2TkTnq5LDKEE9KtKOwFqJLlbG0sZ54VrfdPO3HNTtavxBjc0CyvJSxtXfwqcg+L6KlC5dGHIkM5V5OvkFa6cYoUURHS0mnHr9VNxveajvp3EFiatSscXVs/VI9L/VanK5tLhRAQuTIitPx70HWKbKTvKckfOgj0q+C9Jiz3zlhzRh/hUc5XIDboUQeOW5QG+tmku2sONLpSRbOTQvi2TtAGuLIoc0qQ5InDY0LtJYJVjK7GuqxZVrRaSeUjlmRewMOJYVQ1895AXb8oRcC1YTy2gpv7o7kmw3JLUPyzPEA3eLA24kVtLej5OrEyd57Mes2GavpYh4nhADhleK3IY7O0o7Qr9iAWTETjyPtzW4TlNz8ZlkchdpC8miIAP0ShJB2q89Q2Z081yrjCx1EobJjd56bDp+0iMtyj0aGEOa3LXUk4IfDsWgZxNRtrJ0124DdEyLokpqG8UPWt2jqMO5L7gw6XgMb2rX38Luf2OLVa7sMHUop2mKF5VHk+/JjJFk6mKolbX981DcnGGl1nd3EI9tjRLN8Issw1V07fU8zkdE/8ec78/MPxN4v17EGXPJue9wUuwsT2ldzrFTmeIwgWqk+MnXeGdIsTfgqZG9iY5EDtXHMvURMK0M7Mqg8Fa1Fd/E+q7L3l1299YSDsr1o0s3ZZJcCpO1/MxKZ1taoaeYq2rePM74BHewrx98MEHH3zwwQe/AS578M4DUUjfynHD7foP3XmgBm/VKOaRFMUDD1KQSZYufdwH/hV4o83mPqxYFLfdZM/uhBNyFN+EghF5HaLIMIQwqyocFTRtcWjYmfCg0oLXlwSezXDhdggj0FXC3MPyMXubmcMpns3wVzm+VrEMN/B8UJvMcBDO8/eFKX2O8+yWCK6b+EGfiu468vmuDvOwVFhU/BRDwLcpzdEpF1yrCAZCGb3qcVkV7fRTDLuK7LQPnVS7Bnss7h/MEAjMSn8yDosMcYd3zfy5fTTD+OcYlssMkWxPzJ/Zoxnufo7hdpkhaEYMhUcz5F7PUB1pn3+R4Rj/LwwfWBrifsxafBi2+DD8Y3wYPhALDPVylq74xxju4ewuJP8WQxHODxGgDO/FhxLH3a+f8RzHzSvYL2W4tFnyPkMt2jTX/f7sLvbAqGlzrvf1wS9Nb9REQhm2Mb4RqYq102QEbvH7+CvMGVYL7bv3GKpMmuA8m8TeqF+6Zl9nGbZ97ZfLfr+v63pfPLbphDJMZG1nKbpnhOTmzXc0zZShOr415GkixWmLJpuqYxnOzlB77Ba/LVzALOW0xFCigVdmKd3NkcdbukgUXXqKpUTtlXcYAmB5/XcVuLcHN4AvMpxNxwWG1okZNt1UOuqZJNmDbrAxvpgNVsYMu4zeWdAeX/JfZDhbCMJMtDxdY+3pNCJNgbJvwXM078f7hS6/MmWKKUMsw9NztidQhng/r8h/aZbu/CZDGqT3K9acMhRxGo9pE5X3o/ePGcr44vQhfOaY6dL09xh+EfXQGzRvypAnPUJM84w30iAjhkqBNOnT9pfMGEr7uwxHh7SoSeAMOldfZsi6DhrbK8QyxN9O8bxNmXN7mP4ewzFmMmy3uh3vVAIowxT/ineM5U/sKZ0z9O5aiz9hCLo9++Xiu3qGIln4z+zgmzPk4X72D3/JUJgxHM5dThaWWDdL5eBXn/zXWIgt+LljSAnc9zW8esYQMLtErjMjThk2Qtuz+Mze/D+JgBcZcp7Zb2cfv5INFOFlcugiU2IjeOJGtj9hOK+Q7mx2J/v0xogjv7UZTf2BYdvl/rwW779h6FF6lzLzkiWGKC5inOqF2AKfwMDTr+F5Nzf9PsOYfvspvU/5MkPEcdiJwLqtLUPs1cbDr0/BnzAcBVVUkVStVrrLEL3U73Nnejk4RnCtXXnWKZrfZUj7F3r9MbeHDLy21Mzs3WYsPhDbivCTjOI3GdKpNThlhOHlF/8lH55gGXZB/pMOfbt9j2E5FiFluGfekYxP+yaaaD9Q4Eb/tm1oec4dJZI/YMj4JqcJQ3LUOVM1liYRP/kGiinD/ltol+pTDgrN/4AhY7WnnQbGZB3ik4lYV4z4cMzOUGsstO4+RU+g2HqPv/Ka0uksajMzXUC0o5GE60W2Q9x2IiOGIumhYaRKl14w+Rt9CQ/fHNRlA9P/3OjR2eeq///tXT3riJMkzRh1V5Gp90Wv7z6ViKxgshjt/x3sh92++xI9Ut/IMZPubDa2vtzvyQl9I1p9s6nZ5yd7XoftlTWRnNhNu8xTdYGqMyZe7r8S5A61ku5PSLtuN+nDu686LB6Uv5ukM+kBfKNjd524l8GtFdvssweCfDN+oTWT7LMPWo9YR1/qU37NT8We/V9jtK17lxrno2EfBsS9YOk3Tpaq2y89ZTv+YphlML3HcqeCmW22jzpMS7WYdS3t4jtzQ1UVub9QGkbqpa7rZL1odNMYBwiWZzqJj+Cm3mj+R2bo6aqy4ySe57l+r5dUOZUd6boav+Ne0g8++OCDDz744IMPPvg/xf8AkdYh2P7UYvEAAAAASUVORK5CYII=;" parent="1" vertex="1">
          <mxGeometry x="1310.41" y="770" width="45" height="45" as="geometry" />
        </mxCell>
        <mxCell id="P5fyJ_uZ24H15enQcCNX-50" value="HPA" style="text;strokeColor=none;align=center;fillColor=none;html=1;verticalAlign=middle;whiteSpace=wrap;rounded=0;" parent="1" vertex="1">
          <mxGeometry x="1410" y="681.3" width="60" height="30" as="geometry" />
        </mxCell>
        <mxCell id="P5fyJ_uZ24H15enQcCNX-52" value="10.0.0.13" style="text;strokeColor=none;align=center;fillColor=none;html=1;verticalAlign=middle;whiteSpace=wrap;rounded=0;" parent="1" vertex="1">
          <mxGeometry x="1272" y="613.2" width="60" height="30" as="geometry" />
        </mxCell>
        <mxCell id="P5fyJ_uZ24H15enQcCNX-53" value="10.0.0.14" style="text;strokeColor=none;align=center;fillColor=none;html=1;verticalAlign=middle;whiteSpace=wrap;rounded=0;" parent="1" vertex="1">
          <mxGeometry x="1272" y="710.3000000000001" width="60" height="30" as="geometry" />
        </mxCell>
        <mxCell id="P5fyJ_uZ24H15enQcCNX-54" value="10.0.0.15" style="text;strokeColor=none;align=center;fillColor=none;html=1;verticalAlign=middle;whiteSpace=wrap;rounded=0;" parent="1" vertex="1">
          <mxGeometry x="1272.4" y="815.0000000000001" width="60" height="30" as="geometry" />
        </mxCell>
        <mxCell id="P5fyJ_uZ24H15enQcCNX-57" style="rounded=0;orthogonalLoop=1;jettySize=auto;html=1;exitX=0.5;exitY=1;exitDx=0;exitDy=0;entryX=0.5;entryY=0;entryDx=0;entryDy=0;entryPerimeter=0;" parent="1" source="P5fyJ_uZ24H15enQcCNX-23" target="P5fyJ_uZ24H15enQcCNX-8" edge="1">
          <mxGeometry relative="1" as="geometry" />
        </mxCell>
        <mxCell id="P5fyJ_uZ24H15enQcCNX-184" style="edgeStyle=orthogonalEdgeStyle;rounded=0;orthogonalLoop=1;jettySize=auto;html=1;exitX=0;exitY=0.655;exitDx=0;exitDy=0;exitPerimeter=0;dashed=1;" parent="1" source="P5fyJ_uZ24H15enQcCNX-61" edge="1">
          <mxGeometry relative="1" as="geometry">
            <mxPoint x="840" y="1020.0000000000005" as="targetPoint" />
          </mxGeometry>
        </mxCell>
        <mxCell id="P5fyJ_uZ24H15enQcCNX-61" value="" style="rounded=0;whiteSpace=wrap;html=1;" parent="1" vertex="1">
          <mxGeometry x="1082" y="890" width="400" height="200" as="geometry" />
        </mxCell>
        <mxCell id="P5fyJ_uZ24H15enQcCNX-60" value="Router&lt;br&gt;10.0.0.200" style="sketch=0;outlineConnect=0;fontColor=#232F3E;gradientColor=none;fillColor=#C925D1;strokeColor=none;dashed=0;verticalLabelPosition=bottom;verticalAlign=top;align=center;html=1;fontSize=12;fontStyle=0;aspect=fixed;pointerEvents=1;shape=mxgraph.aws4.rds_mysql_instance;shadow=0;" parent="1" vertex="1">
          <mxGeometry x="1110.38" y="966" width="48" height="48" as="geometry" />
        </mxCell>
        <mxCell id="P5fyJ_uZ24H15enQcCNX-62" value="MySQL InnoDB Cluster" style="text;strokeColor=none;align=center;fillColor=none;html=1;verticalAlign=middle;whiteSpace=wrap;rounded=0;" parent="1" vertex="1">
          <mxGeometry x="1145" y="892" width="130" height="30" as="geometry" />
        </mxCell>
        <mxCell id="P5fyJ_uZ24H15enQcCNX-70" style="edgeStyle=orthogonalEdgeStyle;rounded=0;orthogonalLoop=1;jettySize=auto;html=1;" parent="1" source="P5fyJ_uZ24H15enQcCNX-63" target="P5fyJ_uZ24H15enQcCNX-65" edge="1">
          <mxGeometry relative="1" as="geometry">
            <Array as="points">
              <mxPoint x="1352" y="990" />
              <mxPoint x="1352" y="1024" />
            </Array>
          </mxGeometry>
        </mxCell>
        <mxCell id="P5fyJ_uZ24H15enQcCNX-72" style="edgeStyle=orthogonalEdgeStyle;rounded=0;orthogonalLoop=1;jettySize=auto;html=1;" parent="1" source="P5fyJ_uZ24H15enQcCNX-63" target="P5fyJ_uZ24H15enQcCNX-64" edge="1">
          <mxGeometry relative="1" as="geometry">
            <Array as="points">
              <mxPoint x="1352" y="990" />
              <mxPoint x="1352" y="934" />
            </Array>
          </mxGeometry>
        </mxCell>
        <mxCell id="P5fyJ_uZ24H15enQcCNX-63" value="Primary R/W&lt;br&gt;10.0.0.201" style="sketch=0;outlineConnect=0;fontColor=#232F3E;gradientColor=none;fillColor=#C925D1;strokeColor=none;dashed=0;verticalLabelPosition=bottom;verticalAlign=top;align=center;html=1;fontSize=12;fontStyle=0;aspect=fixed;pointerEvents=1;shape=mxgraph.aws4.rds_mysql_instance;shadow=0;" parent="1" vertex="1">
          <mxGeometry x="1256.5" y="966" width="48" height="48" as="geometry" />
        </mxCell>
        <mxCell id="P5fyJ_uZ24H15enQcCNX-64" value="Secondary R/O&lt;br&gt;10.0.0.202" style="sketch=0;outlineConnect=0;fontColor=#232F3E;gradientColor=none;fillColor=#C925D1;strokeColor=none;dashed=0;verticalLabelPosition=bottom;verticalAlign=top;align=center;html=1;fontSize=12;fontStyle=0;aspect=fixed;pointerEvents=1;shape=mxgraph.aws4.rds_mysql_instance;shadow=0;" parent="1" vertex="1">
          <mxGeometry x="1397" y="910" width="48" height="48" as="geometry" />
        </mxCell>
        <mxCell id="P5fyJ_uZ24H15enQcCNX-65" value="Secondary R/O&lt;br&gt;10.0.0.203" style="sketch=0;outlineConnect=0;fontColor=#232F3E;gradientColor=none;fillColor=#C925D1;strokeColor=none;dashed=0;verticalLabelPosition=bottom;verticalAlign=top;align=center;html=1;fontSize=12;fontStyle=0;aspect=fixed;pointerEvents=1;shape=mxgraph.aws4.rds_mysql_instance;shadow=0;" parent="1" vertex="1">
          <mxGeometry x="1397" y="1000" width="48" height="48" as="geometry" />
        </mxCell>
        <mxCell id="P5fyJ_uZ24H15enQcCNX-67" value="" style="endArrow=classic;startArrow=classic;html=1;rounded=0;" parent="1" target="P5fyJ_uZ24H15enQcCNX-63" edge="1">
          <mxGeometry width="50" height="50" relative="1" as="geometry">
            <mxPoint x="1158.38" y="990" as="sourcePoint" />
            <mxPoint x="1208.38" y="940" as="targetPoint" />
          </mxGeometry>
        </mxCell>
        <mxCell id="P5fyJ_uZ24H15enQcCNX-81" value="Port Forwading" style="text;strokeColor=none;align=center;fillColor=none;html=1;verticalAlign=middle;whiteSpace=wrap;rounded=0;" parent="1" vertex="1">
          <mxGeometry x="1357" y="360" width="90" height="30" as="geometry" />
        </mxCell>
        <mxCell id="P5fyJ_uZ24H15enQcCNX-83" value="AWS Cloud" style="points=[[0,0],[0.25,0],[0.5,0],[0.75,0],[1,0],[1,0.25],[1,0.5],[1,0.75],[1,1],[0.75,1],[0.5,1],[0.25,1],[0,1],[0,0.75],[0,0.5],[0,0.25]];outlineConnect=0;gradientColor=none;container=1;pointerEvents=0;collapsible=0;recursiveResize=0;shape=mxgraph.aws4.group;grIcon=mxgraph.aws4.group_aws_cloud_alt;strokeColor=#232F3E;fillColor=default;verticalAlign=top;align=left;spacingLeft=30;dashed=0;labelPosition=center;verticalLabelPosition=middle;html=1;whiteSpace=wrap;" parent="1" vertex="1">
          <mxGeometry x="-540" y="-11" width="1070" height="1180" as="geometry" />
        </mxCell>
        <mxCell id="P5fyJ_uZ24H15enQcCNX-84" value="Region" style="points=[[0,0],[0.25,0],[0.5,0],[0.75,0],[1,0],[1,0.25],[1,0.5],[1,0.75],[1,1],[0.75,1],[0.5,1],[0.25,1],[0,1],[0,0.75],[0,0.5],[0,0.25]];outlineConnect=0;gradientColor=none;html=1;whiteSpace=wrap;fontSize=12;fontStyle=0;container=1;pointerEvents=0;collapsible=0;recursiveResize=0;shape=mxgraph.aws4.group;grIcon=mxgraph.aws4.group_region;strokeColor=#00A4A6;fillColor=default;verticalAlign=top;align=left;spacingLeft=30;fontColor=#147EBA;dashed=1;" parent="P5fyJ_uZ24H15enQcCNX-83" vertex="1">
          <mxGeometry x="40" y="155" width="1000" height="985" as="geometry" />
        </mxCell>
        <mxCell id="P5fyJ_uZ24H15enQcCNX-85" value="VPC" style="points=[[0,0],[0.25,0],[0.5,0],[0.75,0],[1,0],[1,0.25],[1,0.5],[1,0.75],[1,1],[0.75,1],[0.5,1],[0.25,1],[0,1],[0,0.75],[0,0.5],[0,0.25]];outlineConnect=0;gradientColor=none;html=1;whiteSpace=wrap;fontSize=12;fontStyle=0;container=1;pointerEvents=0;collapsible=0;recursiveResize=0;shape=mxgraph.aws4.group;grIcon=mxgraph.aws4.group_vpc2;strokeColor=#8C4FFF;fillColor=default;verticalAlign=top;align=left;spacingLeft=30;fontColor=#AAB7B8;dashed=0;" parent="P5fyJ_uZ24H15enQcCNX-84" vertex="1">
          <mxGeometry x="20" y="55" width="930" height="905" as="geometry" />
        </mxCell>
        <mxCell id="P5fyJ_uZ24H15enQcCNX-86" value="Private subnet" style="points=[[0,0],[0.25,0],[0.5,0],[0.75,0],[1,0],[1,0.25],[1,0.5],[1,0.75],[1,1],[0.75,1],[0.5,1],[0.25,1],[0,1],[0,0.75],[0,0.5],[0,0.25]];outlineConnect=0;gradientColor=none;html=1;whiteSpace=wrap;fontSize=12;fontStyle=0;container=1;pointerEvents=0;collapsible=0;recursiveResize=0;shape=mxgraph.aws4.group;grIcon=mxgraph.aws4.group_security_group;grStroke=0;strokeColor=#00A4A6;fillColor=#E6F6F7;verticalAlign=top;align=left;spacingLeft=30;fontColor=#147EBA;dashed=0;" parent="P5fyJ_uZ24H15enQcCNX-85" vertex="1">
          <mxGeometry x="536.75" y="304" width="306.5" height="366" as="geometry" />
        </mxCell>
        <mxCell id="P5fyJ_uZ24H15enQcCNX-87" value="Availability Zone" style="fillColor=default;strokeColor=#147EBA;dashed=1;verticalAlign=top;fontStyle=0;fontColor=#147EBA;whiteSpace=wrap;html=1;" parent="P5fyJ_uZ24H15enQcCNX-85" vertex="1">
          <mxGeometry x="26.75" y="150" width="356.5" height="720" as="geometry" />
        </mxCell>
        <mxCell id="P5fyJ_uZ24H15enQcCNX-88" value="Public subnet" style="points=[[0,0],[0.25,0],[0.5,0],[0.75,0],[1,0],[1,0.25],[1,0.5],[1,0.75],[1,1],[0.75,1],[0.5,1],[0.25,1],[0,1],[0,0.75],[0,0.5],[0,0.25]];outlineConnect=0;gradientColor=none;html=1;whiteSpace=wrap;fontSize=12;fontStyle=0;container=1;pointerEvents=0;collapsible=0;recursiveResize=0;shape=mxgraph.aws4.group;grIcon=mxgraph.aws4.group_security_group;grStroke=0;strokeColor=#7AA116;fillColor=#F2F6E8;verticalAlign=top;align=left;spacingLeft=30;fontColor=#248814;dashed=0;" parent="P5fyJ_uZ24H15enQcCNX-85" vertex="1">
          <mxGeometry x="85.75" y="180" width="276" height="110" as="geometry" />
        </mxCell>
        <mxCell id="P5fyJ_uZ24H15enQcCNX-89" value="Private subnet" style="points=[[0,0],[0.25,0],[0.5,0],[0.75,0],[1,0],[1,0.25],[1,0.5],[1,0.75],[1,1],[0.75,1],[0.5,1],[0.25,1],[0,1],[0,0.75],[0,0.5],[0,0.25]];outlineConnect=0;gradientColor=none;html=1;whiteSpace=wrap;fontSize=12;fontStyle=0;container=1;pointerEvents=0;collapsible=0;recursiveResize=0;shape=mxgraph.aws4.group;grIcon=mxgraph.aws4.group_security_group;grStroke=0;strokeColor=#00A4A6;fillColor=#E6F6F7;verticalAlign=top;align=left;spacingLeft=30;fontColor=#147EBA;dashed=0;" parent="P5fyJ_uZ24H15enQcCNX-85" vertex="1">
          <mxGeometry x="83.25" y="304" width="276.75" height="366" as="geometry" />
        </mxCell>
        <mxCell id="P5fyJ_uZ24H15enQcCNX-90" value="EKS cluster" style="fillColor=none;strokeColor=#DD3522;verticalAlign=middle;fontStyle=0;fontColor=#DD3522;whiteSpace=wrap;html=1;labelPosition=left;verticalLabelPosition=middle;align=right;horizontal=1;" parent="P5fyJ_uZ24H15enQcCNX-89" vertex="1">
          <mxGeometry x="-16.5" y="38" width="796.5" height="252" as="geometry" />
        </mxCell>
        <mxCell id="P5fyJ_uZ24H15enQcCNX-91" value="" style="rounded=0;whiteSpace=wrap;html=1;fillColor=none;strokeColor=#990099;" parent="P5fyJ_uZ24H15enQcCNX-89" vertex="1">
          <mxGeometry x="56.75" y="140.5" width="200" height="120" as="geometry" />
        </mxCell>
        <mxCell id="P5fyJ_uZ24H15enQcCNX-92" value="" style="rounded=0;whiteSpace=wrap;html=1;strokeColor=#3399FF;fillColor=none;" parent="P5fyJ_uZ24H15enQcCNX-89" vertex="1">
          <mxGeometry x="185" y="191" width="58.5" height="60.5" as="geometry" />
        </mxCell>
        <mxCell id="P5fyJ_uZ24H15enQcCNX-93" value="" style="sketch=0;html=1;dashed=0;whitespace=wrap;fillColor=#2875E2;strokeColor=#ffffff;points=[[0.005,0.63,0],[0.1,0.2,0],[0.9,0.2,0],[0.5,0,0],[0.995,0.63,0],[0.72,0.99,0],[0.5,1,0],[0.28,0.99,0]];verticalLabelPosition=middle;align=left;verticalAlign=middle;shape=mxgraph.kubernetes.icon;prIcon=pod;labelPosition=right;" parent="P5fyJ_uZ24H15enQcCNX-89" vertex="1">
          <mxGeometry x="185" y="173" width="28.5" height="31" as="geometry" />
        </mxCell>
        <mxCell id="P5fyJ_uZ24H15enQcCNX-94" value="Ingress" style="sketch=0;points=[[0,0,0],[0.25,0,0],[0.5,0,0],[0.75,0,0],[1,0,0],[0,1,0],[0.25,1,0],[0.5,1,0],[0.75,1,0],[1,1,0],[0,0.25,0],[0,0.5,0],[0,0.75,0],[1,0.25,0],[1,0.5,0],[1,0.75,0]];outlineConnect=0;fontColor=#232F3E;fillColor=#8C4FFF;strokeColor=#ffffff;dashed=0;verticalLabelPosition=bottom;verticalAlign=top;align=center;html=1;fontSize=12;fontStyle=0;aspect=fixed;shape=mxgraph.aws4.resourceIcon;resIcon=mxgraph.aws4.elastic_load_balancing;" parent="P5fyJ_uZ24H15enQcCNX-89" vertex="1">
          <mxGeometry x="342.5" y="23" width="50" height="50" as="geometry" />
        </mxCell>
        <mxCell id="P5fyJ_uZ24H15enQcCNX-95" style="edgeStyle=orthogonalEdgeStyle;rounded=0;orthogonalLoop=1;jettySize=auto;html=1;exitX=0;exitY=0.5;exitDx=0;exitDy=0;exitPerimeter=0;" parent="P5fyJ_uZ24H15enQcCNX-89" source="P5fyJ_uZ24H15enQcCNX-94" target="P5fyJ_uZ24H15enQcCNX-91" edge="1">
          <mxGeometry relative="1" as="geometry" />
        </mxCell>
        <mxCell id="P5fyJ_uZ24H15enQcCNX-96" value="bastion" style="sketch=0;points=[[0,0,0],[0.25,0,0],[0.5,0,0],[0.75,0,0],[1,0,0],[0,1,0],[0.25,1,0],[0.5,1,0],[0.75,1,0],[1,1,0],[0,0.25,0],[0,0.5,0],[0,0.75,0],[1,0.25,0],[1,0.5,0],[1,0.75,0]];outlineConnect=0;fontColor=#232F3E;fillColor=#ED7100;strokeColor=#ffffff;dashed=0;verticalLabelPosition=bottom;verticalAlign=top;align=center;html=1;fontSize=12;fontStyle=0;aspect=fixed;shape=mxgraph.aws4.resourceIcon;resIcon=mxgraph.aws4.ec2;" parent="P5fyJ_uZ24H15enQcCNX-85" vertex="1">
          <mxGeometry x="234.25" y="213" width="44" height="44" as="geometry" />
        </mxCell>
        <mxCell id="P5fyJ_uZ24H15enQcCNX-97" value="Private subnet" style="points=[[0,0],[0.25,0],[0.5,0],[0.75,0],[1,0],[1,0.25],[1,0.5],[1,0.75],[1,1],[0.75,1],[0.5,1],[0.25,1],[0,1],[0,0.75],[0,0.5],[0,0.25]];outlineConnect=0;gradientColor=none;html=1;whiteSpace=wrap;fontSize=12;fontStyle=0;container=1;pointerEvents=0;collapsible=0;recursiveResize=0;shape=mxgraph.aws4.group;grIcon=mxgraph.aws4.group_security_group;grStroke=0;strokeColor=#00A4A6;fillColor=#E6F6F7;verticalAlign=top;align=left;spacingLeft=30;fontColor=#147EBA;dashed=0;" parent="P5fyJ_uZ24H15enQcCNX-85" vertex="1">
          <mxGeometry x="83.25" y="710" width="280" height="150" as="geometry" />
        </mxCell>
        <mxCell id="P5fyJ_uZ24H15enQcCNX-98" value="NAT" style="sketch=0;outlineConnect=0;fontColor=#232F3E;gradientColor=none;fillColor=#8C4FFF;strokeColor=none;dashed=0;verticalLabelPosition=bottom;verticalAlign=top;align=center;html=1;fontSize=12;fontStyle=0;aspect=fixed;pointerEvents=1;shape=mxgraph.aws4.nat_gateway;" parent="P5fyJ_uZ24H15enQcCNX-85" vertex="1">
          <mxGeometry x="134.25" y="213" width="47" height="47" as="geometry" />
        </mxCell>
        <mxCell id="P5fyJ_uZ24H15enQcCNX-99" value="Availability Zone" style="fillColor=none;strokeColor=#147EBA;dashed=1;verticalAlign=top;fontStyle=0;fontColor=#147EBA;whiteSpace=wrap;html=1;" parent="P5fyJ_uZ24H15enQcCNX-85" vertex="1">
          <mxGeometry x="516.75" y="150" width="343.25" height="720" as="geometry" />
        </mxCell>
        <mxCell id="P5fyJ_uZ24H15enQcCNX-100" value="" style="sketch=0;points=[[0,0,0],[0.25,0,0],[0.5,0,0],[0.75,0,0],[1,0,0],[0,1,0],[0.25,1,0],[0.5,1,0],[0.75,1,0],[1,1,0],[0,0.25,0],[0,0.5,0],[0,0.75,0],[1,0.25,0],[1,0.5,0],[1,0.75,0]];outlineConnect=0;fontColor=#232F3E;fillColor=#ED7100;strokeColor=#ffffff;dashed=0;verticalLabelPosition=bottom;verticalAlign=top;align=center;html=1;fontSize=12;fontStyle=0;aspect=fixed;shape=mxgraph.aws4.resourceIcon;resIcon=mxgraph.aws4.eks;" parent="P5fyJ_uZ24H15enQcCNX-85" vertex="1">
          <mxGeometry x="66.75" y="340" width="40" height="40" as="geometry" />
        </mxCell>
        <mxCell id="P5fyJ_uZ24H15enQcCNX-101" value="Public subnet" style="points=[[0,0],[0.25,0],[0.5,0],[0.75,0],[1,0],[1,0.25],[1,0.5],[1,0.75],[1,1],[0.75,1],[0.5,1],[0.25,1],[0,1],[0,0.75],[0,0.5],[0,0.25]];outlineConnect=0;gradientColor=none;html=1;whiteSpace=wrap;fontSize=12;fontStyle=0;container=1;pointerEvents=0;collapsible=0;recursiveResize=0;shape=mxgraph.aws4.group;grIcon=mxgraph.aws4.group_security_group;grStroke=0;strokeColor=#7AA116;fillColor=#F2F6E8;verticalAlign=top;align=left;spacingLeft=30;fontColor=#248814;dashed=0;" parent="P5fyJ_uZ24H15enQcCNX-85" vertex="1">
          <mxGeometry x="536.75" y="180" width="310" height="110" as="geometry" />
        </mxCell>
        <mxCell id="P5fyJ_uZ24H15enQcCNX-102" value="Private subnet" style="points=[[0,0],[0.25,0],[0.5,0],[0.75,0],[1,0],[1,0.25],[1,0.5],[1,0.75],[1,1],[0.75,1],[0.5,1],[0.25,1],[0,1],[0,0.75],[0,0.5],[0,0.25]];outlineConnect=0;gradientColor=none;html=1;whiteSpace=wrap;fontSize=12;fontStyle=0;container=1;pointerEvents=0;collapsible=0;recursiveResize=0;shape=mxgraph.aws4.group;grIcon=mxgraph.aws4.group_security_group;grStroke=0;strokeColor=#00A4A6;fillColor=#E6F6F7;verticalAlign=top;align=left;spacingLeft=30;fontColor=#147EBA;dashed=0;" parent="P5fyJ_uZ24H15enQcCNX-85" vertex="1">
          <mxGeometry x="536.75" y="710" width="306.5" height="150" as="geometry" />
        </mxCell>
        <mxCell id="P5fyJ_uZ24H15enQcCNX-103" value="Aurora DB&lt;br&gt;for R/W" style="sketch=0;points=[[0,0,0],[0.25,0,0],[0.5,0,0],[0.75,0,0],[1,0,0],[0,1,0],[0.25,1,0],[0.5,1,0],[0.75,1,0],[1,1,0],[0,0.25,0],[0,0.5,0],[0,0.75,0],[1,0.25,0],[1,0.5,0],[1,0.75,0]];outlineConnect=0;fontColor=#232F3E;fillColor=#C925D1;strokeColor=#ffffff;dashed=0;verticalLabelPosition=bottom;verticalAlign=top;align=center;html=1;fontSize=12;fontStyle=0;aspect=fixed;shape=mxgraph.aws4.resourceIcon;resIcon=mxgraph.aws4.aurora;" parent="P5fyJ_uZ24H15enQcCNX-102" vertex="1">
          <mxGeometry x="127.5" y="37.879999999999995" width="66.25" height="66.25" as="geometry" />
        </mxCell>
        <mxCell id="P5fyJ_uZ24H15enQcCNX-104" value="NAT" style="sketch=0;outlineConnect=0;fontColor=#232F3E;gradientColor=none;fillColor=#8C4FFF;strokeColor=none;dashed=0;verticalLabelPosition=bottom;verticalAlign=top;align=center;html=1;fontSize=12;fontStyle=0;aspect=fixed;pointerEvents=1;shape=mxgraph.aws4.nat_gateway;" parent="P5fyJ_uZ24H15enQcCNX-85" vertex="1">
          <mxGeometry x="564.25" y="213" width="47" height="47" as="geometry" />
        </mxCell>
        <mxCell id="P5fyJ_uZ24H15enQcCNX-105" value="Auto Scaling group" style="points=[[0,0],[0.25,0],[0.5,0],[0.75,0],[1,0],[1,0.25],[1,0.5],[1,0.75],[1,1],[0.75,1],[0.5,1],[0.25,1],[0,1],[0,0.75],[0,0.5],[0,0.25]];outlineConnect=0;gradientColor=none;html=1;whiteSpace=wrap;fontSize=12;fontStyle=0;container=1;pointerEvents=0;collapsible=0;recursiveResize=0;shape=mxgraph.aws4.groupCenter;grIcon=mxgraph.aws4.group_auto_scaling_group;grStroke=1;strokeColor=#D86613;fillColor=none;verticalAlign=top;align=center;fontColor=#D86613;dashed=1;spacingTop=25;" parent="P5fyJ_uZ24H15enQcCNX-85" vertex="1">
          <mxGeometry x="116.75" y="399.5" width="670" height="175" as="geometry" />
        </mxCell>
        <mxCell id="P5fyJ_uZ24H15enQcCNX-106" value="&lt;font style=&quot;font-size: 10px;&quot;&gt;Ingress&lt;br&gt;Controller&lt;/font&gt;" style="sketch=0;outlineConnect=0;fontColor=#232F3E;gradientColor=none;fillColor=#ED7100;strokeColor=none;dashed=0;verticalLabelPosition=bottom;verticalAlign=top;align=center;html=1;fontSize=12;fontStyle=0;aspect=fixed;pointerEvents=1;shape=mxgraph.aws4.container_1;" parent="P5fyJ_uZ24H15enQcCNX-105" vertex="1">
          <mxGeometry x="161.50000000000003" y="98.13" width="38.32" height="24.75" as="geometry" />
        </mxCell>
        <mxCell id="P5fyJ_uZ24H15enQcCNX-107" value="Aurora DB&lt;br&gt;for R/O" style="sketch=0;points=[[0,0,0],[0.25,0,0],[0.5,0,0],[0.75,0,0],[1,0,0],[0,1,0],[0.25,1,0],[0.5,1,0],[0.75,1,0],[1,1,0],[0,0.25,0],[0,0.5,0],[0,0.75,0],[1,0.25,0],[1,0.5,0],[1,0.75,0]];outlineConnect=0;fontColor=#232F3E;fillColor=#C925D1;strokeColor=#ffffff;dashed=0;verticalLabelPosition=bottom;verticalAlign=top;align=center;html=1;fontSize=12;fontStyle=0;aspect=fixed;shape=mxgraph.aws4.resourceIcon;resIcon=mxgraph.aws4.aurora;" parent="P5fyJ_uZ24H15enQcCNX-85" vertex="1">
          <mxGeometry x="186.88" y="747.88" width="66.25" height="66.25" as="geometry" />
        </mxCell>
        <mxCell id="P5fyJ_uZ24H15enQcCNX-108" value="" style="endArrow=none;dashed=1;html=1;rounded=0;exitX=1;exitY=0.5;exitDx=0;exitDy=0;exitPerimeter=0;entryX=0;entryY=0.5;entryDx=0;entryDy=0;entryPerimeter=0;" parent="P5fyJ_uZ24H15enQcCNX-85" source="P5fyJ_uZ24H15enQcCNX-107" target="P5fyJ_uZ24H15enQcCNX-103" edge="1">
          <mxGeometry width="50" height="50" relative="1" as="geometry">
            <mxPoint x="466.75" y="570" as="sourcePoint" />
            <mxPoint x="516.75" y="520" as="targetPoint" />
          </mxGeometry>
        </mxCell>
        <mxCell id="P5fyJ_uZ24H15enQcCNX-109" value="Node" style="sketch=0;html=1;dashed=0;whitespace=wrap;fillColor=#2875E2;strokeColor=#ffffff;points=[[0.005,0.63,0],[0.1,0.2,0],[0.9,0.2,0],[0.5,0,0],[0.995,0.63,0],[0.72,0.99,0],[0.5,1,0],[0.28,0.99,0]];verticalLabelPosition=middle;align=left;verticalAlign=middle;shape=mxgraph.kubernetes.icon;prIcon=node;labelPosition=right;" parent="P5fyJ_uZ24H15enQcCNX-85" vertex="1">
          <mxGeometry x="123.25" y="418.5" width="51" height="38" as="geometry" />
        </mxCell>
        <mxCell id="P5fyJ_uZ24H15enQcCNX-110" value="HPA" style="edgeStyle=orthogonalEdgeStyle;html=1;endArrow=none;elbow=vertical;startArrow=block;startFill=1;strokeColor=#545B64;rounded=0;entryX=0.5;entryY=0;entryDx=0;entryDy=0;entryPerimeter=0;exitX=0.5;exitY=0;exitDx=0;exitDy=0;exitPerimeter=0;" parent="P5fyJ_uZ24H15enQcCNX-85" source="P5fyJ_uZ24H15enQcCNX-113" edge="1">
          <mxGeometry width="100" relative="1" as="geometry">
            <mxPoint x="243.77" y="478.5" as="sourcePoint" />
            <mxPoint x="166.77" y="478.5" as="targetPoint" />
            <Array as="points">
              <mxPoint x="223.75" y="466.5" />
              <mxPoint x="166.75" y="466.5" />
            </Array>
          </mxGeometry>
        </mxCell>
        <mxCell id="P5fyJ_uZ24H15enQcCNX-111" value="" style="sketch=0;outlineConnect=0;fontColor=#232F3E;gradientColor=none;fillColor=#ED7100;strokeColor=none;dashed=0;verticalLabelPosition=bottom;verticalAlign=top;align=center;html=1;fontSize=12;fontStyle=0;aspect=fixed;pointerEvents=1;shape=mxgraph.aws4.container_1;" parent="P5fyJ_uZ24H15enQcCNX-85" vertex="1">
          <mxGeometry x="219.34000000000003" y="512.37" width="38.32" height="24.75" as="geometry" />
        </mxCell>
        <mxCell id="P5fyJ_uZ24H15enQcCNX-112" value="Gunicorn" style="rounded=0;whiteSpace=wrap;html=1;strokeColor=#3399FF;fillColor=none;" parent="P5fyJ_uZ24H15enQcCNX-85" vertex="1">
          <mxGeometry x="209.25" y="494.5" width="58.5" height="60.5" as="geometry" />
        </mxCell>
        <mxCell id="P5fyJ_uZ24H15enQcCNX-113" value="" style="sketch=0;html=1;dashed=0;whitespace=wrap;fillColor=#2875E2;strokeColor=#ffffff;points=[[0.005,0.63,0],[0.1,0.2,0],[0.9,0.2,0],[0.5,0,0],[0.995,0.63,0],[0.72,0.99,0],[0.5,1,0],[0.28,0.99,0]];verticalLabelPosition=middle;align=left;verticalAlign=middle;shape=mxgraph.kubernetes.icon;prIcon=pod;labelPosition=right;" parent="P5fyJ_uZ24H15enQcCNX-85" vertex="1">
          <mxGeometry x="209.25" y="477" width="28.5" height="31" as="geometry" />
        </mxCell>
        <mxCell id="P5fyJ_uZ24H15enQcCNX-114" value="Container" style="sketch=0;outlineConnect=0;fontColor=#232F3E;gradientColor=none;fillColor=#ED7100;strokeColor=none;dashed=0;verticalLabelPosition=bottom;verticalAlign=top;align=center;html=1;fontSize=12;fontStyle=0;aspect=fixed;pointerEvents=1;shape=mxgraph.aws4.container_1;" parent="P5fyJ_uZ24H15enQcCNX-85" vertex="1">
          <mxGeometry x="160.84000000000003" y="512.37" width="38.32" height="24.75" as="geometry" />
        </mxCell>
        <mxCell id="P5fyJ_uZ24H15enQcCNX-115" value="Nginx" style="rounded=0;whiteSpace=wrap;html=1;strokeColor=#3399FF;fillColor=none;" parent="P5fyJ_uZ24H15enQcCNX-85" vertex="1">
          <mxGeometry x="150.75" y="495.5" width="58.5" height="60.5" as="geometry" />
        </mxCell>
        <mxCell id="P5fyJ_uZ24H15enQcCNX-116" value="Pod" style="sketch=0;html=1;dashed=0;whitespace=wrap;fillColor=#2875E2;strokeColor=#ffffff;points=[[0.005,0.63,0],[0.1,0.2,0],[0.9,0.2,0],[0.5,0,0],[0.995,0.63,0],[0.72,0.99,0],[0.5,1,0],[0.28,0.99,0]];verticalLabelPosition=middle;align=left;verticalAlign=middle;shape=mxgraph.kubernetes.icon;prIcon=pod;labelPosition=right;" parent="P5fyJ_uZ24H15enQcCNX-85" vertex="1">
          <mxGeometry x="150.75" y="477" width="28.5" height="31" as="geometry" />
        </mxCell>
        <mxCell id="P5fyJ_uZ24H15enQcCNX-117" value="" style="sketch=0;outlineConnect=0;fontColor=#232F3E;gradientColor=none;fillColor=#ED7100;strokeColor=none;dashed=0;verticalLabelPosition=bottom;verticalAlign=top;align=center;html=1;fontSize=12;fontStyle=0;aspect=fixed;pointerEvents=1;shape=mxgraph.aws4.container_1;" parent="P5fyJ_uZ24H15enQcCNX-85" vertex="1">
          <mxGeometry x="708.34" y="512.12" width="38.32" height="24.75" as="geometry" />
        </mxCell>
        <mxCell id="P5fyJ_uZ24H15enQcCNX-118" value="" style="rounded=0;whiteSpace=wrap;html=1;strokeColor=#3399FF;fillColor=none;" parent="P5fyJ_uZ24H15enQcCNX-85" vertex="1">
          <mxGeometry x="698.25" y="494.25" width="58.5" height="60.5" as="geometry" />
        </mxCell>
        <mxCell id="P5fyJ_uZ24H15enQcCNX-119" value="" style="sketch=0;html=1;dashed=0;whitespace=wrap;fillColor=#2875E2;strokeColor=#ffffff;points=[[0.005,0.63,0],[0.1,0.2,0],[0.9,0.2,0],[0.5,0,0],[0.995,0.63,0],[0.72,0.99,0],[0.5,1,0],[0.28,0.99,0]];verticalLabelPosition=middle;align=left;verticalAlign=middle;shape=mxgraph.kubernetes.icon;prIcon=pod;labelPosition=right;" parent="P5fyJ_uZ24H15enQcCNX-85" vertex="1">
          <mxGeometry x="698.25" y="476.75" width="28.5" height="31" as="geometry" />
        </mxCell>
        <mxCell id="P5fyJ_uZ24H15enQcCNX-120" value="" style="edgeStyle=orthogonalEdgeStyle;html=1;endArrow=none;elbow=vertical;startArrow=block;startFill=1;strokeColor=#545B64;rounded=0;entryX=0.5;entryY=0;entryDx=0;entryDy=0;entryPerimeter=0;exitX=0.5;exitY=0;exitDx=0;exitDy=0;exitPerimeter=0;" parent="P5fyJ_uZ24H15enQcCNX-85" source="P5fyJ_uZ24H15enQcCNX-123" edge="1">
          <mxGeometry width="100" relative="1" as="geometry">
            <mxPoint x="673.77" y="478.5" as="sourcePoint" />
            <mxPoint x="596.77" y="478.5" as="targetPoint" />
            <Array as="points">
              <mxPoint x="653.75" y="466.5" />
              <mxPoint x="596.75" y="466.5" />
            </Array>
          </mxGeometry>
        </mxCell>
        <mxCell id="P5fyJ_uZ24H15enQcCNX-121" value="" style="sketch=0;outlineConnect=0;fontColor=#232F3E;gradientColor=none;fillColor=#ED7100;strokeColor=none;dashed=0;verticalLabelPosition=bottom;verticalAlign=top;align=center;html=1;fontSize=12;fontStyle=0;aspect=fixed;pointerEvents=1;shape=mxgraph.aws4.container_1;" parent="P5fyJ_uZ24H15enQcCNX-85" vertex="1">
          <mxGeometry x="649.34" y="512.37" width="38.32" height="24.75" as="geometry" />
        </mxCell>
        <mxCell id="P5fyJ_uZ24H15enQcCNX-122" value="" style="rounded=0;whiteSpace=wrap;html=1;strokeColor=#3399FF;fillColor=none;" parent="P5fyJ_uZ24H15enQcCNX-85" vertex="1">
          <mxGeometry x="639.25" y="494.5" width="58.5" height="60.5" as="geometry" />
        </mxCell>
        <mxCell id="P5fyJ_uZ24H15enQcCNX-123" value="" style="sketch=0;html=1;dashed=0;whitespace=wrap;fillColor=#2875E2;strokeColor=#ffffff;points=[[0.005,0.63,0],[0.1,0.2,0],[0.9,0.2,0],[0.5,0,0],[0.995,0.63,0],[0.72,0.99,0],[0.5,1,0],[0.28,0.99,0]];verticalLabelPosition=middle;align=left;verticalAlign=middle;shape=mxgraph.kubernetes.icon;prIcon=pod;labelPosition=right;" parent="P5fyJ_uZ24H15enQcCNX-85" vertex="1">
          <mxGeometry x="639.25" y="477" width="28.5" height="31" as="geometry" />
        </mxCell>
        <mxCell id="P5fyJ_uZ24H15enQcCNX-124" value="Container" style="sketch=0;outlineConnect=0;fontColor=#232F3E;gradientColor=none;fillColor=#ED7100;strokeColor=none;dashed=0;verticalLabelPosition=bottom;verticalAlign=top;align=center;html=1;fontSize=12;fontStyle=0;aspect=fixed;pointerEvents=1;shape=mxgraph.aws4.container_1;" parent="P5fyJ_uZ24H15enQcCNX-85" vertex="1">
          <mxGeometry x="590.84" y="512.37" width="38.32" height="24.75" as="geometry" />
        </mxCell>
        <mxCell id="P5fyJ_uZ24H15enQcCNX-125" value="" style="rounded=0;whiteSpace=wrap;html=1;strokeColor=#3399FF;fillColor=none;" parent="P5fyJ_uZ24H15enQcCNX-85" vertex="1">
          <mxGeometry x="580.75" y="495.5" width="58.5" height="60.5" as="geometry" />
        </mxCell>
        <mxCell id="P5fyJ_uZ24H15enQcCNX-126" value="Pod" style="sketch=0;html=1;dashed=0;whitespace=wrap;fillColor=#2875E2;strokeColor=#ffffff;points=[[0.005,0.63,0],[0.1,0.2,0],[0.9,0.2,0],[0.5,0,0],[0.995,0.63,0],[0.72,0.99,0],[0.5,1,0],[0.28,0.99,0]];verticalLabelPosition=middle;align=left;verticalAlign=middle;shape=mxgraph.kubernetes.icon;prIcon=pod;labelPosition=right;" parent="P5fyJ_uZ24H15enQcCNX-85" vertex="1">
          <mxGeometry x="580.75" y="477" width="28.5" height="31" as="geometry" />
        </mxCell>
        <mxCell id="P5fyJ_uZ24H15enQcCNX-127" value="HPA&lt;br&gt;" style="edgeStyle=orthogonalEdgeStyle;html=1;endArrow=none;elbow=vertical;startArrow=block;startFill=1;strokeColor=#545B64;rounded=0;exitX=0.5;exitY=0;exitDx=0;exitDy=0;exitPerimeter=0;entryX=0.5;entryY=0;entryDx=0;entryDy=0;entryPerimeter=0;" parent="P5fyJ_uZ24H15enQcCNX-85" source="P5fyJ_uZ24H15enQcCNX-119" target="P5fyJ_uZ24H15enQcCNX-126" edge="1">
          <mxGeometry x="-0.0433" y="-10" width="100" relative="1" as="geometry">
            <mxPoint x="789.25" y="494.5" as="sourcePoint" />
            <mxPoint x="533.25" y="468.5" as="targetPoint" />
            <Array as="points">
              <mxPoint x="712.75" y="464.5" />
              <mxPoint x="596.75" y="464.5" />
              <mxPoint x="596.75" y="476.5" />
            </Array>
            <mxPoint as="offset" />
          </mxGeometry>
        </mxCell>
        <mxCell id="P5fyJ_uZ24H15enQcCNX-128" value="" style="rounded=0;whiteSpace=wrap;html=1;fillColor=none;strokeColor=#990099;" parent="P5fyJ_uZ24H15enQcCNX-85" vertex="1">
          <mxGeometry x="566.75" y="444.5" width="200" height="120" as="geometry" />
        </mxCell>
        <mxCell id="P5fyJ_uZ24H15enQcCNX-129" value="Node" style="sketch=0;html=1;dashed=0;whitespace=wrap;fillColor=#2875E2;strokeColor=#ffffff;points=[[0.005,0.63,0],[0.1,0.2,0],[0.9,0.2,0],[0.5,0,0],[0.995,0.63,0],[0.72,0.99,0],[0.5,1,0],[0.28,0.99,0]];verticalLabelPosition=middle;align=left;verticalAlign=middle;shape=mxgraph.kubernetes.icon;prIcon=node;labelPosition=right;" parent="P5fyJ_uZ24H15enQcCNX-85" vertex="1">
          <mxGeometry x="552.25" y="418.5" width="51" height="38" as="geometry" />
        </mxCell>
        <mxCell id="P5fyJ_uZ24H15enQcCNX-130" style="edgeStyle=orthogonalEdgeStyle;rounded=0;orthogonalLoop=1;jettySize=auto;html=1;" parent="P5fyJ_uZ24H15enQcCNX-85" source="P5fyJ_uZ24H15enQcCNX-131" target="P5fyJ_uZ24H15enQcCNX-132" edge="1">
          <mxGeometry relative="1" as="geometry" />
        </mxCell>
        <mxCell id="P5fyJ_uZ24H15enQcCNX-131" value="" style="sketch=0;points=[[0,0,0],[0.25,0,0],[0.5,0,0],[0.75,0,0],[1,0,0],[0,1,0],[0.25,1,0],[0.5,1,0],[0.75,1,0],[1,1,0],[0,0.25,0],[0,0.5,0],[0,0.75,0],[1,0.25,0],[1,0.5,0],[1,0.75,0]];outlineConnect=0;fontColor=#232F3E;fillColor=#E7157B;strokeColor=#ffffff;dashed=0;verticalLabelPosition=middle;verticalAlign=middle;align=left;html=1;fontSize=12;fontStyle=0;aspect=fixed;shape=mxgraph.aws4.resourceIcon;resIcon=mxgraph.aws4.sqs;labelPosition=right;" parent="P5fyJ_uZ24H15enQcCNX-85" vertex="1">
          <mxGeometry x="420.75" y="623" width="58" height="58" as="geometry" />
        </mxCell>
        <mxCell id="P5fyJ_uZ24H15enQcCNX-132" value="" style="sketch=0;points=[[0,0,0],[0.25,0,0],[0.5,0,0],[0.75,0,0],[1,0,0],[0,1,0],[0.25,1,0],[0.5,1,0],[0.75,1,0],[1,1,0],[0,0.25,0],[0,0.5,0],[0,0.75,0],[1,0.25,0],[1,0.5,0],[1,0.75,0]];outlineConnect=0;fontColor=#232F3E;fillColor=#ED7100;strokeColor=#ffffff;dashed=0;verticalLabelPosition=middle;verticalAlign=middle;align=left;html=1;fontSize=12;fontStyle=0;aspect=fixed;shape=mxgraph.aws4.resourceIcon;resIcon=mxgraph.aws4.lambda;labelPosition=right;" parent="P5fyJ_uZ24H15enQcCNX-85" vertex="1">
          <mxGeometry x="424.75" y="703" width="50" height="50" as="geometry" />
        </mxCell>
        <mxCell id="P5fyJ_uZ24H15enQcCNX-133" value="ALB" style="sketch=0;points=[[0,0,0],[0.25,0,0],[0.5,0,0],[0.75,0,0],[1,0,0],[0,1,0],[0.25,1,0],[0.5,1,0],[0.75,1,0],[1,1,0],[0,0.25,0],[0,0.5,0],[0,0.75,0],[1,0.25,0],[1,0.5,0],[1,0.75,0]];outlineConnect=0;fontColor=#232F3E;fillColor=#ED7100;strokeColor=#ffffff;dashed=0;verticalLabelPosition=middle;verticalAlign=middle;align=right;html=1;fontSize=12;fontStyle=0;aspect=fixed;shape=mxgraph.aws4.resourceIcon;resIcon=mxgraph.aws4.elastic_load_balancing;labelPosition=left;" parent="P5fyJ_uZ24H15enQcCNX-85" vertex="1">
          <mxGeometry x="429.25" y="81" width="43" height="43" as="geometry" />
        </mxCell>
        <mxCell id="P5fyJ_uZ24H15enQcCNX-135" style="edgeStyle=orthogonalEdgeStyle;rounded=0;orthogonalLoop=1;jettySize=auto;html=1;entryX=0.5;entryY=0;entryDx=0;entryDy=0;entryPerimeter=0;" parent="P5fyJ_uZ24H15enQcCNX-85" source="P5fyJ_uZ24H15enQcCNX-90" target="P5fyJ_uZ24H15enQcCNX-131" edge="1">
          <mxGeometry relative="1" as="geometry">
            <Array as="points">
              <mxPoint x="450" y="614" />
              <mxPoint x="449" y="614" />
            </Array>
          </mxGeometry>
        </mxCell>
        <mxCell id="P5fyJ_uZ24H15enQcCNX-138" style="edgeStyle=orthogonalEdgeStyle;rounded=0;orthogonalLoop=1;jettySize=auto;html=1;exitX=0.5;exitY=1;exitDx=0;exitDy=0;exitPerimeter=0;entryX=0.5;entryY=0;entryDx=0;entryDy=0;entryPerimeter=0;" parent="P5fyJ_uZ24H15enQcCNX-85" source="P5fyJ_uZ24H15enQcCNX-133" target="P5fyJ_uZ24H15enQcCNX-94" edge="1">
          <mxGeometry relative="1" as="geometry" />
        </mxCell>
        <mxCell id="P5fyJ_uZ24H15enQcCNX-139" style="edgeStyle=orthogonalEdgeStyle;rounded=0;orthogonalLoop=1;jettySize=auto;html=1;" parent="P5fyJ_uZ24H15enQcCNX-85" source="P5fyJ_uZ24H15enQcCNX-94" target="P5fyJ_uZ24H15enQcCNX-128" edge="1">
          <mxGeometry relative="1" as="geometry" />
        </mxCell>
        <mxCell id="P5fyJ_uZ24H15enQcCNX-160" value="SQS" style="text;strokeColor=none;align=center;fillColor=none;html=1;verticalAlign=middle;whiteSpace=wrap;rounded=0;" parent="P5fyJ_uZ24H15enQcCNX-85" vertex="1">
          <mxGeometry x="369.25" y="637" width="60" height="30" as="geometry" />
        </mxCell>
        <mxCell id="P5fyJ_uZ24H15enQcCNX-161" value="Lambda&lt;br&gt;Function" style="text;strokeColor=none;align=center;fillColor=none;html=1;verticalAlign=middle;whiteSpace=wrap;rounded=0;" parent="P5fyJ_uZ24H15enQcCNX-85" vertex="1">
          <mxGeometry x="363.25" y="713" width="60" height="30" as="geometry" />
        </mxCell>
        <mxCell id="P5fyJ_uZ24H15enQcCNX-143" value="IGW" style="sketch=0;outlineConnect=0;fontColor=#232F3E;gradientColor=none;fillColor=#8C4FFF;strokeColor=none;dashed=0;verticalLabelPosition=middle;verticalAlign=middle;align=right;html=1;fontSize=12;fontStyle=0;aspect=fixed;pointerEvents=1;shape=mxgraph.aws4.internet_gateway;labelPosition=left;" parent="P5fyJ_uZ24H15enQcCNX-85" vertex="1">
          <mxGeometry x="425.75" y="-29" width="50" height="50" as="geometry" />
        </mxCell>
        <mxCell id="P5fyJ_uZ24H15enQcCNX-141" value="Cloud 9" style="sketch=0;points=[[0,0,0],[0.25,0,0],[0.5,0,0],[0.75,0,0],[1,0,0],[0,1,0],[0.25,1,0],[0.5,1,0],[0.75,1,0],[1,1,0],[0,0.25,0],[0,0.5,0],[0,0.75,0],[1,0.25,0],[1,0.5,0],[1,0.75,0]];outlineConnect=0;fontColor=#232F3E;fillColor=#C925D1;strokeColor=#ffffff;dashed=0;verticalLabelPosition=top;verticalAlign=bottom;align=center;html=1;fontSize=12;fontStyle=0;aspect=fixed;shape=mxgraph.aws4.resourceIcon;resIcon=mxgraph.aws4.cloud9;labelPosition=center;" parent="P5fyJ_uZ24H15enQcCNX-84" vertex="1">
          <mxGeometry x="930" y="240" width="60" height="60" as="geometry" />
        </mxCell>
        <mxCell id="P5fyJ_uZ24H15enQcCNX-186" style="edgeStyle=orthogonalEdgeStyle;rounded=0;orthogonalLoop=1;jettySize=auto;html=1;entryX=0.767;entryY=0.265;entryDx=0;entryDy=0;entryPerimeter=0;" parent="P5fyJ_uZ24H15enQcCNX-84" source="P5fyJ_uZ24H15enQcCNX-141" target="P5fyJ_uZ24H15enQcCNX-99" edge="1">
          <mxGeometry relative="1" as="geometry">
            <Array as="points">
              <mxPoint x="800" y="270" />
            </Array>
          </mxGeometry>
        </mxCell>
        <mxCell id="P5fyJ_uZ24H15enQcCNX-148" value="Argo CD" style="shape=image;verticalLabelPosition=bottom;labelBackgroundColor=none;verticalAlign=top;aspect=fixed;imageAspect=0;image=data:image/png,iVBORw0KGgoAAAANSUhEUgAAALUAAADBCAYAAACJ4PF+AAAAAXNSR0IArs4c6QAAAARnQU1BAACxjwv8YQUAAAAJcEhZcwAAEnQAABJ0Ad5mH3gAAABhaVRYdFNuaXBNZXRhZGF0YQAAAAAAeyJjbGlwUG9pbnRzIjpbeyJ4IjowLCJ5IjowfSx7IngiOjE4MSwieSI6MH0seyJ4IjoxODEsInkiOjE5NH0seyJ4IjowLCJ5IjoxOTR9XX2DFqMTAABMxUlEQVR4Xu29d5RdV3n+/87cO71q1JtlyU2uuOACxhibmM4KxDgL0gCnkkYg5Z+sJKysZBFWEsg3+f0CSYDwhRBwAthgSDBuGNu4V1kusizJkqw6mt7b/T6f99w9OnPmzMy9sjyaO7qPvXXvnHvOrs9+97PrqcgJVkYZiwiV+c8yylg0KJO6jEWHMqnLWHQok7qMRYdyR/FVIsq9ArOwoiL68H/LeK1QJvWrBLlHFo5NmI1P5Gxcf+vDUSGyV6otzIjM2coKy2TKpJ4PlEldACDphP4ZFWNxw2M5GxqV0+fouNmIro3LcR/ZGXK0oiInV+EuI3JnRepquZpshdXK1VRF36t0jd8r85a8jFeHMqlTQI5M6J8xsXRwJGf9csMiMeQdyxPbicx92GPdCx/d4UH4R9fxyx3+5n8Sj53I1ZmI6HyvzVZafXWF1clV6wZd8rvLPC8eZVILUQ5EBIwsseWt8YR1D+Wsb3jCSQyC9UVWQEgnpUiYFUGxtFyHuRU5xIest8sSOT0fLL1bdV2j4uT8U35InjTWVFhzXYU1VFc6sbHm+O0Ez7O7zPG5cVKTOk5mNDGE6xgYt/a+CesZmvC/xTWrlvWsr5EllcuKZFyr1D9HLXNEtehfYfKLkM9dwoDk4TuERtJg+QdVcfoV3rAqESTPyO96EXt5U8aW1EcWHE1OuA6FFw+ijKk4qUmNBoZUWOLDveNOZLQyA53V0rt1IjEWE2ucyVviCv02nVCJKymkjjA1q/nLCY4lh+BqHUZE7CHJnQHFiRvQ3M21lba0IWOtIjhSxStU5EUZKTjpSE1qsZhj6uBB4q4BrPK4k7lShIHMNbKMVdK4NP1YR7fIzqLjq3E94/O5T5wigkNu5I8st8gNyScUV0XHyd1an/HPWsUTi17GdJxUpKbJR98OjkxYp8jcLVIPisy6FI1EiMw1avYnreEJ4ExUGtFIyqgsN5IEyz0sy400qVM8I3JX6jPjWh67fSLiulCx6EkdUkcy6fz1ihyd0s1H+iFzzi1zg0jSUJfJW+WFQxCiTrzpWA4q3n2DkfWmL0qncnlj1lrqKl2iYLXLxI6wqEkdpSyyehC6vW/cDvSMWY/IgV5ubco6oZkUOVZCHEvmHUtQTm5Z6v7BcevuH7cBtTIQeUNbVnpb6VArw1h3SMjJzO9FT2okR7/kxt5ORjUkTitztrS5KtLNLjO4szRIDehU0rntl+Vu7xrVBbMl6kSubsnassbMpM4uk3oRwjWpCr9bVnlf95gTm+G4RobIpEWxaqJyKpklU03S2mpEerJHXpikrWvvwGKuI18Ix4fn9Dk5ZOf/HiWWj2vrE775WLaHqz9iYadEIxWUVtTRzbm17pOUQpLUV1XaiuasrWnJp03+F+rnYsOiJDVJYjSjo3/CDvSO2YC+10qDNtVnXHbQCQQzFTqElvGzOie1WZ+kS59INCx3lMQRhY8SOiJbGkLlcVLrbx8a1H+B5KwN4bsTvUB4pVJwQ7LYPSI2Y93V8mSVSL1cFpvRkZN16G9RkTokBUIfke482DNuPSr0lsZKaxZLa2TNCiGOeG/qg1mtSIGP3TLT3bL0AyL1GGQSm9xqvwpAbtUZucposRNOf0eEj1AoyYcUtx6lt1fOchV2inT2MqW5TrXTO5D5+04WLBpSR6nISSbk7FCPJEfXmPWpsJe1Zp3Q3hn0O9MByQCSAvkhhWL1ekZG2g4PjTmxxenXDOKeW9pqifxo9rA4cjNx0yuLfbBj1FuFU9qqbHVzxmdB8etkwqIiNQuQsM771IGSsbZmNcNIjjAqkFa0WEfkhqS2o1sP9o6N+1oP1nnQxENsPl9rED8cBK/NZHxFH4QshJQUI1P9Q8MQe0wFKykiUq+X1WbK/WTCoiA1KYCEaOi9naM2Lg7U11aK0LJ6zmjn9BTwJzIDh4Vkxo4hs4Oyyl2y8MiME5kxWUWYCsdCp2qlIRMN06RWTOBxVZxJQ9/guHX1jjPQ4+tHkCM+0lNA5VgMiHKqhBEIzSjH/u4xG5FJrROhG+siQlOOybIk0XV5eVErB3nwo2tk3AZk7k40oQFxIC1DYiluRM47pyQ4BVES0ebqDyhxVOgJXWQYk9aL2clF0ijPiZK31CwEckKr4A73jalTGEmOqFOYvykP/oTA1XINLFTCOiv1QyJynxwWGiIV3An0rJPjc2JCmTluFf4pH3Qtp05grlK1R1aW79FqqHykirCa3InFrhVjvVOZr6lpPoTSHFV6mKSh88izm5ZV2RLlCxa7iKBLEiVL6hDtgZGcj0MfEKkZtmtrVlPLcFZKyYnHbqEbYbb+p0L0qvA7ReY+Fg7l75sR8awScSvGpV3HR61ydEhu2DLDA5YZGdD3ERfhE9kqG6+pt4maOhuvqrOJqhrLZastl8k60T0SRTCMaENsOpPRtHj0bJoPCt6GfVRkzDqVN20NWZchLGUNEzSLFSVNavTjbnWKDslC07ta1pL1tRyUdXLEQJclN6KxZ+g0rFLvlNxgVMPHn6PbZgdZJWsMgau7Dlht+26rPbLHajr3W1XfEZG6PyL0OBab5l4SQMSeqGmw0cYlNrxklQ0vW2dDK061kZaVNl7bKJJX5T0vDPCxRqSuEbmr0BpCGkU9qvqH4b6OnjEbHM7Zutaszzw20pFYxChJUocCa1fTurdzTKRkpEM6Wqyl0GciNPqZX9DP7SI01rkguZG3ypnBXqvt2GONu5+x2sMvW3XPYcsOdruFrhwbFpEVEeaxPYJ6DnPJDpiKrMhd7RZ7rK7JRpuX2aCIPbBusw2sPs3G6ltkvavz1ntucBed29psxuUI6U0ndlTxB4bGrb1rzO9drZZsrcjNOvHFipIkNZMfLFB6qX3U+mSBamorpKUlO/IFFS8ucVn6ObLQXB9UKXcyCzeqzlOeezPCyTnhFrj28C5r3LvV6g7tsrqDL8kyd1jlyJAyUFY5f/sUBGIj2sV1v8Q/0tUTVdU22rTUhpaf4uTu3XihrPcGkbtZjFVkE5UyDRC7SpWgTh2DMK6dBoqXtePdas261WlskpVev6TK14mAAoIqOZQcqYktazqw0i8dHpGOrvTOYW1NZKXjoOCx0HQK+YlRBCRHu0g9a6JDlsjqIivqDm63lu0PW8uORyzb1yWLLC0d3TE3nNRyieaAEOhETkhzd591ufVuusj6126WRFmtmihigwIYVycJEjqQaZM0XrcgtozAIVnrMbVO7KLZtLxa8kV5tAhZXXKkZlirbyhnzx8csUFZ26UtVdbEjGGC0fzFnMOS6ryGFrGOSKe0y80qN0J2IDeG+qx1+0O29OkfWf3+bVapTmHRwDtkSAqxgYcm6z20bK11XHCtdbzuOunvpSJ2ZEkLIXa9rDWTNd7/nZHYstbqNHb1MjFjdtaqaluiXnPU4czfuEhAeZcURmRxugbHrUduSXOVT7IkLTR/0hdqEi+gBnw6IguNlZ6V0AHSxlW9h23ZEz+wFQ99y+oOvOijHMcMchnGzQRJnJoj+23Z47fZqnu/qdbgiCJdeHi0QMNyXkFmAMRl7J78YuZ1n/oitHiLESVFaqxNvzR0h6QHm2Frq5hggSxTCYO0Zu0GY7IYyQ5Z5141u0x3zwkRuubIHmt79h5re+ZOq+k6oE7gSBQCHbm6eumZRjUD6tgVYuL8Fv3DZ0puc9l/kqSp6mm35u2P2ar7brKazgNRRQotxywgjcOSSk5sfU8+QjRxWGXfTKx8Y/Y17JgvIIiSQkmQmjzHUQC9KoheEZtFSqyP9p4/rMiDBEleW7UueiXwSZVxlx+zlh035zV00+6nrfWF+6y2c58Ty72vqZGWkSxYscpspdzylWoK1LELMmE24AGOW2NxTaJSkqeq+5C1Pv9TW7L1HlWuV1wGFQLG3CH1mNJAStPSSl7VSpMx48rCryMitu+eX2QoDUutfHeCqoPHHkMkRLTyTl8SJJERkvTIT32r4JAcQ/osREczidKw9zlZy4fVOdwxyUWvNfUNIvKKyC1dHpG6TSSvqeWOwoBOcg9nRiXSp6fD2p6+0xpf3mJVA11e2eYCKUBWQGx9TKYpDpKBIYiOfjDfqzkwkp9+z9+zGFAapM6zmtOSfMG/On/Vsjj03OMc4buMkMsPRtF8+E6FVpB0xEr3HLbWbfe7pa5kqjuA0YjauojYSBDYUVUV/d3YlL9pDvBM+Mx/nRk519hNO5+0uv3brULyJ6Lt7AkhxkNKx7hba8+yaSDHkGUsJcBI4OinzOF1SaFESE3zatY3NO4LfRrU4UkCnrCmg0kJfu2Xhma0Y24bJzAWPdJvbVvv8jHowkY5AguKZEOhOa44Ne58yppeetwlUaHASmOtkSMzAWvNiBFLUToH0dZqycqknj9gbXDdIvSgiBo6O0ljR0LQ0sgOiI/FGirEROteOoLV0s8Ne5/1SZVpJg5dOzRoNtCn7/lZw1ERv79fNU3XisUclpqfcZmhflWyndaw5zlZazqN/vOcQHYhRZAVSdBQoIKYqCIfObkVCVJiI7uzYsGTmpLEinCSEhxlbUdYaTbZosux4g4tzbVB3TigwipotEOFyfR3o7Q0Ix0Z6eq8t0dBgQ8MmLW3m3XgZDn53tUpsg/lbyoQ0zyfGUy713Tss8bdWy3T363KlJ+anAO0TqOK87hcOldZolphDSI1Fh1jQSXg3vT7SwsL31LLYXEY8ahQQXCSUnKCwS2PHMTmXkY80NOFgNnBqv4Oa3r5KcsO9zEblf8lgWGRt1NkPrBfbp/ZoQNmvT0FEy2CIum1Mf/nHOC2qv4uq5W1ru14peAhPgBJndQp5j0YBG/x9MkICKsdC/R6wWNBk9ozWQ5+clQYox1hFV4cSA60NJfV73HZIeNTEBjxqO4+aPX7XrCKkeH81RmA9BiUxR6Q7ODeogidQCINM4GFVFV9nYrfNqucK34xQOhgfWcCR6yxdxNCd0lbR3Kl9Jm94C01koNMZ4yaJjMst4yDkT1GPCgTFvwzBlto0SA9aOJZaeeL++cFBTIaKFHEjYVUrNUuZHgPkH4n9ixp4hw+VutxH+P/yrZFgQVHajos6DwOPEfr9SmzOe4AHtBrT851kAAsNRKEQkF6QOqCIIJkRerq7kNWOR6GzeYBLL4oENDf129PVrzCWwcsL60coSVDjCatokMxOR8ECdI3zLh1zkaUh6yELFUsKFKrDDzz6RS+0jVmO9tHbXfnmLX3jfnwMFPiST2NhWbCBdA5YvE/1r0gMJQ33O+aGis91eeFA7R0VV+XZYZ6XY4UCnjp+y09Y9MzpVodEQxFvwjNhotdR0Z9FxEnWs3wyILHArPU0UgHazv25jOY3eHsQWSLFs1lEpCaPXvkP1PhWOmCRYSIXDky6KvxJoFHae54gFpzDDWHCkc8swM9PvxYKMgHt9azsNNbP1lqjjRmwwV5zpkpvUNIuOOV8PnFAiO1+KMC8LdeiZyURXB0EMn8JJAeOAqP1WpUikLhZBkbFmGkVXmuGPeqkE9Hmr8zuAp1UiG1j1cXgUiCzExPuijxDTfkNf2XUl7otOBInQpxIKucT0oP/gpT5ZB5RKVQsJUGuh+ysJDISx2+DMm3gbzrz39yDQP5KgY7ZgTh4u+YwhhVcYzg1CTxybXI3Bq71H2nzUTh8gPw+GxyDD292DYKlAapVShhyUUSfi1f9iMiRzHWJTM8ZJm+fqvsEZv7FMCg3LBcIBefOK7x2wBOgUF+iFhEWNPAoRxj8g8Cj2bl9DkmN47TdT65NqLfnOQiHxM97M0qIpHcGo1Xp0eX/CNvUxrBkoWSUwpg1d308enJP1VaNLM+Lpu/NCMoZVm9qo6D1vzcI9a4bYtleiQ/IFG2wax1hdmqU802nGV26mZ932jWomtV+g3SQXYnvkIvltjcyzM8S2WB1IRbWWPW0GrWttJsxTq59WZLFGZ9S/SbSF45PGYNO563xp1bPe7FjJGTNyQ7DbRzEDplpLRksaC2cxEViPn8gVE72DM2udaXDN+4uiba5RIzKaKDtUhrs22Lobzd/dEZejOCpEpqZPu6rXXrg7bkyXutbv8u9f4zVrFMJFq2SqReZta8xKyOFXkKq1+dyJ5Os87DZu0i08FXRMhh5ZzMdbX8q5IjIuBo1KaDeHlzopuoGBNy1XUir8JbKjK3KMyGpvxSVt0zpIrW12PWdUQ950OW6zhsOdXq3lPPsa7zrrDeMy+2kaWKLzU9Wdtj4Bf2LzZVsd1r+ugR6Owds0PqkHOMAuCVGxwwuW5JNrUfs9BRMqTetLbGp3Xj+o+p8Sb13hnS47gDSD2r/WJcurfTml941Fbe/R2r7j5ilfUNVnGqrPLV7zI75fRoZwunKoVw1Jn0CY/BfrNd28xu+5bZ/j0ie69+lNCG1HVy3D5T+ZOMQOghRbZCkoJKs1YtwhXXmp1ziVkjO8lTwj18wOy5x83u/5GTe2JM+bJ8rXVe8CY7fOV7/NgFfyaFrAFO6thxCkmw0/wwp8QOEsnSJ3XmU0L++4IAHT5ezsk6XxlfB6Rua4qOQIgXCmTmLA/ynVV5HEwTVYN0sCio+aWnbfUdN1lNT4dVrlJTf8VbreLa95qt2xRt0+JwGT9BCVkgx/esXJUsaGub2enn6bvuwYpixcMaE6z1TOVPpOjfQWiTX1jmy99i9vYb5N+5ahkkPaokMwiH8Bg45jtxIU4r1pqddo78UOvQ220ZVcbMQK+N1zbYiGRKrmr2rWVIDA6/8U51yn0jMh68t5FPwIHtLXUZaxa5S7ETSS6XANILI4CimI3MDlm4+r3bbckTP5GF7pDcWGkVl1xlFRe9MSJNbd5Chx7pFKdrEK1OBKMiXCZCXqznVsvSQlIsME1Ent9TEAiN5MjJDyTO5deYXSo/Vm8QadkSJj883BB2/jvXICykP0WV7sq3W8X5l1ql/q5t32dLH7nDag/t8VGRGUVzgSDYxQLlWmkgKrJjyHkKW66qt8Pq92yXe1Gtv0h0/mVm56rZXymSVte4XqVDNTo6ah0dHbZz1y7bJdfb26v6MBaFH0i26pTo+TPPl2xQZ46zgyF2Gqm5xtAcHUKkwjkXm513qaSHOqDSz4SL3+Pj4x7W3r17bftLL1lnZ6cNDw97nLyy1ajSIY8ufINVbNxsGXUU61/ZYY07triketWIMnhRoERIHRFztpyH7jNSXs/WHtqrTuFOyzLWK2tZcYFIuWp9ROj8bRB6x44d9uN77rGbb77Zbr7lFnvgwQft4KFDTjrvfmDSkB/rREpIvUafZONMoyFcg/RZVYbla8wuuFzPyELTIcybxwlJp0MK45FHH7Xvfu979u1vf9tuv/12r1RDQ0ORl9zLMyK0naVwl67wWcambU9ZdechPMnn0bHh2J9ceCgJTU15LpGmDrvHA2S/fMkpM4rs9uiZRVO3PPuQNb/4hHcuXXJgpZsYMovqNcTq7u62b3zzm/ZvX/yik+ve+++3l2Q1161ZY+vWrbPq6uqj4QfdzXLQF5+JIp6VI1LcEiKCBWf4rmmJW1m78IpITujZ0EenMt1111325a98xb761a/avffeaw888IC1Llni4TY3Nel2eUzYhEsaWAK743nvJwxs2GxDDAX6b/n4xYAunk1Tc4gkB7WP5ud1ypp6HkDRe/EHouQBj8KlqMDyfyShprqm44BVMzzWJEJddnWe0EcfgNTbtm2zB2WZn3/+eevt63M58NDDD9sdd91tz+ka90yCwPBj+eq81VVWTkY0D777I/qN4boz1Cms1yeVIQ+IPTAwYHfceaf9RGTu7umxvv5+27tvn936/e/b/ffd56SfBJUQyXSGOqyqZBlVquqOg1bFsOMMlnouWpKsAvdUlARKgtSQwycQ8n8G8DeOQiMhWOwpBUghy7HXL9Pf6wfGVECuJcsjOZC/G2IhL5AZHdKyQ9KyXIPENP/79++z9vb26aTmQJtmERvLyxANs4RxcngEdc01sfR0G5M4ki4xEE6fKlD7kSPWI0ITBtfQ8fv27/c48X0ShIuuJx2NzW55IXSW7V56LglSGFwaeIS85VXRiwWlQWoBPiXLLPxJgWF0eU9KGiqHB31Nsje9WFVIwQP5+7leKQvY2tpq9Q0NlmUyRtdwWXUqly9fbm2SAv58HIGsdBYr9N0jFLtnMoLKZioAY+BhhCMP/KypqbGW5mZrUNjEI8Rn5YoVtmzZMv8+CZ7FMdznIzaVqrQDnsYZQXAe5tFwA6LKC7HzFxYBSoPUKouZSB0kCPKD10BMLzb9xpSyP6xf4wSJAfKedtppdvGFF9rms86yFSIUpHrd+efbFZdfbps2bfKZx2mApPFx4kQcHfxEuK6Lo0sgVJxmEfqSSy6x18utXr3ali5damecfrpd/eY32/kKHy0/FfKEcNHQ+s4GXT8bewZM5kos7ACyhTwsk3q+oQwf82WlU3Oev8IVt9RKTeBWHH5aP1aV5yUz/DPmVSDX6lWr7EMf/KD96o032rXXXGNvvfZa+8QnPuGf0yxmAGSiszgZt5jHccAawk4BpH3/+95nv/nrv27vesc77Korr7SPfPjD9oHrr7dzzzlHimWqZPEwmHF0/2RpRW5/t0wKyI7QKKVkjS928l0uM0S7FFES0+QUyNLmjLW1ZK2ewz1i4OzwenYKCBwxdmhw7Oj6j3zSKtU8r7v5C9a25X6r3HiW2cf+XA9Kk7qlixCyYWRkxAYHB11LAyRBbW2tW3KIPwWcBfLiFrOv/R8F3q5aNSI5IrLhLd7pq6/sm5ClPfVMsw/9TjQUWF3D044QLpqecOk0oquRJPX19U74aZWJV3Bs22K5L/+tWXeXHb7sZ6zj0utsYP3pUeWNgX6Gn2Gd5fzu6bRm5KO9e9SOdDNkGV0r9WnyBWipo8YyZCWf5OvQCJ2Z6FocnO1BH4eE8NplX7QT/RTVBoEXCI22tNlYXaPl+nrNXt4WERJNk0ew1pCopaXFVq5c6a6xsTGd0AAd29URTZfjF3sP47fxnWtYc4bgjhyICBnYI4RwkTaEhexZpRZjiTQ8xJ4WLuEQ926Fy1S9LPZoyzIbZRFWShy55Gs+8n8nMTY2ITd1FV8Up/wfJYgFRupoHUdrfaW11GesqTaj7xlb0ZQVL2TF5ZISBFL7eLae4zCbcOzYFMjSDS9fa8Ms7ezrNnv8vmjlXYoODSRLumlgYwHW+ZVdIjdWXZEg4PitfMdwVug3CPjC09FnSu1MCzO4KSDOB/ZYTpaatSCj6qSOtK2wMYYKE9TlL86ymm2seVjNGtFhV3mj8jvK80prqJ6+KaNUsLBIrTwkH3l9w+oWmr8qWyu3Pt8MYlGSQ0/8yeZSmnssUp0Kh88pkKeDqzbY0Mr1lsO6PvOYyPiypEF/ZPmKgYclxyq9PTvMdjwnP0TwDKTW9RA0nzifkJHjyLLnnlK4O6PvaOJiQJjElVZh5wtmzz9pE5Ia/evP8MqaY0FUgoT8ScuVRmpkDw5SI6mb6zK2prXK3armrAgeHXRTilhQpCYPZZv8MHXeq33q0qyta5X1kMbDkmCpfeNHdLuD7xAbR2Ia1FsMu8sdlIzc8Ir1Nrh6o43V1EuCdFtuq4gti+droyFMIQj3ISGw0C88GUkZYlEjFw1GTAWWGmJzBAPy46kHo3Cl3YsLV44O6b6XLffyi95KsOy05+xLbZQNBSkMJBsml5um/E5+sjKPe3jd86lLM7ZRrk2tI+9Fn/5EaWBhWeoYMLbuFEOsDUTHSg+PTrdwEDpcRoJUVVROS9hETa31bTzHOi66Ohq+evKnZo/da7Zb1haSFgQ9yPLPvXrmobtleUVq/sYS49JYwDVIXaXaSAV6+uF8uNujZwsBpKYS7HnJ7L4fmm193MaqSc/Z1n/q2TbGrpkUkG8zjd2DYfopyreG6gpbynvcdStzSLM8UhJYcGs/yNC407/+PyMhnEUBkpsFAH9G60Bk0UUCzgBBb09Cv/OqNzqNzL5lu9qtsuuIVfTT2dKNrFsOEyPBBdDsQ3w6Z89LQvz0DrNt0sfdR1TrJD3q9Ltr57yLI1zDIaVHdD+6GgkC2Bzg4aWwyYcLFS67bp5/QuHebrntW2X0h21wzUZrf+O7vfXJMZqSeJZKXSN5wsv6yav4rySXit3TPy7vc9aqlnCFLDXvcieiHp1EVEoJC2pILw1eALKQHHDD4Taj+r68NWs1vC9NCJnPQqVm/cPWrkGxmbOpO0bGsa1HIXJC6IYdz1jb4z+2+n27rCqbsYo1G6xi01nRclCmsjlMneWpgClqCHjkoCy09PAu6Vl2wFAZ2NJVJUKzrYt4zEQEIkF9ZCUf66rRKS3LzdafZrZpczTMx9R9fb0qRyxcdHu7JIu0e45wZanpFA+s2WRd579B7kobDzt1EqCC12UiUicJSpEj4/YeHvFuwJqWrK1vy07vi5QoFj6p/R/OoTB78dCodYusvBqjuTEb8ShfDhQr7x3nnYmAMevDQ+N+YtMUiNgVI4PW8tyj1vz8Y9awZ5tV93Rahne6bDgjWizkO1GYJdT9w5IMjJSgg9HRPZxfTcdQ/rKVC0LD07lANHC+ak+frK/OVEULnNhOtnJttNiK2UO/T+HSMuzfbTl0tAg+2tBsA+vOsK7z3mA9my+xcabnZ0D0Gjrerzg1cm4klCeDwxMi9ajrZ8ajlylP0+aWShELntSAGBLJPR1jdrB3zNcNrV5W5ZobVkc0FsfkWqQPsdqcUY215lVz0yAPOcqr9sBuW/LkT6ztibt8v6KzmDUcWD4cHjN0hwwIoxWYtkBm3VJUr4REAHkZkVuOxHCdcJlGD1aXcbZ8uDklFIvcde4b7cjr32oD68+Q5KiN7ksB9bpeLVCQHnFQ3HQOO5SP3X0Ttmlpla1uyXifJWnRSxUlVTdb6tSkirHD0tYM7yWNMFzhdCc6juxdbJEWQY6klVVOVnJo+TrrO22zDZ66XiZepEVK4AvnQNOpY/zZX5XBb/K0Xp+Ncmy0TRvpKBQ8Wys/CBM/6UgiuEO4OA9X1xSnCbVKI2uXW8dl19rg2k3R8N0MIErMIPKK59R0y42qd9g3MO552VAjyZZv3RYLSobUZHu9GNpcW+lj1mzr9zFrSikPvg7pHzqJgPeRL6uRVkyWGSZJLldVZRO1dTZRVxeZecgK0RpEpgaR2z/zjs5gsM74F1wxiD9HzkPueGUhnHqFi/NwdY1wZZTH62ptrL7RciyZncGkchVdjOSgFUtOnpAto7LSA8okNgQwH1DvFjrqHC4WlASpyXCcv1VKpOal8b3qOI66tZ66zhqec/A6Ix8UcIsKjbFr1kBMh4itJj9a8KQ/nWRykHfS5a/xG/fgz/EgQPCHSoL/QdIkncLNKf6M2rBoieXZMwGpgY5mBCgtkkgPjkgeGJrwcei2hsrozQz53xcLSsZSA8qqXpq5TRaGUTY6OxA73i3gm6S0n4DKZcat6TxWeUEnoEu5yqxNSIrwnPvCbcEdTxLPhXiYwYVrijvDkTmG/WaIDL8w4hFGO+LJJR9wTLYMitBIt6WNTIlLpqhSpWVNKYO8KCnUyGoxrtpcm7GevnEvJAge47UPB2Ot6SwyHIi6TC84WWpZvwks9QIGZM5lpaNnGZ5gLXmw0tPXbEQtWr/yCkNAi8d0ePRCqEXGaKHkSA3YGLphGUN6Fb50cjRlllHS0fqkGztGpCHFcmRJKmjSM+jUBZwVitu4kzrdrGKh2Vg72zJRrHNv/7gP4iytz1hLbbRheTGi5EhNmar8rEW6eqk04ZjY2yvWjoat53nAYSw25OatXtWyctMkiP52nSpLHTXtcwN/3XLKP87smA/42SDqIKbJD6bBITTvwkmzukgzZEenajiLl5pqMraiOZOvAPMT//lGyZEaYKHRgkzt1kgvs9aappVJheSwOy+9oLDpGNXIJddCRPJj5hGFNIzr/vFVmyy3YoNqWOHSxStDQ6uNt62xiRnWa6RCz7mmjskPYsuoDpKD4bvkVDggLxgh4kgxzsmrVwsXtDTJLSLJJYXSJHW+QFhrTacRojLuihRh7DpObMoNl1HB04nCqsWH+NxS01FMsYIzYVydy+E1m230DE5aOkPM4oRUhjFmAJHlhNNla21i04U2tOp0G64rjtRoao+jvCKWpIG0kCbX0dGdkyAL6GuwZoa+B0u6l4nQtG68O2cxoyRJDbC+FM5KWWvGW5mA61ITiwyhQBMGOyK2SIFlq4sP8cUtdSFlLX9HR0esu7LW+jZdYrmrrjc75WyzpjYRtzYit5NPju/4XddsuVWy6hdfZ6NvfL911S+X5Yy2i80FkoGFxlLjJ/QNkqMuy/G8UdQDQtqp2Lxli8reLyvN4TRLZAR85jB/72JFyZI6gNkwxlshdv+ArFL/hApz6th1HEjJ6kzG6lnsg4WT1Z1tQiMVY6O2b/cu29fZa6MbLzR7z8fMrvkFs/PfYrZ+s3pia8yWrDRbfZrZOW8wu/oGs3f8uk28/p12eKLKDhzYb33smikQWOgJdWYrRG60c60qZY3iP1uMGepkLB9Cs+Cf9R3Ijln6kosGJbH2YzYQe1660yNNzdulOKe6URapqZ6NBZF2jMMTq4eQKf6ypJ52q33xIVtz+xf8bDpliN83E8gujnG+Y6DRRkTii9/5c3bK2jWW4SVD/V3R6j3548MMTGfXy0o3SkfXNilu4/bDW75jy7feaZuH9tpakWwu5ETd4ba11n75+63/vGst09DsHV7X0ClpI350DLt6IwtNX2Jda1bSA6nCM4uf1SVvqSmjMNPIwhy2cw2J4H0+4zhdiniRQgofEZGrqrIqVsZ5J6ywAmdyMdd12J579EH74Q9vs4NHOm1QpPXO46bXmZ11meU2X2650y+28TVn2HDDUjvQ1Wt3//gee+DHd9jg4X1WX+gLQiGvrHK2plad4oyPRxP3mQiNDENDO6F134q8jl6sY9JpKHlSA8qqWvIVCYLGphM1MDTuPX6slv+XIDYOcrBTPMsi+9k6elPA2ooKW56dsI6XnrObv/0t+/4PfmCPPvqY7Ttw0AZGx2ykImOjFepMylgf7ui0LVu32g9vu82+8Z9ft/3PPWlVQ72+4KpQIJGy0uvRmg6RM389IKq4rOeIhjex0qSGjmE0QhRp8ZMFC27ny7ECKwS52QVNk90/rAIeHBdpIxJGRip8HgWvcMt0S4Jseyg6mizO/hTwPE7S1nZ09Nltz7xkt91zr+3Zs8crSJUcZ4Zw0GP74cP26GOP2Tdvusn+79e+ai9sfcauXFZlV65qsDUN1U7QOUEnsWmpDZ92iY23rVYzcXQIMUQ1khxSPqrEBzpG3V8kx+rmrC8CC3E+WVDymjqOkJQRWecj6jDu7x6zTlmuNlmr5oasVauAxe+pkP6teXmLLfneP1im57CTvBAMStrc80qP/fuzh+17O7skn2v84BvO7qirqxMXK21oYEAySK6vz7dgLauptM9ceYq9ZV2zLa+d4SyRBFibMiIJ0/3WG230lHMtx9BgHqHkRtSPYOSH9dH4ePryKm+1mHkNlf1kwqKQHwFRATIxU2Ft6iiul7Va3ph1GXKkZ0yWbNwnaKZA9+c4tsuHzAovfTpdm5fU2VvWNomgkhtDg34y6u7du2379u1+LPCul1+2gwclSfr7bWl1hb1v0xI7f1m9NUsrFUJoB7epgrCGOj6DCaGpxKSpnZcQqQ9BK3X6imqfYPHVd7q/iCQtGiwqUgfQ/KIjl8harRWx2+oyNi692aUOVBebTWVlo9lH7lapO6mnkmYuMOGxsj5rb1jdZB88c6mtb6z2jhlHhnGeNG6crWO6d3VDlV21ttnef1qbrZPs4L7CEU3l+/Yy9818cRKd4G6lhcrKThamv0krfQosdFpn8mTBoiQ1oEDR0m6x29Qc14sY0p3d6kQxOsDsI1PI6G+fKmfihAmTIsBEzpmttfbRc1fYezbKCi+ttxV1VdZUVWmNcm2SGJvb6uxtp7Ta9ae32etXNFiDrhekpfPwiqb4+doPxZWO75B6oBC6U4Rm7Utrfhx6VUvGx+3TOpMnExaVpk5DSB06+7DI/ErnmPUMjVuTrHeTLHl9dtzq2ndYy91fsZpdT/tYdTEg+zg5tFeV5Ae7uuzuvT32cu+QX1sugl8nQl+1psk2NtVIskSVphgLyuaA4Q0XWOd7Pm7DjcttcLRS2jka2cEir22t8gVKdAiLagAWMU4aUuubH3gzMJyzdnWqDshiQ3RIvWxwr6186JtW/9Ijlhnuz99fGEL2ySsRe9x6R8ejDQr6j5WBWO2GKjbBYj0j1hVD6nF1DAc2XGgH3/77dmi82YbGZInlT6sq5YalWasTmVnc5da5TGrHopUfARR05NSBlClrrK1QM52105bJwqlDpfbdugYqrG+iVnpYNxZZxaMOX3SITot0LUN1pzbX2MbmWlsnnd1ak/XVgaHT5rcXCsVlIlcpImetvZc10ayFztpGxf0UEZoJp+psmdBJLHpSx0HBQz62hDExwSEuq5qy1iztW8kbbckOWXN3RZAbf3GQCx1P5cHxnXXLTuj8vXOCcHEhHpbxyZd6mWMOblyjziATKpwhnYlVljKO4qQiNQjkY9iPJnx1c6WtbchZw8SQZXzdqm4IxIq71xrxcPj0iiXCKk71FeO2tnbU1rcyolPpK+28suiWMp+n46QjdRyVFTmryY1aw0CnNe57ySrHOChSjILYkIqtM3Gixd3xQNI/Pt1CB7rmLDM6bHW9R6ytZ6/V2qgvAShb5tlxUpPae5EsAd35fHRmnR8gk0CS3McbgdSE4dZZLo4Jxan7sNkzj5gfLJlyUHwZU3HykRoi4zhOjIMfOVL3uSfMX3UBq9wKBmYFiykEcgeCBwKGW+dCuDc8G0gcnCOEp5tYxafSqdD3ir5eq3jhaavYvjV6HQc9Rra1lJGKxT2kFwgMScJ3yAApOg5FJ5hukQV87nGRuis6DSlU8/xjEfLEduQvxi/Fv4OU24/6lYf/nXxQF8MlPnGQf4RRmjqzsy+OXtjPSan+pl1dQ4v4Ths+8w6cxBpl8ZI6EJiX/gzKImOVeZkQFnmwPzrBlLOm970c/Z0Ve+rlIDV8IFfc8Uf+wpw5lb8hzqfJZ9JIFvOwkoD5Wy5ULBCO/x2WY4ns2lNF6rPNTjktOiWVl53Witx1DUcdK/niBD/JsLhJDaEP749O4Ods6YN7IwvNO8r98EfMoFCpwq+Sq9b9FflrAay74ERSjtzHws+K2Ug0SzZDYl/boTCQRXFMZHVNZB6W30FPEycIzoHtbcsjq716Q3TO9Rp9csRvhniXSb24QLI447m3UySW46hezpnmzGdIjTYd6I3u5T3fbSLC9gd0TTIk/pIhmngOQudVFlQEcivk2LScK5DU4TY+cVSqOsXBW5b8GwYClomkq85Ua6LfjqjDCOobozO0W5bILY0sNt+b2/Sp73X6vUzqRQiSBTlHRUYI6Z8jkRvhbxE+vHOFe/vbze74ioiz76hFhHGNIgmWkTUhQ5Ip8dw61pyLc43vaOKWZZGV7lVli4PtYRe/3Wyl5AYHwHM/Z43wFlysOw65ERzXITQ3lkm9SDEtefo7eQnC7t9hdvPnJFGksYMEgBRLVkVECro8jcmF5OBs/ILUy9eqktGBlVyahB7afLnZm28wO10dxCTcz4THJymR40DNLW5QyFOckkynLOk4JsH1c5wU+s6SVO946Z44whsHuIdH5nIBSJlpfsmx89x1dQzEhfsJPy3O+DMlbXhUhnKlDM8GyBNIGsBXSO0HSCYIQzPvFaEIIuHHZCWJh8N1aXeIHQfXiVcRR5uVUSZ1BPjF27jc+kWXJgHR0iy1W1a55PW5AHnxL5n1kN1JHY+AvrtVprKVUSiKLJFFimARK+WmZImuB1JPIXz+ur+/sJgs1HOMK7t/k57psr5PkjoG7oHQ3vEro1CUSe2APCJ0IG8caZoaPkJoNHBcRsyFIDOmHXOWv54kNWFOyqIyCkWZ1ACCQRxIFSd1nIRTrus76685CD3OzbnAvYx7JysJcFLLzzhCvCB2GQWjTGoH5IGokDpOIF13EorUnlV5Bjup85a6WFZD3rSOJ+EgTeKXg6Uuk7oolEkdAIF89jDR1HMN8iY1cJj0SHBzduhmlzMi6RRSc51wIHXserDUZflRFMqkBvAIUrsVjVlFSBXkR1wuuFXPy49istArg55xORMjqocj/1I1NaQuW+piUESJLHJArJrYC+8BZHf5gSyJkzCQWuQsBvjHM3Qyp4SDf7qGS1YeCB3X82XMiXJuOcQ2iOOklqSYRJ7oSbLFLW5R0HNIFipEPBz8wy/8jJOd7z4iU5YfxaBMaiBOOalrE5aaH7jmllXEgnzA5YdI6Jo6fy2Jadf5Ww6CeoVIkJpwuY4L4B6XKuViKgbl3ArAEtc0iFxxssmlaepJuRC7N8Ctrq7Xt0QEjgP/AqmnhCP/IC7PxUntYSTCLmNOlHPLIbZBRh/9iFlqJ29eO8etJeRz661PiBoHRGxdbrb2tKkEdehmNLKPdMjPcI2wCcv91W/BU+5xUicDKWM2lEkdwPJRCB3IG0gGMZNDcG5BITUVIE44fa9tNFu6zmzVpuie+O/4gYxx6x8jPGHxG5WHihXC8k6i7l/kq4OPN05SUkMSOTYRsHaaxf9sDji8++jOE4jcIAnh5MUih6wS4ZzoWG/kRZy0cvXNZivW+zsTIysb/eSfkJVK48N3+i1cZwyc3yA0YQZSs5+y81AUt+GBKK7EuUzyWXHykBoi4Ngyxd5Edr6wnatLpNm7zezxH5k9cKvZoT0RqbCmK0+NCAh5gz6Gbz6BAmGT2acf65tEaJF6yeqoMkyyOg+XH1QKfssDohMmb8FdqsoQKsuRV8y23m/22G1m+7dHcSXOxB2Ck5aQrjImcRKRmq1dELlbxJVFfvrHZnd/3ex7/5/Zrf+/2SP/a9YhiwhZICM7Xi68Nto7GCxnQBXyAUudyD7uY3/gUhG6dUVE3CmP6g8IG6z/JHSdZwlz4/lmzUt1j34nLodVyR6/3ew7/yeKK3Heco/ZgZ1mg5waOVImdQKLnNRYMZGZrVjte812PWP27E8jUuzcKhIfENGHIssLCVdLB2+6wOyit5pd8V6zU8+NvOGEpL6wIVfk47XNbsFnIHXrSrPGJZEUiVtk/RzJD1UKrDX3Q8gRxYENwvjPy0V50egF10T7E4kTcSM8KiVx3ql0bL0vcjufVtpEfAju8Stjke9RhNRyaFNIycs7B3oikofmO9wTsgESNoiM/lpmke/gLjX/spQ7nor0Nh28N/6s2ZmvN9v9rNm93478BBDvsnebXffhyBp/6+/MXnwsIiyEpjJc99FIb297xOzhH0SEJszzrjI790p1MDdG8eo8mLfE+c3BVIBJp4rBM0wMocGRLXwypj5NEp18OAlIrQ92h+PiScWquSaVg+B+yI1IBOEhL5/s7H5ZxN0nPdsv2YLkQFq85UNmy6Wbn3vA7Cf/HT0Hazmi4A0i/LW/GIWFVHjyrkinExHGwd/2EbMNagHwE8nDhl/ixq71tafLUp8tf5bJ4uteRlKw/DgIjB4Pk0A4ryl86DPofr9+cmPx7yZPIiQXC8guchy7xLtkGemM7ZdW7VQT769jlhXlFXRIBsar0bybLzN7naQBzz+qDtz934lGJrCQkBJSX/6eqKJs+Un0OxWDCsTSUioEVpnhwO1PRNYanc8ZJcTNh/x0H1add5yvOk0SRNa7Td+5Brn5PT78WMYUnJykxvW0R5YYC4xlxlJDTog8qs6XyxMILfI0SR9DMBxNPU3/C5IPj/1I8uLR6F46fueLrJe9S9Lk0ojEe18wu+OrkdSgEmBJ0clXfSCy1lhoZBFDdjjkESevBnmBhIHADPVh5bHcjK60LI/kUZnUqTh5LbUfZsPhNiIR5A1SJJA+yBOa+EAwSMhoBJ2znVukt2XVISXAil798+pkXheRHz/47U6RmpGWXn3HTzqP69QZ3ChSn3KO2RpZd/wNFYnnfO02kkKkDRo6yIsQFx9SLEuNNJx8pJ4R+WzggyyB7IOy4hxX1suRZRxXdigaDjwgHdyja1h1iIfmpeN4qaw0Fhjrih+Q9fmHzJ662+wlSQ384DqWl6n0FRwpJmnB6UxNHB8mhy73U6HUQgTSlslbFMqkBmQBblQShNlFTkHFyqKzGQpslzTg5CTIjUyBZGhaRkcg4IpTIgu99oxIHsSBXy/nh+BeeTHS6gwjYpUBFpchO947joVnZITvdbLoVBYfPpRlxkqXURDKpAZhBIQxYCY1cEzEMHvnksRvisiMFIDQTMowEgKR3TozOpGXC3GQvcgYOoNobGYvGa5Dx3PMWJA8gEchL51ByM36kVWnRuPeWP8yCkKZ1CBkAZ00ZAda2zuKIlyQJZPIkxbyQW5fSSdLGsaH00jtn/KLEY5pfqf47y2BtDP6GUteHukoCmVSB0xmgz4nc2S2rMmTN07iJKHjcP8L9RtA7vynf8zidxlTUCZ1GYsO5TatjEWHkrDUyShGr06eX6RlU7HxmC2r5zNNcxX5icjf44kyqQsEcYjHgzgcC6lxE+okBr8ymcwx+fVqkIwHYVeqIxriMJ9xeS2woEgdMnp0dNQGBgasu7vbenp6/PvQ0JD/ns1mrb6+3hoaGmzJkiXW2NhoNTU1Tg4K5niAOIyPj9vIyIh1dXW5Ix79/f1+jTDXrVtnK1as8LikhUtccWNjY5Np6ejo8M/e3l73B/KQjpaWFmttbfX0NDc3W3V19RSSvRqEPCUefX19npbOzk5PD/Egr8lT0kQ8iAOOdBEP8rXUsCBITRQgEcSl4J955hnbtm2bvfLKK14IkGJ4eHiS1HV1dV4Iy5YtszPOOMPOPvtsO/XUU/0av0OGYgmB3zgKmQLfs2ePPfnkk7Zr1y5rb2+frFz8DhE3b95sV199tV1++eVOgIDgD6SFwM8//7w9++yz7s+RI0cmKwf+QFwqJESG1GvWrLEzzzzTLrroIlu+fLnV1tZOpqdYEAfylHyDxOTpc889Z3v37vU8DunhHohLnhIPCL1+/XrPU9K4cuXKSXIfj0o2HzihpA4EwIrs27fPC//FF1+0n/zkJ14IBw4c8EKBAOFeMpYMJqMpiHPPPdcuu+wye/3rX++FsGnTpknrWWgh4C/WjEKmMhGPp556yn784x/b7t273cJB0tBcQ7RTTjnFPvCBD9iv/uqvOhGDP5AEMuMPJLr//vvt0UcftZdfftkGBwc9rfgTB/6RHiopZLrmmms8Leeff74TPVjuQhDyiXgcOnRoMj3k6RNPPOF5ivEgHtwXQF4RDyrZqlWrvGK94Q1vsHPOOccuvPBCJzu/FxqPEwol7IRABetORMrJiuX++Z//OXfppZfmZAVzyjhyu2Ani5YTsXIf//jHc4888khOlimniuD+zwXu4V6eeeyxx3K/8Ru/kZOlyqkAU8MKTkTLXXvttbmvf/3rk2kR8XOHDx/O/ehHP8rdcMMNOVm5Of1JOpHL0yMy5f7pn/4pp0qeU6WaDGM2hHtkCHIyEh6397znPTnJipwMQWp4MznuF5G9TG655ZacKndOlXLOOCwEnFBSQyaI9LGPfSy3cePGnKyEF2paJs/lqqqqcm1tbbl3vOMdXgiSLTlZq3xoM0MWK7d///7cTTfd5CSVtSyIAJBVliz3L//yL5NpkVzyyqlWI6fWoujKGXekR5Iq9zu/8zs5WXsn6lyECvGQdMr9xV/8RU4W1o3EseYp8aeCnX766blPfepTObVenl8LHRlF9lNKwLxC4XqTThP/j//4j3bXXXe5fqaJP1aoQL1ZRbfS7IoUdtppp3lzOhN4Bnlx2223mchpTz/9tGt4rs8FpM8ll1xib3/7212KEK4so33zm9906YSUIZ3HCuKA9j548KD7jcZGnpCumWSVCG2qoJ6n3//+92379u0ej2MF8Uem0KGkfJCCxAGdTRxmiseJxryTmowio+lA/eu//qupqfaCIPNmAhoanQxBycjZSBeIjX6l4wOx0YFpBQBh7rnnHifiT3/601mJiB9o29BBRcOrVbArrrjC4/Otb33L/vu//9s7l4Q9E9ClpIXOZqhwM6WH61T+kB46w4xQEI8kyD90+3/+5396PHbs2DFnPEgLcaGikO7Z4kFlp4PJfWeddZZX6pny9URj3juKdGCwIDfffLP9zd/8jRca1+Igo+j50zmh08LQWVNTk2ciBUXm0uGBlBAx+Tz3YU3e+ta32l/+5V/a2rVrpxCBJEOCu+++27761a/a9773PbdGSeAPFYPw8U/yxonAJ51THATHMv/pn/6pE5r0JAFp8Ie0rF692p8nfZCFUQjSQsWGvGmWlecJ//d+7/fsfe97n1dUKnoctE533HGHSXb4yA1WNQkqUchTHN/JF+6lc0t+YpH5zrUkNagIdMw/8YlPmLS6j9gk47EgAKnnAypAd3R6vva1r+Ve97rXpWo9rok4/vtv//Zv57773e9650uk82fb29tzjz/+eO4zn/lM7i1vecuMnTGunX322bkvfOEL/jxhB6C1RaTcH//xH+ckHVLjISK5vpa8yH3uc59z7Y9OJw4inmtcPrds2ZL7gz/4g5zkwTQ/gj8bNmzIXX/99bkvfelLuW3btnmnFH9wqqA5ya/cJz/5yZzkjKd9Jn/Q6rLCOVUET0fIU9KjFif3y7/8y6n9Ev5GG8vC5m688Ub3g/TjD3Egb9Hht956a+6jH/2od1KJR1q+yLjk3vSmN+VUgRdsx3FeSU0nBkL+7u/+rmdyMsNkGT3TfuEXfiEnS+49blkNf46Cw9FRgUyyKrmtW7fmfv/3f99JkyR2qBwXXXSRd3AYmQjAP0mO3DXXXJNTMzrlORwEokJ89rOf9cKTFcxJ33rYIR6kh8ryjW98w0dLeCbpD+kh/E9/+tO5F154ISdLnJM8muIPcYFUe/fuzUkH537t137N84Zn436RHkYx/uRP/sTTAwKpiYdavZxalGlExB86rW984xtzapVyO3fu9MoZz1Mc+UNeMxKF0fnZn/1Z72TG/Qr+MSry93//9zm1uAuy4zivmpqO4P/+7//a//zP//hkRBzKLG9ilZkmUrtmpdmnmeY3FdbkJ80gmg59STPKdZpcms04VFgeJmOuNPvoWJHAJcIXv/hFe/jhh31iQvmQfyJqYi+++GKT1fO4qMK49BFpPZwQB/xGt9LJvfPOO72TFgf3qbWxX/mVX/GmGn/Qr/gf0hLuw2/itnTpUu8Q0qSTHqRWPG7EnXAZu2b8mPv4nfFnOruMh/N7AOGQR6RfrZ69+c1v9mfT8pRPpAhpRVIhl5BoL730kocbQHiEwTNIEaQdaVpImJeR9FAwEIzJAFkL/zsOtCoFdcMNN/ioAhlLZoVMx4HwnetoRDKWEQhJESd6uA9QGIwgUOhoTuJBQaFdmeRBm8cLDD+pJLJq9q53vcuJiJ+QJ8QjAH/omOF3Un9yP7r5537u5+xnfuZnbOPGjR5Xrof4g/Adv0krzzDRQR6ESaQ4CBNjQP4F7U24arE8X+OEBoRJ2D//8z/vs5+kLS1PQTwe3MfEC/lKPKh0cRAO/Qg0OHGKp30hYN6mhyAPPWg6RHzGQYYyNUvG0/kKHZB4picRCgXSURmuu+46t8bxAggkZqhOTbRfg4CQEWJTyeLg2QsuuMCuvPJKL0wKeKY4YEUZDoRMyUKFjIwQMDoSSDFbWgJIM2mnUhMH0sO1AMKhlWHanhYG0EJQQUlTvIIC/CI97373uyeNRCHxCMSmtWR2E4MTB+FgJOjg0sE+KUlNoqndNGXUbogVB5mIxcU60uzNReg4uA8Lx/QyzT1NaxyEG6xyIAWjFEiVpGWjgtBEs54DKzcbeJ5CpXIkQZN/1VVXuZzCHyxgoSDt5AFWnoqRtJJURCoooxShJeI78YiTi3xBGiClgoUuNE8B4TL+/v73v9/zN165AEOntBosb0jm44nGvFlqLCZWDXIlAZmwJGR+MvMKAQXG8NR5553n2jReeBQ8JMCiYNVotmeaHMEiQURIORcgNS6ppQkbUl566aXuXzFECqASQCjyJFm5SA+WmlYipI2KSv7GQT7SJ6GlwI9i48H9PIcfpIc8TgLdT8UmHgsJ82qpqdUUQBJkHmTEypKZx1IAPEulSCtArBskpoXgO00nZExaNjpKSIe0yY0ksFRIkDQrRVyQU/hTbFoAz5AfoWMZR7DOwTIzzp3U9ABS0+nDyuJfsfHgfvwgDqFfkQQykoqdDPtEY94sNQmnMJKWDYQOyrFYaRAKgMwPnaA4CBsyY80gBWRMsy74UWg8eH4mC0UcjsU6xoEfaWkB5GEgckhTEiFP0yxsoSBs/CE/0uJB2AtNeoB5IzWZguVKIwyFQubMRJK5QOHybChoXBLhetwlQRyDmwuBMDMVNhb0WAucuOFHGmHj8SdsKs9MeUp+hGFBXLHgGeJAJUorG4xIsg+zEDAvpCbzqfGMkSZ70iAuD461APADfZnWFL8WoFlGIqQRCiLROT2WuIT7qRRItbSWDYQ8ZYQjyLY4qFDIgzCUWSx4BkLTF6GFTaugjKvTlyEeCwnzFhusGrtUyIQkIDQakQ7QsRQAmU8Bshg+rQP4WoB0oFeT+puw0ZkskDrW4S7Sw/g3u1SoGDOBCkXHFmIn44Ef9GFYOIb+LzYe3E+lYp0Ow4dplYsFVoywpFXsE4l5s9SB1BRCcpiKAmACgZlGLFSxMiQQ+vHHH3dSzwew0rQ87FVMgvjcd999bq0hdjHpIS+o3N/5znfshRde8L9nA/IDcjGmnbTWjEw89thjPtozW+VIA60No1Xf+MY3ps26AlpcOsPMgJ6Uljo0lTRXZH5yyIwMY/KA6eYHHnjAM7FQPQqJKTSmiRlimqm5Pt5AT0ImhhGThQqBSA/EpLIWaikhMERkLfQjjzzi5J6rQhA2W7/SVu5Rocgb4sEQIPEoBMSfOQW2sz344INO8DgIE0JjoJBhycp0ojGvVQyrgrWGDElgoZn5u+mmm5zYFC4ETSMD1yhstB4bDX7wgx/4MtLQKZoP0PIwjc66Cgo2TmziAIFY0vrd737X4wjBqKjJ+PE3DiJBPCr21772tTnXmAdAKCoWk0/kbxw8jwS55ZZbPI/CpoG0ikIcuE68aSFY5/7DH/7Q+ylJA0NLy8wvLRX5sNAwrwuagsWGsFu2bJmWWWQ4TR6zjoyxMugfyBIynYIi49GtNO9sNMASzTYJgB9Mo7OuAp1IYUEaOpcBxI2WhLUazOTFSZoG7qdwiQsLo6iUSRKSHjbfEmZY0x2sGukh/VRcCM+sIBaa9KCn8Zd7kiBeWMgwnY9/tHykJ8yUxp8jTlzjNyRT6AfwXMhT4kGlIh60MGw0+K//+q/UMqI1wI8//MM/9Blc/AxpWiiYd1JDVCxsmDJPgkLgOgULWZiK5RpWGFmCtWFl3L/927/ZV77yFW+mmaVMEiqO14LUgAJGhlDIkAZixwnFd8JAFtH6oG8hGIQlD4gD6fyP//gP+/d//3dfwQip4vFKIk5qFl6BEA/ASr1kXkBcSEsFIx5IIvKTcIgzYdKxJT+/9KUv+c5zLHxaPNDQb3vb23zRFfEg7IVG6nnb+RKCoeZjjWkSP/vZz3ohJwuBTMIK0hlhqpjMC1POEAJyQwieJeOT1iQJMv4zn/mMffjDH/bnPv7xjzvBsEwhXviNNGI3znvf+96CmlWehRxUvE9/+tNe2fA/maWEj3XEojLrSSVgGA6yEQeeYfQHyz5XnwC/ODrhF3/xF+2P/uiP8lejaXsq+Oc+9zknLn8nW65AfkZLkA58ks/kIZ1bWjvyljwmT+PpIH8wSGxfI1zkB2VSSOWfdyji8wplli+KlxX2BfHsPFGBk3vTnDLSd3bzu0jgTrrRNwTwW9ozaQ4//u7v/s4X00u3++YAFdAUP/jOMQuSMr6AvlCoQvoOEnbocCyCSDtj3EQAjztpCOkhbcQv7f40x73sEv/bv/3bfAwiEA9JmJysvu+KV6szbaNBcFwXmafkKX/PdD/pYfMG/n7+858v6giKE4F5r2bUbHQYPfYbb7zR9xHScUzrRSt+bjGwJFgPHM0olp3fkuD5pB8B4fps9xwLSA9xV4H7yro3velNM66Kw3ISd9IQ0jNTS1NsPLHCLD5iDTTxYPkqUiGtxSEetAjxPOXvpGUH+EsLw2o/Nk28853v9L+5fjzz8XjihLQdZAZNF00Ym0lp7llNxrVjySyIRc+fzKaZ5+848JPC5ZPfZJ38exyESVNcbPjcG4jNDhcqKmuQkUyEk4zLXMA/4kBTX+zzpJF+wS/90i/57iEW+kN00lVsnnI/eYpUYoSHk6g4kYrVg/xWrH/ziRNy7kcAGUMhsJYajUfnCS2IFQ5uNlDgkJjZPSw/loQhKPwJOp17IBi/0VvHMjJTx7AVnUbCCAXI77Qc7BYpttC4H/IwDs8QG2RiihpLiAWcKz08DylpxbD0dMaIOx054hwQ0hPvKCZBnjDcSB+Bik56Q+uWZo3jCOlg9Il8YKPDJz/5Sa8glBW/F5s3840TRuqQOVglrBwFCblZoM93CiAUJplMgfOJo9AgIcSBhB/84Ad9yxJNPxnPaAgdn1A4dKoY/QiygA4SIwBhtAIiYYF+8zd/01sPnimm4OIFTZgQCVLRoaOy4T+dQGQG4cfTgiMtVEya+Ouvv94+8pGP+C4gRiWS53fMReoQl1DZISb+Eg+eRWpA7GQ8Qp7yDATGKod8YzSIPCm2FTtRWBCnngIyGmtC4TPcx5oFLAzkDIQgqhQMBUBFYGSESQcOaKSgyXSIcO+99/rz6EQIjLWhUGnSCQdLfuutt/rUOv5TmOh6rDmWFv8LRcg+PsP3QCysNNaa0R6G0/hO2HEdDaFIC808BCQ9fBL3P//zP/fJKFqfAIgIoSEcFnQ2EB/SSzwYJmXcmbxlpjLEg9/jeQqpyU/yiyUAjJbweymQOWDBkDoJCh2rgkSgAChkokoGozXR3zgKOWQ4v+O4n6EyCg0i47gvgHsoaIbR8B9iUUGCpi8UITwqI4TFL8KhIkHSQO5QYfmdeBE2f/MbZCLcuIbGT4bWOCCHSZD4biH8Z+8gw5O/9Vu/lb9aGIgHeUIcQjwIizCp2MQDi8x3rpUqFiypSwGQhIqHFeR0JKwg1o5JHvYohkpSrJXDXyZs/uzP/szH8yFgAJUAaYJUQqqUMR2lWx0XACA02pxuyV//9V/b5z//efuHf/gH//vLX/5yQQuS0sAzSAWmzgkjDioJfYm09TNlRCiT+lWAkRp0OavZmFbmb6QCGhotzNoUpFAxxEaWIIs4cDJt6SnSIMyylpGOMqlfBdCkWGP0NJo/ACJD9kBMdGwhKg/y0ylkbQrrXvgerxDIGEZWsNTo9jLSUSb1qwCdNjp38c4qgMAQm5NdWXkHwekkhhGcOPgbB/EZ7eFoYRY4IT3iFQWgpxleY/w5LGAqYzpO6ORLqQMyIjlYQERnLgzTBUBkVhVi0eNDhTyHBeZ+iEsFQL6w0YFVcviXXBtOpWFEhTP+mApn6K2MdJRHP14FICQL+7HInN6PdU3q5zBcyM4URkVYk8GSAGQEzyNd2IaGw6KnHQwJoWkROC+QFYacIlW21DOjTOpXAQjMxBDW+K/+6q980gcdnMxS5AkkxLqyyAg9TIcvPA+x0eZY+zT9zYwklYLDzplBZcNBKY8jv9Yok/pVAgmBfGD7E9uweMUcIyBp2YrFZUgOFyZZggxJShfA/VQGNDQr7z70oQ/53kCsdhkzo0zqV4lATCwu28oY8WCzKjOCaUQtFJAeQjNljYbmnGvGpiF0vFNaxnSUSX0cQBbiIPbtt9/uEy9sq8Jio5uLzWIIzbQ5JMZCs86DBVfHMjt5MqJM6uOAkIV8hhEPdm8jR8JeP6x2shMZR5Am6G+m2ll6yspDVi3S0aTDGe4rY3aUSX0cQVbiGL1gvx9HIzDdzX5IvtMhhNjxLIekONaJnH766b5YiaWirMlmtR6dy7KFLg5lUr9GIFvpQDLMx0Inpsyx2qzhRqaEVXqMgrAyjlER5AYamiG/sLKwTObiUSb1PIAsRluHtSFh6A7CMlyHNWZihY5heaju1aNM6nlCPJvj3+OWuGyVjw/KZuEEAPIGV8bxR9lSl7HoULbUZSw6lEldxqJDmdRlLDqUSV3GokOZ1GUsMpj9P9Np94gersCzAAAAAElFTkSuQmCC;" parent="1" vertex="1">
          <mxGeometry x="877" y="698.5" width="62.84" height="67" as="geometry" />
        </mxCell>
        <mxCell id="P5fyJ_uZ24H15enQcCNX-150" value="Dev" style="sketch=0;outlineConnect=0;fontColor=#232F3E;gradientColor=none;fillColor=#232F3D;strokeColor=none;dashed=0;verticalLabelPosition=bottom;verticalAlign=top;align=center;html=1;fontSize=12;fontStyle=0;aspect=fixed;pointerEvents=1;shape=mxgraph.aws4.user;" parent="1" vertex="1">
          <mxGeometry x="757" y="555" width="48" height="48" as="geometry" />
        </mxCell>
        <mxCell id="P5fyJ_uZ24H15enQcCNX-151" value="Github Action" style="shape=image;verticalLabelPosition=bottom;labelBackgroundColor=none;verticalAlign=top;aspect=fixed;imageAspect=0;image=data:image/png,iVBORw0KGgoAAAANSUhEUgAAAI4AAACcCAYAAACp45OYAAAAAXNSR0IArs4c6QAAAARnQU1BAACxjwv8YQUAAAAJcEhZcwAAEnQAABJ0Ad5mH3gAAACBaVRYdFNuaXBNZXRhZGF0YQAAAAAAeyJjbGlwUG9pbnRzIjpbeyJ4IjotNzEzLjIwNSwieSI6LTMxMH0seyJ4IjotNTY3LjIwNSwieSI6LTMxMH0seyJ4IjotNTY3LjIwNSwieSI6LTE1NH0seyJ4IjotNzEzLjIwNSwieSI6LTE1NH1dfXBM36IAACnoSURBVHhe7Z0HeJTnle8PojchIUAFgegC0Yvp1fSODQYX3FKceNdJdtf3ZrPZTTa7yd3s9frx3uz6JvZ64+BujG06ppneOwiQQKKDqKJIohfv+zuacYSY75tvyqfG/J9nHomRxMx83/895X/Oe95K3xhIBBEEiCjP1wgiCAgR4kQQFCLEiSAoRIgTQVCIECeCoBAhTgRBIUKcCIJChDgRBIUIcSIIChHiRBAUIsSJIChEiBNBUIgQJ4Kg8NBXx69dvyH5V6/K1avX5dqNG3Lz5k25dfuO3LlzR+7du6e/ExUVJZUrV5Zq1apKjerVpVbNGlK3dm2pW6eW/vthRIUnDgS4cPGy5F66LBcvX5HLeflyxTzyCq5KwdVrcvVaIWFu3LgpN2/dltt3bpu/uSt3794V76WpVKmSVDbkqVKlilStWsWQpZrUrFFDCVSndi1DoDpSL7qOxEZHS/2YetKgfozUj62n5OJvKyIqFHG42VfyC5QYfM0zj0tX8uTk6TOSc+a8nDl/Qc5duCjnL16U3IuFJLp565bnrwMHpIA8kKVhXH1p1KC+JDZqKEnxDaVxYrz5voHUq1u3kFT1oiW6bh2pashXEchU7onDjb9lLAVf840V2XsgW/ZmZsm+g4ckI+uQHD1xyliRu57fLjlUMa6toSFSu1YtpGPb1tIpLVXap7aUhvVjpbqxWNWrVVMS4QbLI8o9cbbt3iubdqTLll17ZE/GQbl0OU9umxjl9l3ilEKXU1qAFFWqVFaC4Oai69SWzu3aSK9unaVvjy6S2rKZWqHyiHJHnPO5F+XA4aOyY0+GbE/fpy7owqVLSpi8ggIlS1kFRKpniBIbEy1xMTHSrElj6daxnXTvlCbt27QysVJtz2+WfZQL4uCGso8elwOHjsp+44Iysw/LoaMn5NCxExrQllejiQVKSU6Sls2aGuK0lDTzaNe6hTRvmixRJg4qy7FQmSYOWVDO2fNy7OQp2bhtt3FHe+WgsTY8X9FAgE0shAvr2bWjNElKkMYJ8Zq9RUWVPQKVOeKgnVw3qfF1kyJv2rFHFi5fLSs2bJEz5y6E1bKQXkdVjtL4g++LorKJS3ju3r1v5A4xUpHX5TvVeMxzuEWv1hMukO4nxTeS8cMHycSRQ6WFsT5lUS8qc8QhM1q8ar18+dVy2bP/gFy4eEndUThvkDfjIX1u3TxFU+iiSGmcKHH1Y0xaXyCHj5+8j7C4zSPmuYKr1/VnZ02KH25A2uqGKLy/of16yWOjh8nA3t09Py0bKDPEOXn6rGw1GdLK9Ztl2579csr8GxLpig8SpLwNTPrbIiVZWppHcmKCJCU0knhzQ/gZDwQ80uOiQJupVrWqpvHXrl03VubPlwgCozZjba5ev66aEYE57vP0ufOa/h86dlJOnD6jomIogOAN4mKV3D27dJQRg/pIh9TWZSKILlXi6E0wLmlneoas3bJd4xj0l1yTJQXzriob10O20qp5U81YkhPjJaFRA0loyCNO4mJjTSwRLfWi63r+InTcun1bFWgeiI3nLuTKmfO5clpjsxxDpgtyMueM5BhSIUgGAwjO5+jSPlWG9O0pfbp3MQF041J1X6VGnGtmtZ46c061l69WrJUN23ap1QkU1I9QZzHrEKW5IUzXDu2kgwk0cTmlpZPcuIlLO2Hc2SmTDR6RrMPH5KghUs7Zc2ZhXFFLFow17ZTWRoYP6CODevcwGVhL/dylkX2VOHF4OYJfUusFy1bKjFlzjZnPC0io40IR1NY0LqWJIUvHdm1kcJ9H5FETDzQ0pr0sqrEslCOGRAtMsL95Z7ocOnpcLly6rO7stgm2AwG1su6d2sv0x8fJqCH9VRuiCFuSBCpx4hDoLl65Tj6evUDWbN4u1028QIYSCNA/WG1kHsMH9pXE+IZS3cQk1YxJJ3Uti/oHlxkLc9NYItwbetTX6zbLstXrJf1A9n0BuBMQg+F+x5lr8INnp6kehPZTUigx4lBPwueTLZFeZ2Yd1pggEDQzF6dPjy7SzzzatWkpiSZ2ITsiBihvIPA/bzLGE6dOy869mYZEmyQ9MysgjYpyRqMGcar9TBwxRGMfXFdJoESIA0FIrb9ctFzWbdtpLpbJOG46yzhwSZBjYK/u0s3ELp1NgEiWQbZUEYD1OWsCaGK9nfsyDYkyZG9mtmZoTkHlvUv7tibr6isjB/dT7cdtd+06cagtbd29T2YbS4O1oQDpBGRIjeLipFWzJtKtU5pMHjNcCVO7Vk3Pb1Q8IHJCnNUbt8rWPfvkoAmoycSc3CLcVNvWLfQ6YX2amsSgRg33si5XiUNn3bLVG+WjLxfIsrUbPc/ag/ikusmU4o0bGtq/lzxuLgTW5mECqf2WXeny+/c+ld3GUl++4rxvKC42xgTN4+Xpx8aofuWWG3eVOH/89EuZOXexWUX7NSh2Amozvbt1kr984SmTVrfVdLo8xjChgFIHnYjnL1yUJas3yBcLl8q6rTs9P7UHCw8B84lxI+W5KROkR+f2np+EF5V/ZeD5Pmy4bGKadz+dLbPmL5F9B7M1/fYHajRtWqTI1PEj5fvPTJFO7VIlxvhuYpyHDdx8VONaNWtK44RG0sq4aGSGzENHlVD+ljrhAG6PNhNIhLYVboSdOCdyzsj8ZavkQ+OeaH+gp9cfCO4G9uphVskI1SVoduIDl2R6WRZBgEt5gUyJVlTIQ42MjIyg2g4F165pn/XV6ze097lp4wQlZLgQVuKcOnNWlq3ZKDNmztYWTn8fjlWVEN/QkKabPDlpjIwdOlCDurIo4JUmUMchTZf27fTaYMFptqdmZgdN+Y27w/KkNE4ybr+2sexVPT8NDWEjDoHwvCUrZcZnczWg8xc6oUHEI2ANGyQvPztNe1AqcsYUKrAWiH50DGKh8/LztWTjL3bE8lArw/q0MS4P98+CDRVhI86HXyyQj+cslD0ZBzS484eWKU3luakT5RUTBCcnJWgsE05TWpFBTa61iQdx52Rf/hYplp9uSar9qOzswggVIRMHS7Ng2Wr5aPZC3V1Acc8fUDqJ+CeMGKyVa1ZAhDTOgbWm7IJkUdsE0MdOnlbLYgfKHYW9Q5W0g4BqeygIiTgowtt275N3Pv5cdu3LVJ/qD326d9ZUEYUTvxshTHAgVmG/Ft2CuHhiHqrudg1v3tYPLnlTc+1pLwn2+gdNHAKz9IyDmj0tXb3Bb6CGf6YR+/kpE1UaJwiOIDSw5YZaVctmTbRQTO2LXat2rotaGJsVIVuqcXeECMEkI0GlL7yxEzmnlTAz5y32mz2h0aQkJ8orLz6t1VwasSMIH2h9fXLCaG2zIOHwhwPZR+S9WXNN5pvld8FbISji0Da5Yv0Wmbd0pecZe7Cb8W9eel4zqPqxMZ5nIwgn2II8bEBv+d5Tk/1mTcQ7VOVff+s9bSwLBkG5qvnLVsrsRctVq/HXgEUgPH3yOBk1uL+mkcV3FEQQHtCHRLkGvYfipr+AGfKQotf0NMUH2m0Q0F1EM9ifdcgQZ7VqNf4Kb21bNZfRQ/qbldBHTWhE2HMXNQ1haKnAbQ0b2FsDZysQRNNoP3/5alm7eYfJuHI9P3EGx3ey8IXyVOTbtGO3BmJWgCBYlzFDB8pQQ5pIIFxyoIGdfmsy115dO/rtuc7IOqxNZGTFxK7+NCEvHBMHmfvwsZMq8lFAswLZXR0Tsfc1afdU8+Y7pLby/CSCkgS7IcYOG6jX31/KzcbHlRu2aLruFI6Jw+azj2YvMKTJtW2uhvGpLZvLL//mZTWbEZQe6MeeNGqoKsx2QNthl8msBUtsdaCicNSPg/8jIH7t93+Ssxdybc1Zp3Zt5OXnpukbDmXfMytg9cZtOgypkckYAHulSOXZlE9nYEUA24kvXcmX/QezJevIMb3WdP2xqY9+pHHDB0vntFTPbwcGEhdc0adzv5I3Z3xiSwq8RPfO7eWNX/5UmjRO8Ltny1FWtXXXXpm7dIVs27PP84xvcFNHDuor0yaM0hgnlGAYfYj2jO179qu14wIcOnZcg3OEx30mozuXe1FTTz4kAmN5AgXKrbvSdccH+8rY8bB+207ZkZ6hTeu7Mw6oGswUC5KMYMD1p6cHhZipZGRRbBrwBeYe0gfOfWvVrKnucLWDX+LwYuwF+mrFOi3PW4HSP3ubJo8ZptOngpWysWakijNmztGAjYvHCuTB7kiKdTR2s12YSRaooAXa8/ONftiS3l8UCGiwogkdGWOVsajzlq6SuUtWmO+3qrUhdsRteNNoslY2FzLJK9iGNu4LdS2CZGqJ7GGz8hhYJMoWvCbpOcKtFfwSZ/3Wnfrh6MC3A/t6po0frem33Qv6w9279+TS5Ssy47M5ammsgAhJ0xi+mXoZxNKxIMb6IMU7sXYo3vw/fGU6BjfK9mF+j5uPvK/6leGnk9fhb7ztDQxU+M93P9bGfQiUbxOQsgeLeDG1RTO1BMECi0y5B4/Bnnw+qy9wLSA224vZZ8/oFSv4jXF+/q+/k9mLv9YXtMPf//glmTJ2uLRIaRLSiqfa/vXazfIv//FfknnoiOdZe3Dz6EumXeDpx8bKU5PGaOuBP7ApjsIsE72yj57wPGsNVn2MMftc2KhKUdI0OfGBSRe+oLtWjdUm+IQ8ZKjENk4S30mjHpXvPPm4WvNQscEYgTfeeV9LRXagN+rVHzxvjMAAzzMPwpI4+Dtcwj++/v/VLVj5RthMQ/TPf/R93ZaKCBUKMNUfz1kkb3/wmU5+CATcWFosHzHvh0Jqvx5dtcOQHmhIwnYTuhQxx0jtWCl6VG4Za8LkCX+ALFWrFPYCozvUqlld963HmpVZ31gEdhWwcFqaB2osrpT5Puu27NDYLMdB41Vx8Fmef2KiPGceoYLP+18fzpIPvlygo1qsQLvqD5+dKs9OHq8JiS9YEocqKtszuImsEivgC7E2aAb01oQK9mG9/tYMtXJ2epEdsAqMRevYto2OjCUzw61xI/lcWJlAdkzaAbLWNrEVWQnqONeArxCKRbDduIcjZgEEopEURRvjpp6bMl5+/N3pnmdCA+Lte5/N1f4pOwzt31tenDZJJowY4nnmfvgkDqsi2wRrP/7Fb3XsCBvmfYF0u2O71vLOa7/SlR6OzIYA+G//zxuyevM2nTsTCtifhXXgBpZXMFRh+uQJ8nc/+p7nmdAAgYlZf/O7tzWzswLlimkTRxmX9YLUNQujePjhM7LDtBMMY16tSAPYuoHIRDdZuNJhAk9K/fdMkBwqWADlmTSArPJKfr7nX6GDzJOSBK7cLrDHlSN74N59OSWff0lkTYpot12XYJQtp1NM+l3eNJTyBCVOXviIAxjeMMIseH/i7Imcs7J283ZnxCE1PZ5zWtYYV2FXWkC57dWlo7ooJylpBMGBNJxtveEEMRmb/Ab36albZqxAJr3OEIcZPsVV5wfuODFGZtYRlb4t4mZF+9RW0rt7J82qyqrgVhFQeMhIeGf+obYTwKPwN4i17sMh0ySwJ7su3in4AHFQZlEY7UiDEpnWuqV29oUbmE9WAQpwBIUBPhO4wg2yQCaYUfezKoLCAZR5uj35WhT3EQdzdNgQh6DYDqSINEi7MV+PeIk9Q5HNeYXgOvirGwUD1HW6BdHg7ETMq9euadhyOS/vvslp9xEHfSPrSOGoezugLLrVMoGA2Ld7F51rF4GooMhCdQtd0lJtN+jhoijpEMJwCJwX9xGHwzVQVqkX+QKxDGaN6U9OJP1gQLZGkbROmP16eUVLs0CZ4uEWenXrpIEyxVArkCSh53HWlxf3EScz+4gyywq4kbYmrmFsBqfCuQFIyzT123623DwsYA60k4kfwQLlnwyZArEdaGMp2pd8H3EOHjqq8rwVmED+SOcOOu2bbajhBmQ5bV6fcsP5XOue5ocJezKytLUTxdcuYQkFnF7jz6rRD8Xwby+UOLwhbhpdZ9SKrECE3zmtjc5bcQN0wm3avlsLcbjMCES27EzX/WsUaWnlcIM8FGWZr2gHjn06a1wVrRdAiYNCTCM6pLEbGkCvS+/unbWI6AbI5v7w3qdy8dIVyzjrYQN9QBvMYvr3d97XQ0mc9gQHAojjz+IwCZ4uwjOeaahKHNRiel/ohbECxUKatWjuIZULN1hRHABC7wodgBH8Gfn5BRqczl++SnLDVNUvCsIOYh0IZAXsHN0Fpzw7PwstjomaKWbBKiswGYG0kKwn2AZ0K9DrQ1/zyg1bHfXFPGy4a6wM3oCuQZIXNxYWBoHeZrsqAG0u3uTJ46pMfGN8GPPirMB/zAEU4ZjmVBw0OG1P3+9XeHyYgZ7CGRCo+rTWhhvUw/wRx3syDvjW4tDfa9WLCuIMcbqktdXB1eEGJ/hywopVl2EEhQkM5158bdy5kzbXQKEWpyXE8TzhA2S63u1RygIiZTap242VZSM7aXglFyrhnLXJySoR+AdZ59GT4b9WcbH1JBWLQwe+BTjt5oJxmcQ7UZTM2Z+EtbGL2KmCU9sI5whZfDViHyso9/Jlz7MR2AH19rhZ5OHWuWiNoSqAuIvs4gvwI7/gmpw3Vifq+s2bqgjaBVyk3xxxE+4WitvGNRGUFyrFgZ3Z9LCCDJj+aVLjcIP4lezKLmsmeYG8anGI2L+xmRSKGWNkWLjBPiXScDcl9YoIThI8fuq051/hA4RJSmho29FJnMW4uCgEJnZr3vvG3k250eZANkcbB/WYCJwDEc6u0TxYEMe2b9vasj8H4KHQkpQ47Cawk7LjjPkKdbypL3gVa1gcgXPQhB/qCcO+ULVyFT08zm76OrtLmZMUxWZzurvsiEPg5EZfMa9IbOVG/aUiAwU3mINv/cE77d5unzqSCQFyFFtRCyuvnp/4QFUTNFVzocxA0Y6MjoAvAucgA3ZDYcc40EhnZyTQ/IhJlTi8CbtVX7t2TVfaRNGPWD2BbouNoPQAcSBuFFVoWgKLnuZfHGzRQMMJN74xAfl1Q1o3Kr4RBIdKlaJsJMBCL0FcHEUB7eatO4UBRwQPNShekz1H2ZSV4AtxcdTu3bsdj9wIN9gCQxkj2KFBEYQX1apW000IdkdZItruSU+XqNxc+413bgLixDeIs22UjuBBsEHPjV0gFAUYimVXViKsuHTxokQ1aBj62UXBgug9uk4dV1o1KjIgTSgTuqyANEINjADYCrgxOBPVoUOHsNafAgGvCsMrhbkxrKIDJT/UAVa+gCB7/FSObZZbzbixjoYzhkBR6ipK49ahULLhrFYN+zm8EdwPpBEmiZYGlC+4MxqzYK+d1SkcZerswPRAgFKJxG0XjEXwINi7X1rEoRCqImGVylW0Ed3O5DCfJVyjz4qCbIoBjJjeCJyDhMLJ0MpAQeCLgUBfswL3DL5EEWOwqd3O4jBHuPi0gnCA8n1qy2ZSq1bEVQWChPgGkpxofTJMsCA4PkdwbDyMFQhr2FenxGEHgx1x0HncaLTiTTDHt369epHMyiG4Tg3rx2rDVbhBzZBJrzduWYcldAeS1UURX3Dj7HL302fPBTw6NhAwgJLJXhH4R3JSvFaw3XDvuKqCq1dt5y/yurEx0RLF0J4G9WOMxbGWma/fuGU7RDJUMFbWrekXFQ3s3ecEXzckFFom2DRgZ3GYNBtn+BLFtl6CLbtNdky9ZKi0W+jYtrU0a5IUKT04QLeOaa4tMh1TfPT4fXNwioPuQE7ziYJBdPfZxRj0X6AoMvrVjUo2J+hxYgl1qwh8gzQYwjBCDw8RbtDigpuizcWqP4oSEeUONu9F0WfKCbJ1ate0PWj1Sn6eZGYd1upouMF7YO5O5DQ9a6DdjHl0oJ4jwWIPN+j7ZhoFRuKexcYFKuccPQB5lCm4CGb217RpUi4ouCbHTua4YnEAvntQ79APuqioiKlXV0fzu7HbBHDOg+6csCl4k801bFB46FwhcUxKznAdu+72y3n5kpFtLI5L40co2nXvlKYHwLoxtKk8Axc1fEAfXdxuTCAFCLxsw7Zr6ONgE+95HR7iVJU2zVOkNgqyBS4Z4uw/CHHcGUECeYlzJo18VJITOBciEigD0l9G6HMYhzZZ2YQToQDiMMrPrsUm3pAm0TNoUt8FN4kYg4nbVmBs6VHjqrA8CIJugI1/fbp31nMGiLvCPU6lvIFglAPKHu3XU8fKukUaguFz53OFiSV2rVlMJ23sOcv8W4vDiAsCMCt9ABeFH2TwkVs7L8kcqMF8/5kn9OwrCnkuyBXlAtwHVvdjo4eqtSEgdkO7AZev5MuJ02fktM0xT4QPEOc+i0MqzpP4Uo6YsQIi4LI1G3Xnp1vQeCulifz05e/IqMH9pfpDWADF0lI/fPWl52XymOES3yD8myGLgn3oDDKwQ9OkRD2KqJZnR68SByZjFts0b6Z+zAps/9ywbafGO26B9wK7WzVvarKICfL0pLFaxn9YwH1ISW4sv3r1L+TR/r20vODGTKKiYKIo54PaAY9EcOwtTd33jtq2bm47ZVu37B4/qfuWiXncBBkeE8Cmjh8pL0ydpLN4GZdbkYE+0qtrR3npmSkyduggPQ/M7SOd2IxJ+IFibIe0Nq2UxF7cR5x2rVtKclKCZRBGxM3Yfg7AQmF0G5Tvkdi/by7kUxPHFJ6x2aiBrVBZHkFsRyfksP69Zfrj44yVHaNHQrpNGoB2c+TEScsD4fAASAAcYd0ozoI4rY17QJm0i3MAR0rDUiuFMZzgTZOm/++/+I78rx++oHFPk8aJWtovz60YGHzaSpDv+XycXPyzV74n0yeP18Nh3QqEi4MzQ+1OeEYcTjKxL3OQqYp78cDSZV8NB6HagZP4OUXWrhjmBjh85Bd/9QN58zc/l+enTtQWg/K6taYaq9iY/1defEo+fvP/ysvPTvU7pNoNrNiwxXamINrRwJ7dNeMuigcOc925N0M+/HK+vPPRF55nHgSugtjju09N1pvpD0z84gSSrbvTvxUQ65uV1iG1tYpb6DdOzTJ/zwROhkExAZPAjvcMmSmJMJHTfTsYHFTMS22ljx5dOqhG4z01GHcVzjF5/sA15HyGV//5Nb12VhWBJiZ0+fVPf6Tnnhc9wP4B4qAgMgL+F//2puTl51sKQu2NVXrG+ONXXnza84w1so4c18PaZ81f/O1k0TomfuFNNWmcII+Yi9inW2c9dCtQMEIVYZLxZugQx833zOIlBmPYYX5BgeRevFyiZEJSYL8YCwJXRKZK0sFDP7N5NG+SrH0tpQXO7Hjr/Zl6PLjVMd1ks107tJO3X/tHSWzY8D7r7vP46PVbdsg//fsf1EpYzQYk66Gu9Juf/ljnA9qpmsxyWbJ6vXzw+XyN3rXLrEh8RIFz3PBBMnxgHx2ZSkoajI/XQ0TMRaBbkSMBIRALgec42fj8xUvG+l0Ie28R8oHXcrAqY6Kj9SuBPEEubSMsCrKksoAbJsTYm5ktP/nlb/V+WE2bbZKYIONHDNZ7XLx+WPlXBp7vv4XOQDFp2tbde7VPwxf4ncpR9L/G6M22K0yyD4gAkID2Ul6eZmY0DXk5y1HFmE0G9nDWp/ec60DJA+FQmzk6gDO1+vfspsdbPz56mDaL0SbL/DpeL5yg67+3sZhkRC9Nf0KeNQEuZZO+PbpIx3ZtlDjFY4TSBAtp1cYt8uk84wFsZhORSU0dN1LPeSh+L3yaCWR/xCd/HXlHTRo3a8FS2xf3ok6tWjJp1KPyb//wql5grFRRcEMXrVgj//TGH1SZDncxlZuL5aMCHG6wyJau3qDu8fZtd4rA4US2CR3mLF5h2yLDIqQaP6B3D58L2KfFQamkBxkZmuYeq4nruDFIE1MvWmsYdmdH8uIEgETpmMA6dWrJIRPN55uL7gXz5fJMTIIbIwZg90W48MdPvpAlqzaoP/fhnUMGDW7nLlwy1sWkrs1SbC1waQJru2LdJpmzZIXOubFCZ2MpaRwj+fFl/X0Sh18iZoF1u/Zm6hxiX+AGeGcI4gqoaPu7YGgvzE2m/ZEs4+iJHPWxXHgOC2UoItkSSjFNS6F2u+HP95vMa8bMObLvYLYr23y84MDTuNhYQ56E+1TWsoTlazfK7K++loOHj3qe8Y2Rg/vLuGGDNKD3ZXEsI1puKj66Tctmtv4Z1hJEb9i2y/HhZFgeYp4nJ46WUUP63ZfmYcEysw/Lwq/X6oEXdqvCCQquXpevVqy1DQLDBUi5a1+GHmhSFsH9WbNpu2zbs8/zjG9Ali7tU/UeWcGSOJopmIxgSN9HtOBoBawOrmy+SeG379mvmY0TFG2h4P8vHk8hCSxds1HrYvjiYN0LNTViJzd3aRQF0gMFQ0jkhksMBrwPkpzlazYZYmdqfcoOxLd6oK5N6GGdQ3vAoeZ01vsDItKWXenqepyisGW1iQzq84iWOooCMs4zfvijLxeoWBUssGDEUlZxWrhBxngy54zWgMoKcSANp75w1intv3YgRBkxqJ+eTWYHv8RJMFah3yNdVaSzA4EymcXM+Yt14LWTi6YBs4l5RprUlTS8OHLOnZcFy1fLa79/V4+2DtTV0K2YdfiY7aCgcIPPzU3aaVyWW439gYIY9T/++KGSxu4a1qtbV6aMGa7yCkmMHXwGx0WBy0JBhAw79mbY3gQyJFY4xbBWKU01uHYC2glyzpzXlg0mY3iBDM4KpghHKs1r063Idhq7EgWmmKN5KMZCPILikijIeqFnP7VqIV06tC31Sj6lmbWbd2hWyeEdVjIH7cPENH/90nMa1/rrgfJLHIBwR8ZDRZyMx8qa8DxuhSyrq7lo+EhiGX+ABJCCTX8cClIUfFAsB4EyKjDlf75evHRZ9R7+TfyCqMV4f84W3WFirTWbthmfvlHJE4qrCwY0PCHVcw1KkzhYFwJ13D0BsVUVAFAWIZ59YdpjShpfmVRR+Cw5+AIrfqFZvb9987817bRbway4v3zhSZkydqSmpk4sD9uMv1i4XH72L2/4HeKEhUKcapacpDeJ8WL0Qx8zVoYYi5XlRJR0C7jdF80NeHHapFLb1oybJFB///N58p/vfuR51jeINdnT9pPvTZcBPbvZlo+8cGRxQO1ataRRwzh9M3TEo49YgRtPuSKtTQtpnJBgu1/LC6wOTfCcJnPq7HnbGInMDaUZC0PNhUwBS3Uy56wKiHYrqyRQFiwOVnbGrLnyyZyF94msvkBMM3HkEFX2WeT+rA1w/KlQk6lLvTh1ktZe7P5zr8t664NZKjihCPsDLG/dIkUr7uxatGM9nMKFYVUgMKIhr4G7K8lYpizjM5OkfL12k7p/O7BgB/Xpodkz3zshDQhoOVSvVl16dGqvBTy7M6q92H8gW+aYFHAZ5LnFiDD7m8qBsf2MqXxx6mNaqHQaXEfwZ+Cy0cBQh6nL+csoyZgH9uquRyoGAseuCrBtg4wGJfnSlSvaA2Onj+BnYXyeyYwoR9B6UFgH881qiMJuUsoNuBz6aMiyHIZhZQal5apIFDi//a0PZmpQzHW3ArEX26G++9TjhjzdpH7sn9V7JwiIOF6g+HJaLPrAEROM2ukVxDunz53XHpnuHdO0xcIuYIRYtEa0ap6iB4SgHLs1Ss4tlAZxsOgo9/9t0m5/4QEGgIU8eexweWLcyKDm7QRFHNA4sZGKRASmpMv+gllWAykzraJMPfAHenI6p6Vqeyn7uWgFKCuCmj+UBnH2ZhyUzxculS8WLfebHNSLjtat1jRoUWx2kkUVR9DEQfEl369jyEMG5e+weXwtiuqVvAIlBW7LrpLOh6HxiuOOIM+Qfj1NCp6k2R3nh7LCrJrMANVpUvaY6DpK2pJESROHGJK0e9maDbqI7YCu1rNLB204a9equV5npwFxUTjWcXyBjAbdBJ+68Os12pTuD2wjHdCrm06lGDawj6NInkwJq0U7KDUg+mUhIFkVKnH+1atqmnGB9AVhimnduHb9pmzeuUcWmfdWkil6Sek4BMKrNm41lmaZHmTPdfEHSkdPThgtU8aN0GsUDGlASMQB2u9y8LCKTKi19PX6A2+YSJ5dEt07tzcBcY2gMyhWGP3EBOmQsFmTZI2TAKWGP82cYx6zSzRGcps4SBGo5QTAf3j/U41tKM34AyWFZ6eMl8dGDVVrHApCtqP07XTr2E77bOnfcSL2cbNXmpXy+lt/kp3pGepK7NyOHSAhF4FdqAyH8pKmogLSkJSsNosUS7964za/pMEdkXBMmzBKxg0dFDJpQNiucn/jfhDvmOXiBAXmw27elS4//Nk/y/xlq3SbSwT+QZ3u/c/ny2u//6Os27zDkVRRPyZavmMsIBlUi5TAtyD5QtiIg5ugP/WZx8bJ6CH9bQNfwMcloMYvvznjE7N6PlOTG4FvoMSj0fz6/70tn8xdpHvJ/Il7ACF16vjROj8wKaFR0CFBcYTVrlPc7Nm1k+5/HtK3p5pHf8D00jMzf9lKLf1/YVJKTG95Sb3dBuRAA0MNfnPGx/LVyrVao3NSxqFJjr7haRNG6r6ucM4PDDodtwLaDhvPUJcxq0x7ctJ9R5xD1oQaTdzEmQF8DWVvOL0o6Ew8SpKI4UrHiQX3ZWbrZsYvFi3T2lPhGfH+3ROdA4xKeXzMMJ1uFmz2ZIWwEwdwsxnEQz+O7qQ8az10uShwXSjFpJhVqnDYRG39Pyj788ED/fDlkTi8T64DJR1c97smI/xkziLtSnCS/vJ6THB9ctIYeWriaN2Y6AZcIY4XKY2TtGP+1q1b2pPsFJBsz/4DunsCt0VHGjWsh4E4dFrSjPb6WzPknY9myQ6TdTK82ikYl/+T707XsSm4p2BUYSdwlTgEYrA/KSFeK9/02hTd+msH0vO8/KtyyPzN5p3p6soaxMaoUu00wCtPxKE1RLv1Zi8UhgHQposm5iQABqjs1AJ/MP0J3e+NMo+ldguuEgcwfo10EMWYHZ+sHhqLnOyXQu2lDZWeYwqlx038g+tjFaHfcFPsrNCp0+d0ZmFJ9xwjaFI4HNCruy3JC7PKXFm1YYsJetfpNp5VG7bq+yWLcvqeKa+QjKAGo8bz2v6y2lDhOnEAqTojPdp6mqBv3bqjbRNOx96SeVHOoMvveM5pVYoJEq9fv6m90KizxVcXf0OP9LxlqyTHEChEgTxgsFeeLbTUhoqTm17pE+ZzpGcelJXrt2hhcvGKtbJrP7tmnU905TOTbo8c1E+mmsyJGTZYu0BdejAIueQQDFA9CfiWrFqn7oi2iUDfBNkbF2qQeWCimTmDdYNEkEYbmgxpfv27t+WaS3OZrcBq5+S/t/71lzpQmjMyuMy0mFCiQY9hD9rG7bs0hgkUDGCiLyo5MUGzJqazBtMaEQpKhTgEvxQrmZn8zsefy4lTZxy5ruLAkrHqGF7E2Z7M2WEUHQOVuDFbTGxEk31pABLTJTlh+GDp3D5Vbt68LRt37NZiJO8Ja8uCCab4Sk8T5Z3nJo+XwcZFQcxAg/BQUSrEAQhY3GBmCTJyY/m6jSpsBQNaPLBACI7UyiAmnYNYM6fBZbiBu0CWiDdZTl22F5ngHBd76Uq+LpJgL3uvrp1k7LCBWiSm5kTyURKuqThKjTiAl2bTHeNv15sglj1Qu00ajpZTim+rzAEpgkmrPTqnqXt+pEtHaaIBsHtZkz+UKnGK4pxJnffsP6iTojbt2CPHTuRoCu5EOKyoIJFgo1xa6xbSu3sXLSDTj63nxJcyygxxvCBbWrdlh8xbukp0Bu+Zs5qalvZeqZICbocAH9dLjMTkCIrGlA3KEsoccXg7NF3dvF3YfL3AZEZoHASUZeytugJiNBquyJbGm8Cauh/75d3sJAwGZY44RUFKjQsjAyND2mSykvTMbFWEKxoY89KtQ5o2kdMYh/LLMYYowmURZZo4XqCwIvwxAZyB2EzsyjpyTOfesHcI3aa8ASmBRnysCxPVaTdFUqDRCpW9rKNcEKcoaNPg0IrdJhPbm5Gl3yPbs3mPYLqkBigFCnQW9BY0Jx7JiY2UMBzWzyk5HCeJqFdeUO6IUxxYIAqCO9L3m7Q+y8RCZ1ShJRvDUt2+c1tT/pIEqgo1KmITtJzq5iuiHeo2hU8C3W4d2knjElZ7w4lyTxyyLVVg79xVa0NLJbN0mMMHqQ4dOS5nLjCi1vMHJQDikvgGcZLaqpmOwWMTIil10+QkFSspSaDBlLTaG06Ue+IUBeosw4TYZ0Var3uuTAxEUZHqOjOOmZ1DITH38mV1exRbtWBq/s7JpSBdrlWrhp6lxeiz2Hp1tWW2Qf1YrVIzcJPAln+TUtOIxu/yFV2moqBCEccXIBOFRdow2cRHpuYlFvoQVgrXRhkA14blOm8sVEbGfsnOypL+AwZI4+RkQ4JamhIT1FavTltrDSWCksP8jGFPuCPaPaLr1jY/C20+c9mGyP8AxQ3YFF9XkhoAAAAASUVORK5CYII=;" parent="1" vertex="1">
          <mxGeometry x="717" y="694.5" width="60.08" height="66" as="geometry" />
        </mxCell>
        <mxCell id="P5fyJ_uZ24H15enQcCNX-152" value="Git repo" style="verticalLabelPosition=bottom;html=1;verticalAlign=top;align=center;strokeColor=none;fillColor=#00BEF2;shape=mxgraph.azure.git_repository;" parent="1" vertex="1">
          <mxGeometry x="637" y="703.5" width="60" height="57" as="geometry" />
        </mxCell>
        <mxCell id="P5fyJ_uZ24H15enQcCNX-153" style="edgeStyle=orthogonalEdgeStyle;rounded=0;orthogonalLoop=1;jettySize=auto;html=1;exitX=0.5;exitY=1;exitDx=0;exitDy=0;" parent="1" source="P5fyJ_uZ24H15enQcCNX-148" target="P5fyJ_uZ24H15enQcCNX-148" edge="1">
          <mxGeometry relative="1" as="geometry" />
        </mxCell>
        <mxCell id="P5fyJ_uZ24H15enQcCNX-154" value="ECR" style="sketch=0;points=[[0,0,0],[0.25,0,0],[0.5,0,0],[0.75,0,0],[1,0,0],[0,1,0],[0.25,1,0],[0.5,1,0],[0.75,1,0],[1,1,0],[0,0.25,0],[0,0.5,0],[0,0.75,0],[1,0.25,0],[1,0.5,0],[1,0.75,0]];outlineConnect=0;fontColor=#232F3E;fillColor=#ED7100;strokeColor=#ffffff;dashed=0;verticalLabelPosition=bottom;verticalAlign=top;align=center;html=1;fontSize=12;fontStyle=0;aspect=fixed;shape=mxgraph.aws4.resourceIcon;resIcon=mxgraph.aws4.ecr;" parent="1" vertex="1">
          <mxGeometry x="797" y="703.5" width="56" height="56" as="geometry" />
        </mxCell>
        <mxCell id="P5fyJ_uZ24H15enQcCNX-156" value="" style="rounded=1;whiteSpace=wrap;html=1;fillColor=none;labelPosition=center;verticalLabelPosition=top;align=center;verticalAlign=bottom;" parent="1" vertex="1">
          <mxGeometry x="617" y="690" width="340" height="99" as="geometry" />
        </mxCell>
        <mxCell id="P5fyJ_uZ24H15enQcCNX-144" value="User" style="sketch=0;outlineConnect=0;fontColor=#232F3E;gradientColor=none;fillColor=#232F3D;strokeColor=none;dashed=0;verticalLabelPosition=bottom;verticalAlign=top;align=center;html=1;fontSize=12;fontStyle=0;aspect=fixed;pointerEvents=1;shape=mxgraph.aws4.user;" parent="1" vertex="1">
          <mxGeometry x="777.5" y="-189" width="50" height="50" as="geometry" />
        </mxCell>
        <mxCell id="P5fyJ_uZ24H15enQcCNX-146" value="Route53" style="sketch=0;points=[[0,0,0],[0.25,0,0],[0.5,0,0],[0.75,0,0],[1,0,0],[0,1,0],[0.25,1,0],[0.5,1,0],[0.75,1,0],[1,1,0],[0,0.25,0],[0,0.5,0],[0,0.75,0],[1,0.25,0],[1,0.5,0],[1,0.75,0]];outlineConnect=0;fontColor=#232F3E;fillColor=#8C4FFF;strokeColor=#ffffff;dashed=0;verticalLabelPosition=bottom;verticalAlign=top;align=center;html=1;fontSize=12;fontStyle=0;aspect=fixed;shape=mxgraph.aws4.resourceIcon;resIcon=mxgraph.aws4.route_53;" parent="1" vertex="1">
          <mxGeometry x="774" y="-29" width="57" height="57" as="geometry" />
        </mxCell>
        <mxCell id="P5fyJ_uZ24H15enQcCNX-136" value="WAF" style="sketch=0;points=[[0,0,0],[0.25,0,0],[0.5,0,0],[0.75,0,0],[1,0,0],[0,1,0],[0.25,1,0],[0.5,1,0],[0.75,1,0],[1,1,0],[0,0.25,0],[0,0.5,0],[0,0.75,0],[1,0.25,0],[1,0.5,0],[1,0.75,0]];outlineConnect=0;fontColor=#232F3E;fillColor=#DD344C;strokeColor=#ffffff;dashed=0;verticalLabelPosition=middle;verticalAlign=middle;align=right;html=1;fontSize=12;fontStyle=0;aspect=fixed;shape=mxgraph.aws4.resourceIcon;resIcon=mxgraph.aws4.waf;labelPosition=left;" parent="1" vertex="1">
          <mxGeometry x="772" y="111" width="60" height="60" as="geometry" />
        </mxCell>
        <mxCell id="P5fyJ_uZ24H15enQcCNX-168" value="Customer&lt;br&gt;GateWay" style="outlineConnect=0;dashed=0;verticalLabelPosition=bottom;verticalAlign=top;align=center;html=1;shape=mxgraph.aws3.customer_gateway;fillColor=#F58534;gradientColor=none;" parent="1" vertex="1">
          <mxGeometry x="498" y="260" width="62" height="60" as="geometry" />
        </mxCell>
        <mxCell id="P5fyJ_uZ24H15enQcCNX-178" style="edgeStyle=orthogonalEdgeStyle;rounded=0;orthogonalLoop=1;jettySize=auto;html=1;entryX=0;entryY=1;entryDx=0;entryDy=0;" parent="1" source="P5fyJ_uZ24H15enQcCNX-169" target="P5fyJ_uZ24H15enQcCNX-4" edge="1">
          <mxGeometry relative="1" as="geometry" />
        </mxCell>
        <mxCell id="P5fyJ_uZ24H15enQcCNX-169" value="VPN&lt;br&gt;GateWay" style="outlineConnect=0;dashed=0;verticalLabelPosition=bottom;verticalAlign=top;align=center;html=1;shape=mxgraph.aws3.vpn_gateway;fillColor=#F58534;gradientColor=none;" parent="1" vertex="1">
          <mxGeometry x="990" y="258" width="62" height="60" as="geometry" />
        </mxCell>
        <mxCell id="P5fyJ_uZ24H15enQcCNX-175" value="Secondary" style="edgeStyle=orthogonalEdgeStyle;rounded=0;orthogonalLoop=1;jettySize=auto;html=1;" parent="1" source="P5fyJ_uZ24H15enQcCNX-170" edge="1">
          <mxGeometry relative="1" as="geometry">
            <mxPoint x="560" y="288" as="targetPoint" />
          </mxGeometry>
        </mxCell>
        <mxCell id="P5fyJ_uZ24H15enQcCNX-170" value="Site to Site VPN" style="sketch=0;points=[[0,0,0],[0.25,0,0],[0.5,0,0],[0.75,0,0],[1,0,0],[0,1,0],[0.25,1,0],[0.5,1,0],[0.75,1,0],[1,1,0],[0,0.25,0],[0,0.5,0],[0,0.75,0],[1,0.25,0],[1,0.5,0],[1,0.75,0]];outlineConnect=0;fontColor=#232F3E;fillColor=#8C4FFF;strokeColor=#ffffff;dashed=0;verticalLabelPosition=bottom;verticalAlign=top;align=center;html=1;fontSize=12;fontStyle=0;aspect=fixed;shape=mxgraph.aws4.resourceIcon;resIcon=mxgraph.aws4.site_to_site_vpn;" parent="1" vertex="1">
          <mxGeometry x="762" y="250" width="78" height="78" as="geometry" />
        </mxCell>
        <mxCell id="P5fyJ_uZ24H15enQcCNX-171" style="edgeStyle=orthogonalEdgeStyle;rounded=0;orthogonalLoop=1;jettySize=auto;html=1;entryX=0.5;entryY=0;entryDx=0;entryDy=0;entryPerimeter=0;" parent="1" source="P5fyJ_uZ24H15enQcCNX-144" target="P5fyJ_uZ24H15enQcCNX-146" edge="1">
          <mxGeometry relative="1" as="geometry" />
        </mxCell>
        <mxCell id="P5fyJ_uZ24H15enQcCNX-173" style="edgeStyle=orthogonalEdgeStyle;rounded=0;orthogonalLoop=1;jettySize=auto;html=1;entryX=0.5;entryY=0;entryDx=0;entryDy=0;entryPerimeter=0;" parent="1" source="P5fyJ_uZ24H15enQcCNX-146" target="P5fyJ_uZ24H15enQcCNX-136" edge="1">
          <mxGeometry relative="1" as="geometry" />
        </mxCell>
        <mxCell id="P5fyJ_uZ24H15enQcCNX-174" style="edgeStyle=orthogonalEdgeStyle;rounded=0;orthogonalLoop=1;jettySize=auto;html=1;entryX=0.5;entryY=0;entryDx=0;entryDy=0;entryPerimeter=0;" parent="1" source="P5fyJ_uZ24H15enQcCNX-136" target="P5fyJ_uZ24H15enQcCNX-170" edge="1">
          <mxGeometry relative="1" as="geometry" />
        </mxCell>
        <mxCell id="P5fyJ_uZ24H15enQcCNX-176" value="Primary" style="edgeStyle=orthogonalEdgeStyle;rounded=0;orthogonalLoop=1;jettySize=auto;html=1;entryX=0;entryY=0.5;entryDx=0;entryDy=0;entryPerimeter=0;" parent="1" source="P5fyJ_uZ24H15enQcCNX-170" target="P5fyJ_uZ24H15enQcCNX-169" edge="1">
          <mxGeometry x="0.0066" relative="1" as="geometry">
            <mxPoint as="offset" />
          </mxGeometry>
        </mxCell>
        <mxCell id="P5fyJ_uZ24H15enQcCNX-177" style="edgeStyle=orthogonalEdgeStyle;rounded=0;orthogonalLoop=1;jettySize=auto;html=1;entryX=1;entryY=0.5;entryDx=0;entryDy=0;entryPerimeter=0;" parent="1" source="P5fyJ_uZ24H15enQcCNX-168" target="P5fyJ_uZ24H15enQcCNX-133" edge="1">
          <mxGeometry relative="1" as="geometry">
            <Array as="points">
              <mxPoint x="370" y="302" />
              <mxPoint x="370" y="302" />
            </Array>
          </mxGeometry>
        </mxCell>
        <mxCell id="P5fyJ_uZ24H15enQcCNX-179" style="edgeStyle=orthogonalEdgeStyle;rounded=0;orthogonalLoop=1;jettySize=auto;html=1;fillColor=#e51400;strokeColor=#B20000;" parent="1" source="P5fyJ_uZ24H15enQcCNX-132" target="P5fyJ_uZ24H15enQcCNX-60" edge="1">
          <mxGeometry relative="1" as="geometry" />
        </mxCell>
        <mxCell id="P5fyJ_uZ24H15enQcCNX-180" style="edgeStyle=orthogonalEdgeStyle;rounded=0;orthogonalLoop=1;jettySize=auto;html=1;entryX=1.006;entryY=0.543;entryDx=0;entryDy=0;entryPerimeter=0;" parent="1" source="P5fyJ_uZ24H15enQcCNX-156" target="P5fyJ_uZ24H15enQcCNX-99" edge="1">
          <mxGeometry relative="1" as="geometry" />
        </mxCell>
        <mxCell id="P5fyJ_uZ24H15enQcCNX-182" style="edgeStyle=orthogonalEdgeStyle;rounded=0;orthogonalLoop=1;jettySize=auto;html=1;entryX=-0.013;entryY=0.707;entryDx=0;entryDy=0;entryPerimeter=0;" parent="1" source="P5fyJ_uZ24H15enQcCNX-156" target="P5fyJ_uZ24H15enQcCNX-6" edge="1">
          <mxGeometry relative="1" as="geometry" />
        </mxCell>
        <mxCell id="P5fyJ_uZ24H15enQcCNX-185" style="edgeStyle=orthogonalEdgeStyle;rounded=0;orthogonalLoop=1;jettySize=auto;html=1;entryX=1;entryY=0.5;entryDx=0;entryDy=0;entryPerimeter=0;dashed=1;" parent="1" source="P5fyJ_uZ24H15enQcCNX-183" target="P5fyJ_uZ24H15enQcCNX-103" edge="1">
          <mxGeometry relative="1" as="geometry">
            <mxPoint x="710" y="1080.0000000000005" as="targetPoint" />
          </mxGeometry>
        </mxCell>
        <mxCell id="P5fyJ_uZ24H15enQcCNX-183" value="DataBase&lt;br&gt;Migration Service" style="sketch=0;points=[[0,0,0],[0.25,0,0],[0.5,0,0],[0.75,0,0],[1,0,0],[0,1,0],[0.25,1,0],[0.5,1,0],[0.75,1,0],[1,1,0],[0,0.25,0],[0,0.5,0],[0,0.75,0],[1,0.25,0],[1,0.5,0],[1,0.75,0]];outlineConnect=0;fontColor=#232F3E;fillColor=#C925D1;strokeColor=#ffffff;dashed=0;verticalLabelPosition=bottom;verticalAlign=top;align=center;html=1;fontSize=12;fontStyle=0;aspect=fixed;shape=mxgraph.aws4.resourceIcon;resIcon=mxgraph.aws4.database_migration_service;" parent="1" vertex="1">
          <mxGeometry x="777.5" y="988" width="60" height="60" as="geometry" />
        </mxCell>
        <mxCell id="P5fyJ_uZ24H15enQcCNX-187" value="" style="rounded=1;whiteSpace=wrap;html=1;fillColor=none;" parent="1" vertex="1">
          <mxGeometry x="648" y="412" width="278" height="108" as="geometry" />
        </mxCell>
        <mxCell id="P5fyJ_uZ24H15enQcCNX-188" value="Cloud Watch" style="sketch=0;points=[[0,0,0],[0.25,0,0],[0.5,0,0],[0.75,0,0],[1,0,0],[0,1,0],[0.25,1,0],[0.5,1,0],[0.75,1,0],[1,1,0],[0,0.25,0],[0,0.5,0],[0,0.75,0],[1,0.25,0],[1,0.5,0],[1,0.75,0]];points=[[0,0,0],[0.25,0,0],[0.5,0,0],[0.75,0,0],[1,0,0],[0,1,0],[0.25,1,0],[0.5,1,0],[0.75,1,0],[1,1,0],[0,0.25,0],[0,0.5,0],[0,0.75,0],[1,0.25,0],[1,0.5,0],[1,0.75,0]];outlineConnect=0;fontColor=#232F3E;fillColor=#E7157B;strokeColor=#ffffff;dashed=0;verticalLabelPosition=bottom;verticalAlign=top;align=center;html=1;fontSize=12;fontStyle=0;aspect=fixed;shape=mxgraph.aws4.resourceIcon;resIcon=mxgraph.aws4.cloudwatch_2;" parent="1" vertex="1">
          <mxGeometry x="666" y="428" width="58" height="58" as="geometry" />
        </mxCell>
        <mxCell id="P5fyJ_uZ24H15enQcCNX-189" value="Grafana" style="image;aspect=fixed;html=1;points=[];align=center;fontSize=12;image=img/lib/azure2/other/Grafana.svg;" parent="1" vertex="1">
          <mxGeometry x="759.5" y="433.2" width="68" height="52.800000000000004" as="geometry" />
        </mxCell>
        <mxCell id="P5fyJ_uZ24H15enQcCNX-190" value="Prometheus" style="shape=image;verticalLabelPosition=bottom;labelBackgroundColor=default;verticalAlign=top;aspect=fixed;imageAspect=0;image=data:image/png,iVBORw0KGgoAAAANSUhEUgAAAOEAAADgCAMAAADCMfHtAAAAk1BMVEXmUiz////mUCnmTib++ffmTSHqc1jlSh7woZPmTSTlRxjkPwDlSh/lQw/lRRTrfmj87uv64t30uq/98/HoZUbnWTXtjXn87er52dP3zMTpb1Pre2PvmIf1wLbwno776OTyq53shW/529X30MjoY0Pzs6fuj3znWzjpak3woZLsgmz1xLr0vLLyrZ/vm4rqcVfjNAApSjH8AAAP90lEQVR4nN1daXuqOhCOgFIIoSpq3dq61KW1p+f+/193WTVAAplMsN77funztBV5yWQyO6T3fwe5w3dE77vF92HztD4eZ7Pj8edpc3jd796dO3x1r2OGL/vxz/OJUcZC33fdoN/3vH4QuK7vh4xRf7J9+55HXd5BrzuG769vSysmFngWkcLyAp+F09Vm8dLRbfS6Ybg7PPvUD+wGbiWethtSMvsedXArPfMMh+Mvj/meGrfScvpserx0sDeNMhxtztRvEssWlkFIB2PTAmuO4fvmxFxbl10B22fLsVHlY4ih832mrvbi1Ug+L8zcVgIjDEdH5qNXj4fHvM+hiTvrGWF4OdPAJL0Ulsu+5vh76+EZOod+aHT5bvDY5PLrDJ1N4BvafSLY7PT9qwydDQPys32gPFshef09hoe+D7xddv7eQLesxT5wilWb4YVA5dMj+15vAhdqiy0xBp0mw9GSQW/V/RubZHsGJkiS/TjTNwK0GDprCtaf7ir55BZusaYI/MM9GS5sF3yL9iT9aKhHMEZ41hRVOMPomWrsJT8Vs3ctIc1g06f7MLz4fY3bY9nZrbcNC/gnnWUEMnS2YA2TwFvlj0dfShPYdNM1wznRs0DZe/b5BY5hvBuXYKUKYrjR2IEJgmPxhFBSmsAL9t0xdFa690cLv/2dYhkSi352xXA01fWRil0YA72GMcJVw10iGF40JTQGuwnWyoSnFUzfO2C40Zcvy+IuA7cVBLBDwGZUZDhDiFf/eLvOyISYJptxbJjhCugnlRDy3s/UkMPMlPWNCkPnAxWHofwR9ia/FIw7O0rvF8wwOmk6BPmNW/zFRtL97J5hFMMvUwyHFk7/edvS5U4SHuFxDNRCvtqp0crwBUmQuOUdcxBvaferN4F+kTswwRC7gvGjLqu9oVCbxu6j+A/NFFVWsYVhhCZIwkrQ81m0q1mk5XeoCGozQ+eEt0HCSqhM5COy70Yt20Bxi2T4gdKiGWr2R/1ItJMNJVzb9qu3HhqNDAcm8hE1hnXLjSa++4eeLcDaYhtNDLdQS+bkC2KorJpgGVaPxGCW/Fo1KV4FbQn8NzDcQJWbN+uN6wluVguurCr/k0UAtA1D2pyjkjO8wL0JFivfc1WyaS0RuCg/utwk0GZoscbEuJSh3LxqYJg8zUllhcJ6ZKVsgtJd+kudEF4G+6TD0AEawinSwHRU3lCWVa+v+OR1TR4rlppzCgiajkUZw4GO7g7WyUf3pdW3PuoXL4VrCpvnL+LoZQ1RRgnDJ62wn509yy2/FW2R8Xjm2LBcimeYs7dB24gZ7vViFvYy/fSQfzx90ZH8fVMrdiFhqACHFUhrjYQMHUtvT9jn7PNrbhHdP4IviG7PwC9yvLhosSfdikKGK01bJl/DXsQdB1WzNMPXVSQLIe294EI4TJZ+EzH81v2u64Pk0oT1A7+0YMVD6VXPEDhFSYhRwHCoLS6ZLu2VovdU/L3FP7g3LaibPc1RnDoKDLUOiux2r3vuupFFhwVPh7NaXzEBvRihaMeLGGrLKL/nfoqdLFSlvZuYstuvImxSQyynNYZRoL8d6PUrrmLqS0K3TvYISqflEulue3+VGG71fUKrf7tMcbiJFU2vcHhd3hgZI8WUMFF1UZXhHCEq3nOVALFsCcGcTsk9jrAhf8sWnPtVhuCQHge+IiQPGsoP4iyDwUqOh14gg4O7rn9RheEYY1jwErljNdIVJP9glf0eXCFDAlpXNmWGTh9x6lr8tRwm+8YCifXNy3UCzVjNDdUL1hh+YvZ6UBKR1N2zplKCqS/hVryeV2wlg8DJKDHEbXVWCqqlzlDwJmf4x61Hi3uaJv8NhfEvYbjGRA8rajN1hthOzjCJcdfOEvwisqqlzzPUyBxwqFgvCYEmIU2NgrrRiohlZKiZpzxD1BJWhDRVptVtVkLsLQlOS03fm7+PyiJyDHF2IW/QFFerBxI5OO7Nv+eANd1qi8gxfEPVSQQ/NQKV3GgVlhUIDmh8LUNFmG4MHVzPS02pTK0mPdNLDj+hPTDDJksqsa8bQ0lyVhF1P3AStKRoV7YwwoF2orJEj4Ah7iiqB5wGtHkJY8UmXmTcbonRnwkZLnDyX1cqg20zwd6ny4SaKMI6UeVEwpUhruKMCyhdL9hWCXrwXXGQ8xO7iKX9XTDEVGDHCOu+Z2t13YVJDAK8n8hfuGD4hHtuvkZ7655JomNI04OUs7IFQ5yeaTn5xBhRmXuMFKg0V1tliPQ9xYHtFkT/zGR/Qpehcjs8Z3jUz08mYJI7bQaV+lZIxV5yyzKGSHtGFhRtAZEb5lg/kYsPERPPjEHr5zMs5UEctK6hVzHNGKKyk7FboTcoYCtvnkS3LdzENGOICUDFIqFY6VnFU4N+wra+3+6JGHhitWiLIl4bhBsnVYTTpilDpK1LNdsfdw2lPsgOKU43pAxxYcp6eEsRToPzgcwIcx55wrBWaAaDq9cXmFBs+Bu2qP9qmyYMkalJzbOiBV/YjVjUgiUMj7iL6Vjd7UB31xT6L2GIi1HK8thIoFVNEeYi6E0tCpgZADrmVjx5gm7slOWxkTAQkIoKhlol5DfUaoANAR03zfPLMcMBzhnTPe/bgO4By3MKBDMFIEW/5U51ganGTJGbpgTbm2vJgi1YIEukrjlpglU0ouyKESDDDjGyOQ4kzcUioBWEUgHaCc5TKQTrp2hGMNrxg2aYla6SUkWyBjo68A1EvnOXgGDLOqt5wwdimG0ggg2hd7eGaCnNHFeCtf+8x92HWQcy2SMPfN0wVCvwp0UWUiQXZLbOFhZ1GgDaBc5LaskBuaEba2YwQNe45QciQW9o1tFMZwPzJVLvgqzR8ZBu5v/i/cP4yE+aL8kW3Y2OHWwoBn4cUZ7tJuhUXUcHIq74JUNq1BDgNIo6rMb+Rm0YUKXZOAeCV1nNTaq6QBqTKVLxIif0dToJRe1MjOpJ0/lkir9OFz6wkXFLqelt4DqdxKKMzCIyxlB/8qYUZuZJpTaziQt1oE3xIYwEGUP8Puwg++QYGXqWS6kJhsJ+bQxMHPek0KUGTPjrWARjMHEYkuI8VLdpPF/ammh4ERu6ryzPVZ8Bnza0kIEqQ2/9up64TPz+ilofBwaO+BUZCTlGVpu9cqIls0u/VP89jes4u/HsREO3Okym1NWFRb37KiFHyddmnxYVK6uhtDSbqKe4r31o0f5p6VUW0wdOFW1AufYyeT1LeNr+2V/NCvU0RGpPEvXsYWnwmjMaz6b8YppzhK8haqvvM3raHiovTFL3OtKiUKKetqhLYrS4LaaxY3+TLpHthuHkeJjXQyQA5z9N3hJAqYnwYI8X8zilMU1fWg8Lwo7aQbx0q6e9xNoFnJWpXEHipYKC/ILm/DCb/CPu+Ichov55/dpUBQ+oHMnipRAblzbuNUcgUmDMRy0XgdRr+8kHQHkLz4wgogDobcvqTYgDmZPWTcACAojvn7U9E1BsOfj1RYSMJckSfwTW5t/QfX4XgEY+ZAEkAuuW6SQmAwAoYZ3VMhFgiVw3pZaqgPUUZK1xBBgS6SzVpASQ35j3UceWGCwFYtDEBgM28iF3Wgn4BUW/p2yADV+5pxAzPMLiWrKJU90DOFkmLxImpQF4ap/UeBWKCRyAFQf5WzWIRvTVdNxJDdBxo4Wzl/yAzrf9HX36AUx0FkUiCUPw8KKgqwqTBsygQeIi15AwhMdfWTe13Q2AT5ErwioJQ400SEflCVLAZ/5abu/GUGPQtEXu9N7wDBH8Dq++bMpQo8S0bzpV0QiN2fDXlsGUoU5/SthVTaIAOvNUr5PgUoaRTvUew78EVRHg2fCEj5plx6JWy4U7uA8mOsnEW146Y6g3k9G+D7QybTf/IGOInrXxaOAa6nLjzcjbwh4IXPFEzhA/Ce6xwIU9c4bO/0tM+Zx0kU9C978/FPgJAQVDE+WcjwN+1so1J6hRk2HdCeAbK5W8XhnCXai7EQRTLHk+V4YO1D+x6+Neu4EDPcnKtS+3zDW0lEww0PZBGJZLX24MoeOn7scQqOYrYSSu+gBYWf2wDMNyiIVjuIPtxEdlWB2kyleQwHyoR2VYreflGcJO/QdlWBtaVaoCAi3igzL0qzUvJYagnfiYDKu7sDqTHaJOH5NhWItVlxlCzsSHZCiorqtU463Voz4PyVBQyVthCBig+IgMRS271YpK9RdcPCJD0bt0ajWjymm6B2ToiqYf1BgqnxiPx1D8Upt6Bbqqsnk8huKGAUGNvWKQ+eH8Q0lmWsBQ8QUMsY/v3AWRGkNLMh1c1CdxVJNTq38fKAopk8wYFXaCGGlvvDPcrZigmCHQF34EyNPu4m6eP/+5+LC8iknSrzTAj065KxpelythqPuu1V9C0yuPZT1n/6mt2Fj7Iu2qG+ttRc9FQS9R21i/JO8bPOrk9r3ZEwpaJRO0cdp2Q2fkQKOKJUQWuutMGmXNk5qbej9P8Afqaw4vL6Ax/qqtZ66J4RA+jF74jmoA4FIatE3iauzfHTEoRWzvl7jHuekLW+c0N3cog9+7ihwMDX57n01ap4609GAvoBTFr3BSBbSE0Pbax6q0dZlfgBR9VD0fcO6s1Vfo/WjtowdSlHfSKsCBHcG2q9Lc0j4pAEgR01IDKyC0PaWvUpiFsKAQBYfRpiDP27bUtrzKtIc5iKJ+kTvodcveSXF2k9I8ixHEItaecwJ6JZN7Vi2lV5vYMZxCsiOazRiQt7qH6qFMxZkkzhKgBEItZfMKGQwAKKNXnroyU78Be6rRjAHoGbFAUqI+V+agrm/68EPxRd0i9ULQ2xgAk3PmqrHZWA9AR+++9JV1mX+GDcCDzAaKlsrqPFBWdSlGnipBi0JnT8OmH30qS6pHAMfiRf2ycBcbON9pbquqdIA6OCorsXAJd12gE6ycrfLzZkulU2NPVKsjbKoTQYDP6Fr0VZfRZutWpTBaKccRwomWPagxhcyZKS+jy34a573svqiqfvaoZgu51py1/UnZwgnY6iJRq8PxB1NO0bOBbvBAc5LchimH/bzQfx5X5cuZb5bUVz7kfaI/0093Vl60per+RjJUbnLcfC/28/1+Mf7cThkDuCsBasaB/jTA3RLAMR0M6IchC8PQd0ExQ4/OUFN8MfMO92fWecubR7+Qk0ZwEx0Xk245evQZ3RaPnVm5HyjrezBcNjPQ9o+fyrnbUuyrbUWw/PDNyOw0E3NHhxuifLApok8/xoZmGhiarLpYMd/YjrRD/2huQIyx2bHDw5maIGn7VGoFacHkdNz3PxPmY8TV8sJw8G14hr1JhjFexs8gc4VjZ/vMm13Mj+g3zDDB/GkpGxktY9f3mbU6dDMRpgOGvXRi6zYZTBu01aomthyjp2PNNDeHbhimiObjn8HJpSz0g75nX6usLMuyvSC2UhnzPlZPrx0P8+mQYQbnZb4Yb9bH1XJymk4JmU4/zoOv41vsaeyie4zx+RdBcQzNG8l3HwAAAABJRU5ErkJggg==;" parent="1" vertex="1">
          <mxGeometry x="860" y="434" width="52.24" height="52" as="geometry" />
        </mxCell>
        <mxCell id="P5fyJ_uZ24H15enQcCNX-191" style="edgeStyle=orthogonalEdgeStyle;rounded=0;orthogonalLoop=1;jettySize=auto;html=1;exitX=1;exitY=0.5;exitDx=0;exitDy=0;entryX=0;entryY=0.167;entryDx=0;entryDy=0;entryPerimeter=0;" parent="1" source="P5fyJ_uZ24H15enQcCNX-187" target="P5fyJ_uZ24H15enQcCNX-6" edge="1">
          <mxGeometry relative="1" as="geometry" />
        </mxCell>
        <mxCell id="P5fyJ_uZ24H15enQcCNX-192" style="edgeStyle=orthogonalEdgeStyle;rounded=0;orthogonalLoop=1;jettySize=auto;html=1;entryX=1.014;entryY=0.335;entryDx=0;entryDy=0;entryPerimeter=0;" parent="1" source="P5fyJ_uZ24H15enQcCNX-187" target="P5fyJ_uZ24H15enQcCNX-99" edge="1">
          <mxGeometry relative="1" as="geometry" />
        </mxCell>
        <mxCell id="P5fyJ_uZ24H15enQcCNX-193" value="Monitoring" style="text;strokeColor=none;align=center;fillColor=none;html=1;verticalAlign=middle;whiteSpace=wrap;rounded=0;" parent="1" vertex="1">
          <mxGeometry x="763.5" y="382" width="60" height="30" as="geometry" />
        </mxCell>
        <mxCell id="P5fyJ_uZ24H15enQcCNX-198" style="edgeStyle=orthogonalEdgeStyle;rounded=0;orthogonalLoop=1;jettySize=auto;html=1;entryX=0.5;entryY=0;entryDx=0;entryDy=0;dashed=1;" parent="1" source="P5fyJ_uZ24H15enQcCNX-4" target="P5fyJ_uZ24H15enQcCNX-11" edge="1">
          <mxGeometry relative="1" as="geometry">
            <Array as="points">
              <mxPoint x="1360" y="183" />
              <mxPoint x="1360" y="369" />
              <mxPoint x="1357" y="369" />
              <mxPoint x="1357" y="520" />
            </Array>
          </mxGeometry>
        </mxCell>
        <mxCell id="P5fyJ_uZ24H15enQcCNX-200" value="CI/CD Pipeline" style="text;strokeColor=none;align=center;fillColor=none;html=1;verticalAlign=middle;whiteSpace=wrap;rounded=0;" parent="1" vertex="1">
          <mxGeometry x="736" y="789" width="100" height="30" as="geometry" />
        </mxCell>
        <mxCell id="P5fyJ_uZ24H15enQcCNX-201" value="" style="shape=image;verticalLabelPosition=bottom;labelBackgroundColor=default;verticalAlign=top;aspect=fixed;imageAspect=0;image=data:image/png,iVBORw0KGgoAAAANSUhEUgAAATgAAAChCAMAAABkv1NnAAAAw1BMVEX///8AYYrkjgDkjADjiQAAXogAV4QAW4YAWITjhwAAVILookT//fjjigAAVYK9zdiMqb0sdZlxnLTnnkP01a5PhaPwxI345M778N+2zNjnmyjqq1uqwM7mmTBrlK711rNEfp/hgQDl7vIqbZL89erO3ubb5uzz+Prf6e5/pLpajKjss2ruu3767N7wwpH///yZtsf338MATX7yzJ4QaI+bu8zqqVjtt3TllBj448mqw9EARnrnmi366dbxxpvssWXgeACRaoHrAAAOlUlEQVR4nO1d6ULqMBZuKWnTsDMg4kWgbBXkKrIoMnqd93+qSdI2SVdarAq23y/FRMrHSc6aE0n6FZj16vXd1Pzpx7g0jIZI1TSI0HA1+ulnuSSYsiZbAFBdzH76cS4HQyDLGtQA5U5D7Zy6eJghTFdzNx8jS/DAuplvdnGwgjLqkh/u5ppKxU4D3Z9+qEtAHwua83NPtqhD8598ogsBJk7jvx1klTCntvPlegx4qVan4u9U6DS4bQzbi+bh7sce7NyBlQNoiy+MGpAqCRkATVOr2/4ht+4C0QAymrpe6VdlDqCpqHH4oWc7a0yxyG3dL+0AQkiFULOtO6CC3c883FljgdXDwv2SaY5q3d5q3m8gS8/KamMaPDvDMPF+Vl2F/HG0si1jgPq5pvUAL1Z5HS5Q075KqdNgbhh7sMPMgQh5GjUtqavm5p0HeJtz2yRejBaICp2aC50bW2yThG1zFqZjat6h/jc90YVghj0tdMRLsHwKOM7jTiJ2VRkMXa+MfPvZXYM4sqCaL1cRQ80OL1k4rNWq31+oI5AHTzwYqTJoCL8voLz2EzSlcXY1UpFkDXXo9lmxD7v2u/fmkCxXbZzbJQwmlDVRZZqqDIPWZJMYJmCbh0wY2kBWRUFaQRhooewoc1oeqXOwgrLLvjW1dbDl0bWM4Zw5GzPkiZLMFyEjp1TmQL5abRD3Qfw9XAFYzMm5hrCA9apaizd0Sk3hbc4cxd3arVejQGVOG37l41wQsOkG4o6lGgI2v/JxLgc7T6owEivCHMpzEQQjrFfjy1CTxJlQnoogWIDISLAHQ40YJbmCwKhVZdiLPdoEpEIsd/gJtgCM44+mqrWab3OSUPQVD3Nizqm574UBfWn9SGADxh3GyyyIpx+dtXHhjopcggm/F9hhVROkY1aUudzdpx5BIh90LOea1UIbJGKOalYUMzbwq2Fqybz3BUl8JbBhfi9mIJEIjdRc5GxMVTk42xCMOfZZPcnsjOIukeNF17a8zq1gWsFfTVIgMie7Yp7dlyRSO51k/Ixmvb7qaS4HJNuVTH6I45VXzkkH7OgnK+Xa5eqBoKkl8vMxTGoEZ75uTk5kjFBQ9ZD1Ws1Z9Whtpg93RJ+gjAfRezDpSpVo9bWs1b/gaS4IC+2ERUddffgFT3NBGIPEW5xEYyrJt8ZfBROcZJIRkTthif8ijNBphgU1grN8PHNaPS0SnnmRq6mydpJdQUQuy0cgujBJFYQ4sZptkTuobuKGsdftlkSOsytyXfdSra9j2xjU1c9u8gEvVciFrIbiRz1MWvaVWZGrYXOEEUcSMfGNE+LqZzffNUNCVWabuKCxSw1HmU6xmojbsVZMHMZWsk0tyyU4QpijTk/ix3dB7zItckPAjuc37G43sef2syxyc9YXzVStJkvxXVCa1VczGpfDhpytSKckrjscgwT+QJ2YJLCdydWKpcbe5HqQ7HeYyARxJqsXU1VeZTCOTrqN0h/IosXLdJtE5GZrqxcTRPPMVRtiQbM0Iyngqs6I95ogtjtt2F1KNbTI2OER02nFRwJF5BzmNtGxEWna1BDtn5a53rh4idKTRrIdJzqEnM4Px3QuVzXaAixTtTh2Jw2Sn7dED5skKOmONe3T7rhwm6X1WseKtW2OkOOo1tZHelYFwjw0aJ46S2bdGMgaIFucXWDYVE/zpLqAKOZGdvQr9QBoNyD7Mw8TF+LYaCKsWTIUpJvSJkoydHL65hYk1A8OaqSpUIZ0xGyLIER8YxslLppzYJKefXCYHU+iVl+JCvFOOzmfcMDqVZOzZdIJuAMn68fRsJrltnOjbUTr1iPoQS1bdokLZiN2cw3/3LaaJRXhRX94+lzSny67RTmrT3RoaWpZLrA+JC0enHXrzXZjjLHNdh+rQ4KmD6PVkHTp1wAFjZYMv+zBzh5xZW7UayMI2LUQQINIa++y47b6MYslczvnQgN6lYbWWDR7+SV9cdC3A+gq2s5rOWPxQQtJ5G29m+XFeRJIwY4Ms2t/nAwT5d0gT0PX6kCay1xizKvUdIs0X2a1w+6QSN3Ourte95d/G31kXbAU8jFHu7ZaVSFUq6gdM+5y11QRxDPILbppt08od55am81VFFr+We9Pg1YABk+vE/9g/t/fo59ljqwLlgJvHm2K9nG8m0lWSGMzIFqkqLA7yxtD1/ViJPQP15zHp+WtHg6j8Ly5dr/LrfMGRsBX4EINWBcsBdw8at3UxwCHxz+d9T0waKn1vt7s9YpSOArlXphz/aIcmaQoRf3WxdB/nPH6MeKkEb3GIOCum7kqu6EeDbwckGdKSn2I3/d6DNY8xC1jUV1Q9P0rn5SAOLa84NgtHl7ejjd4NQOmpLHPDWLSJhI32esx5xQU44q9VSLiyNVUtI4EisTMvNJzvI/EXPNNSeO44qsRlwJOXLkQl2vK0oPzXsmIk6QppQ6IxQA1v/gcCXOaft5kmEIaQ+BAqRQjNnu83TvK4U9FpFMJmFVUBGp1R4cmJQ6bEX1CncAcJ27Mt6zIXW7FlAlosBmfJ67F1pyi3yw3T50o/LXmdIR1qujKn4fWwIPW5r7AdwClZL9ZcuLINXyqJmxjnLhhnYmSGmUI8yXdnoP0iCuxj1d5ijvnXhBSpfUYMmrAZVm3zZJTiKN7HWBniBlxoGGy7S6q8LPLRqEp2+0+T9wj+3TFh+Ojbey5LBUCzFwHEzZO31ivnEYcseqgUw0gEEd7b1g/RxT2NAAf1EyPuEnFKxXHUeYrVY+U0idnYOXFeuFU4iSzvbaPj4jETZkwhWf7+RjYS5W4IuMgQnbcuObbYiFsnVpwNITyx/r9ZOLwFm8zJxInSNMwbN6Ce2fSGRF3Gz3yJj3ipKl1oZCLOGH/CrFI7th94MQCySRx2B4jCsJFnCQzNRni6zOq6FnGAOJGDFGa2Zwy2K9cEHGSScx9N3E7ZpwEd7bi3ha19QKI2yIb/40qiuquqxaQc7DvkoijcBPHvYJgX4Abv3QtBxA3dGQ28p6nrvN/WK3fhRMn+qFBo3kUjtaIfg1xg7jPfk7EjdhaDPLbD3wl070pReLKzKdkftFRnBNxTv46+JwwM1dk648pEie4XPoy5rOfFXEzwaPyjuXGry2OaRL3xKNKxf3V67ULk0mQgXtWxPFPrvmuimwL3hZFmsRJ99yBCogPGZXScuBRG+dFXI2ZuN5jY3e+IECqxEl/IoO5ilLR9ZIrBHJexNHWTB42LDR9Yad0iZOujGPxXEUvbPj4MyOOq07NNZJHnVigM2XipOtnvXiEO0V/Ywv2zIjjkUroskjqzPhld4GnTRzm4upG1ytKFHtK0QmAnxtxjCG3RcLDIkxrpE8cxt/Wy/O+ohsCdF3MASoVW+bOjTjTY+Za8Bq/BF9CnI0yx+OkM1gqzLUoVOxczbkRx/kAgkXCcjlCrO4rifNhyZVusUxfOTviuN3BLZJaUHQ4gLjGlxEnLXl03drlzo44buny+yR8xi/B9xI3YTzpHfrC+RHHfSvn9nTuialCrfv3EleunD1x/OM7lw31mU4VG6kHESd/HXHK+RPXrbo/mGD8iicPz5C4wZLVDC55njEl4gYvpdLSTkQGE8f9Lqtaghu/rpB6AHHjHyZOujcqNorFjvNiKsQ9KUbx7UY39lQ1hRDHYuRWqJcbv64kThBxX7jHxVuqV0IRipOmToO4B+OWMjYoGCRGHUIcTz6Q0reeO9XA8M3ERSiHQpmP2wjM2bzsP0/ck/Fc/vfv4V+rXL4hxQYhxPHkA9nUgoxfgu8lzmeOTHjsU+8IAwc8ymKVxLGZiu1z/HEGVOJGm6V94XFilF4+dGUyMZ7DiRutmZCJITo3G1HmiBZ1OuAk4l64xNllXjwY4E5UvPIYi06qRe6dmRW7KPPK8d8UpSzFwquxwV/UE/m2NtKLMQkljlfgwB4zfr1dmQOI42myqIrqz7lcimKHM5+55190FaK/C5VdH8Ku52TQOsLuGC8b+c+4tojrGC28bJ/CieNG8JbbcJ7MVwBxQmksOIQm82t+4spRmHQe9oKT71SytoSYcWUv1uSX33i5XYHPZDnbGy6rxfvB38kk4s3pt7Q0ynjF7/e3xk1ZesfkhRLH3XUOzTMkqHakyWtjVXW86AeCO3AOcX+NyIMNYoBTYR//USwBVop6pbC3cXMjjOfkMrEUUkP4/0UerDDoNnmFV+fEeBgYJALdwXo1nLiar6zaV28YWHQzFM5NAKAFgps3jLgE1eM8Y+0tuFY4gmYqfFkuY7+fVejYMl7pUl2SgrKN8R5BnJBFdejxLr3gaqW+v5A9FMmJU1wWxOZomkKYWRHPHy3jHg6oWIrZuKfEPZKs760SrlUlcZez4D9FF1Lm1QXuwzopEqfob39dj/BUKR6fZc0sudXAoHgsvyESJ30Yr+X/YVkf/O+9RVZvBHGek0fQ3ysxtD6uN65C/xb5WeIURd/7CkvKSz2O7Cj7jnfm40Mhzqkcm7iyUy77eGUQ26eGrJ4aQAsoeagLZ92QLz+NiYP2ZH9t02zVllFVVWEgND9xhhKNiq4X7l+9b0Mw2ZRogsfFgTWnyMWxuAmY+rp8I4qhEvXGzrGSyd54Hrx3WrdGidh+tcbQRgAx0myBEFJVFa2HQY5A3Zk7DLR2R9NatxcIHpxnxL2VovB8vxy8h9f5TgbL570i6sLCTenjZXm14dIYUpJSfh1cvdw/h7/1LWP8QSGZo31ML22GP/007YYbh1M8h5Pwroim8Gdx3enEron/EvS+jTjhkENBL0XXpl8Avk/iiBPBfNzKbUzP9GzB41TfcCfRY4l7pvvYdbLnCXZa4nuuCv8Q4gM/u0d9Ej2ewvietpPYTWDWRaBJcxGoLVh87+hp7LTwcPPmYH+ezNXbRzBm3cW+baVeBPqOMxEK0eE66QbZ34lmLBfV4S1LVyUcQQLi1HHaPXIuGXGJA6qcoMlnBhCHONJzsp3ZxuEhiEFco7+6/J6T/wdjoVLoGFp5+AAAAABJRU5ErkJggg==;" parent="1" vertex="1">
          <mxGeometry x="1085.63" y="892" width="57.37" height="29.61" as="geometry" />
        </mxCell>
        <mxCell id="-s2-TewTJ8OhEwa2nXqe-2" style="edgeStyle=orthogonalEdgeStyle;rounded=0;orthogonalLoop=1;jettySize=auto;html=1;entryX=0.481;entryY=-0.004;entryDx=0;entryDy=0;entryPerimeter=0;" edge="1" parent="1" source="P5fyJ_uZ24H15enQcCNX-150" target="P5fyJ_uZ24H15enQcCNX-156">
          <mxGeometry relative="1" as="geometry" />
        </mxCell>
        <mxCell id="-s2-TewTJ8OhEwa2nXqe-10" style="edgeStyle=orthogonalEdgeStyle;rounded=0;orthogonalLoop=1;jettySize=auto;html=1;entryX=1;entryY=0.5;entryDx=0;entryDy=0;" edge="1" parent="1" source="-s2-TewTJ8OhEwa2nXqe-5" target="-s2-TewTJ8OhEwa2nXqe-7">
          <mxGeometry relative="1" as="geometry">
            <Array as="points">
              <mxPoint x="1411" y="591" />
              <mxPoint x="1411" y="688" />
            </Array>
          </mxGeometry>
        </mxCell>
        <mxCell id="-s2-TewTJ8OhEwa2nXqe-11" style="edgeStyle=orthogonalEdgeStyle;rounded=0;orthogonalLoop=1;jettySize=auto;html=1;entryX=1;entryY=0.5;entryDx=0;entryDy=0;" edge="1" parent="1" source="-s2-TewTJ8OhEwa2nXqe-5" target="-s2-TewTJ8OhEwa2nXqe-8">
          <mxGeometry relative="1" as="geometry">
            <Array as="points">
              <mxPoint x="1420" y="590.6999999999998" />
              <mxPoint x="1420" y="793" />
            </Array>
          </mxGeometry>
        </mxCell>
        <mxCell id="-s2-TewTJ8OhEwa2nXqe-5" value="" style="shape=image;verticalLabelPosition=bottom;labelBackgroundColor=default;verticalAlign=top;aspect=fixed;imageAspect=0;image=data:image/png,iVBORw0KGgoAAAANSUhEUgAAANoAAADnCAMAAABPJ7iaAAAAwFBMVEXm5ua12BdNTU3p6enn5uqz1wBGRkZKSkrn5uhISEhCQkKVlZXn5uvs7OzBwcFERETU1NReXl7JycnPz8+kpKTm5uPg4ODY2Ni+vr5RUVHj5dnl5t9tbW3i5dVZWVl3d3fe5MexsbHc48CMjIzZ4rXX4q7R4JNmZmZ+fn7P34zg5M2cnJysrKyIiIjS4JrF3GS52TDV4aTA21W+2ke62SvK3n7A20/V4ajH3XPM3oDH3Wy92j7P343q5/XO3pU5OTk1A3vUAAASQklEQVR4nO1d11rrOBB2IsstNum9FwgkQEIINSy8/1utioskl9gc2xC+zM0usWXNrxlN09hHMtYV6Q9SZW1INeunuciGrJoEfpqHrOjPAjvTmc50pjOd6UxnOtOZ0iHtpxnIjhZN0/yb8LTF9vl+Ipnhd/T7p4pcHj7DwuZFkkMAaLPdRJPz5Skt0uT7AoT7j4kZCECbQbiZIaU9Sdlpww0CV9gs+gF6iaAVYOHxaTbsNWUTkSxrJwRT0xZ7BADuHiSfScHQCugaLBw2Tx9X9/cPl4vZqkdAngRCWfog4ODNrMmjo9AIQZYOu7fLWU8+BeuqrZ6JeAq7+x5rNhhoPGFBPm6uetLvtzGa/LK3de/9pe9KIxSag2+3OAHFlHuvDsPb15mNLhoauXlzAp5P02YF6DD8eDPBcYo2iUaG733u/X6llOTmG3TBwe0VilOOSQ3fuh3+frlhP3DwsMD97nN3HFoB7n6a71hk9q8gAw7GQIZuezsBsSGSJ5tYeDhsnxER9i8iTXspJAUHZ6eBTTKbN/E00YN2OAEXQEmexbEfLLabE/AAlGTtPqHgJieDDbm0xyTY4ONPM5yAzGEylXw4EUuCyfxMpJL7yalYErTfXhJBg++nIzb5MqGVPB2xJZRaAW5+muPYJD8kDErg7FQcgHyVFNrzT7Mcl+S3xHHy5YmITX5NHCUfTsRIyu/Js5sT8dvyNxK3x95JOAD5OTE0lHCfhNjkx8TIEJ2E3/4WtNPw23KirMbF9nICKvmdvXYilkQWiwgwVvEObuKJTUNEzuzIiVa+yyEaf7iZDK/2MbDdHOMTIer3hsPV7OXq5ubm4+PqZTXs54lOgAYf+7Jmzo5DK8CPULkROfUW92+bA39iV3h8Cjl0zgSaEGiRuN5cxMH21A/gUkOgJouPZ4rJNwbC58ugYZlAu2Hnh89UFNpTrGMAtnEB7ymt2V98vD/vo7YrArfIRy35fA3aUb3Wj2M3IXzF7TaEtOHs8uH1ECgr37DNKg/fwRcQDs5RkxkvIYCF7e7p6v5m83zYYp7jjCHD3prZC46DBp+c1ZQXsdmEcSTlG7UbZi44bcZYeuieD2rDQ0Jmk2IrPGR+QN73MMBHxnYlPA/4Bri3rE9HTM+xwRcPmpk8RU2MLesDcq//AO6aDOLkNZPk2A4ZH49oDgjITmQmLeJ9C9t2kq0xMZ8g7nDaL9gl1CY5QEPgFhnvt8XzAUd33G+9XKAVCpfZyo2kHcLyxYpHUiC4yL2s2Y+R2aSDLfeSbT9jn81Q3p0Nzcx9tksw72pE4or596Ht+rkii5WypYUt30Yi7SY/aIXCKk+VlD9yhAZfc4WWrDXhX7HlKTb5Pldorzk6NzNXaLmekOQrtdjl6FSg5brXcvXbiVsT/hVafh2J+fq1AlMozJ7yC7Qo5Xf6n2N4bNMhJ2R5JjUO5ZS4ac3ckcFNPptNy9ljE2y5GJL/cjb9FFr4aWR6pOWETDgGeexljszMKaGBG97DZF/dknPz1r3/uKN0uMtYI3OLQ+CrpK04H5NxIPlfbkURHH+Y3K7OtkiSZ7kHy4jzn5nWtr7RsPtt2mIR8eqfYSEhj2M1FwbJPrUV91tmrk3LtYxFQ32TjcO5M+c0ycw1BoEzonzCSxTZ1EiSvqnxr0RRaMMti/czC7HF6jpLkfa2ydBeOY3MAJm22ucrNAca33CUQfiv9Q95B/vOtpI5aDep28g8HZoNwgmGTTaQ5Fo8UqEkzRTf6MkKfIxTVRUawmbpaqTWS8DTwxvupNvu9w5OkWI+Z2/Lh28Ig1fpamR45BjQikoaIJu91WS2WFxeXr68vDwgur//vLp5e3p9fX+M+aK+W57ju6a2qUILa4CB8LDZiOYF2lPjZnCb7JZw/CUn/DGnfrwXdeDBDoZ5jUz3nc3gZjPcSzuU5ZXYVH50Vc0A3x+kpu6bEH3u1zQ1MvA7MXD7tCJfmzKFqzHyRX8/DXwKOh5xxMZ77ecUM5uAUxm4vRo63c8a3x0Tp4fFV5+Fq6AA1dltgtdOMbPRRE4g/Ox5nU0m/95NjHe8NP9mM3Gbmw/b3lklLo5M7yUybSgairc+2z0r7MQYTtVfXnlE3Pb9xwjwnqLg88RDahopRPxwf8k34psCo/ujCuMLAEitSl75odmlR8FEp1a045cMHsRmbrF9nG3kDSbfO/o08ggIeRyxNblg6z2tzSbsDJ9MRK93/NxZFt9cga9kiOY/tNv2A+aAaWkktwecZWShrbY8O/tjm00TUz87ntd6vvQC3lMV4GNkPxPfox7zUiV8DFgwcf8fNf8+R+nwKvs/R7a3xTZk7HBaRTsuOg0scoqvS8GPY9BWQqOouz1Fk+T5NhQZMJfSCf85fQtMckVvGyha7pFDQYW9gwrfQTJ8ttXbnGy9Vw7SaSPhoAUy7Xd8R7L8AGjeKy0FkZxr5oqBnUpCyiokfArk2RTClWPb3K+QXtO73+e5X57Rmvd7J+dLJfznoL0G3iJ2NcFd9GbzQWP3ju8FMuhJSNYmV0+v7++vNykAkzgLGRJE+Yz5Njog8UFjP3eEllJYKLZjRMN9+SgBTAcaa9tDwjdTzNmiQyHfUnBfcpLFECC14MPPCMN3iIHwBSSvkcvqC7QOnJTNB0EHMms9YJU/1ECIeXgkNNFUwB3Pu8ZXBrM7w2YTKZEJlxlRbJEWTExqfN864l8Hz64Zko8QQuIAYbdFFzA0IcN7EqUiBJPbzBSSNe1h3zcTvDDcRPpU7lMfcOt/dVKecDY0q/ZcIaEIeRVQMA2R+Sjf4AUXQXEpmwRm2DDIN2+EvDMt7I+ord/k7nwPvIftuwkJglIgPhdFaXbwd//5M76Ira9xlQIY8iZv87g7/XcS4ii4DX7Nke+P30Y8j3uPPWwNWA+RWlrtI/FsLaQ1pc9V7cJf8+SSoHDNbXqWJLumClP8LgB8CZqKl8ZV6GbjHGV4LZhx3BnaEX89JtAcm1ySH2r+2cJlxCkno5FZfprL9yGcwIIcF0CF1/7ZeDvihEC+9O7K8OUMrSdgC1R+rpwTWo7kEsDncNfO5AfHEsB/Iq3PfnYq7IWyHquRYdG/xkQaUZ830nquNzlabfkn0nqsGoVYLC5DDuunZf9Zh8i6XtNzlIdMX2BjsIX7ojiRNGtI95GpmKe4GX91WHMt2yFs73NdyWG5HYMfPkaZB5mpJqXcd+An6mnCP0nHO+OQzcZ+wiSywcXMExqSCoz6Bxf4/CdkHzEcw0iOc4UmmZNdIcJ9clILK2uZzHaMtA4mk9Zl/XUORHI/akNzZZSQWgN7SB/9Uhob3OQALfofEGQTkbB9xP4bU9G5OAste4WMJv5QJ0S8zPmx92GuQDK9KOHHPznPBVph6SOzH490tzDQtj8NjT3QD01qmPbDIwVGpqM622gkBnEVu9Dd4aU0RxqDGGg5vAQVTYxZD48zmJTmSDuXt1Kh1jYv4uLe0NdfvIOfY1mY50ryfJk+mBU2FgndHHZhGJ//HSkLeFv3yPFI9sQaiHCP1X/Hxnz7uHt/OPZApLs2pd9MnYzkT7erMSoP668mk9Ww15ePt6n1Fg8vL5ez2WyYKqPfoObVzm42jtwbtJc1Fsmm/Ev+GVO52cMfXX2ZpN2x/iuIdBz/glU+05nOdKYznelMRwgA8NMsZESgPe38TWyg82V8jVs/zUYW1FqqxaIy/YNyAxWErFhe/0FoUnuEsJX/otQkqWQo5Wr7T0Kzbuelv4mM+LXfhQx4HDGsCVwGXQEiFD8y4Lsn6oL9A3MlfK4YZLXqtYtaRcLjQL1Td55Z6dTY22qdOuD/F0j1WqdWl7wJ0XBuDADtWmfauai3LHFSPBYN5i6A9gUeDlrosRX7qfVOJXiu4wRAY9xVjOLo+sJCPrdrdKmFA52RoZbcJ1nrotGlkYZ1qxpdhA108MBy99oNQMBF19BLDNLavKoaZcMYjW85pkCLTGoo3fG65SlDZWQYJcm6GCiGUp3jC1ajaFRrQLKm1+h+Bc0lrlE4WbWqgb1RUdXLiClkvdUqhVbVi8UvR1Cggu5Su+SvdlUt6oNW687Q8cCi/rW2H9Ya6Og5F86Y1vxLJ88uqqoxYpmadsv0QlEtdxvuytyV0Q/1elEnF5bYIKFp9ZHlzVUuxZUbqFXpGExGqWWg/3SxBoA2/qXsTAumCvrzq02GdNHEo/q14g5UGpTtdpcZA9oD7w68dC4EqWQjtsGVWs7KELc4sC8aawvUMUNG67rsMXkbF9uSIFOVcllB6zPHf3VrGFqN8Fyylxo0MJsGuXKBp+6i2VRdUajEi8Tig4pCxthzjxX70QqdQ59a9rMMegEppEqX1F4ZHKepS2et9WsLXOBb1TudmWtUiYUNrMly6NXSdFpC8iODuxd+aJYIrYgVZb4uUUYoHA4aKBEAynLeWF+TB6tdIh3QUZw5Ow17Zad0eJXchmCMumVdRWENhYZ+Uqp3aC4ycbkUa7uRdUIbp24BYFXGdL3iQSsq13XLstpjwg4J91looD4ij75uo5uQScJ/KESXwEAnc7aRLbfad3iIupQ8aGizT+v16V21gecyqADHFfQYorDo5jjQwLRMVpMGEMSIxIamD6i3qBGVGbUFaBbRB31MDaNVV9Eg/Y4IjfLXsuck7BrYyDrQinihAYLiQnPnojKOo5DWnU72vcP/NAG0om0IQZdsPR808nOxZrOBHAa6Msc3zfFN5amziS+ocD1o+pxZe1sh7cdQJVPjJIQWeVbXdcV0aCxototAf1KNFKG1vwjH3lx3X2UyXCK2YuSyB6rEdrQ9aEzmYJuRgXP3te7MdZS8fUIBkKGxoCHzZc9OJG+0AQcNTDFPjlMgdFsiS0j8C1FN+8nEKmPxOgpZEaHpd47syVxqPYZGtlV2IN4gSlxoytyBVlICoFkNvNXKbKEEWNS8EMxeugpuyZ0XHjSGQQrN44LMFQcazYr1ubu0dJp40FyPtw6ERgH7mQAdw7WVzA/G1IGmjhhJ29DWmUJbi9DWcaD5vStFojPQCPflWxfa0g+tkRiao5Dus6hs4kFrJJYaSUkcZkWpdVxog1SgAWJZx+7f1lyENucemgCab6+BNsmE/HuN3Km4e00dpwLNIoa46hnTgWD8PYlSOxgbGg0GGAsJ2svyCD+4Vea9ArV63Vra0Kj7dNaWxPQcNFeipMKYBFrli1cICSUKOvFP1Hd6bndENlhLShcajVRpBIf/HDDRSIVAq1JDYNGQNj40ySqS8V40otvhGHUWbgQEpu5+TxUaySrRg0u0TrGmsSiBJrWIBJVb/FSLhimJoJWI4g3sGLLddWVD1cFOTUCLcPBVA2lDs2jqZAw69dp0SZHZ0CyKRum0rFanS3OCBNDsyF8Z1FGgK03pH8R4WCSHVdHuQhFwjWQ1+thLatKCJrVGdvVgNMKZb5WBVrJz5MF4qTp5b3xobio4Gs/nYztfazOg1e64VLruqjbM9KGBi6KXyxvzkhtDIg66Tl0DJYfFNQOtWGRLCwSCQqHprGG3s2xVoeUCVXWy7I5djVEUWxko6xSaG5x60Ny5qHdV46XZuHBlJ+wqyizIqtA1RKGJ4WBWUfRAaiMtd9UN16xiM0/zNaHmz1Y0EMtdN6IH065XkCEPtwdgM6ZwSTRJILy5SLSkxgJG1mpslBVFMYoNW+A2NKxqCpaYWkZ5hrVExntELwwUpEPO0hHplm0/hQsmznBckSuXdazMSHLGoOaxDGoDQyFarurG0i11gblRVLmQGqVdelE1HE8B2l9oLlZjI5HhLP52XWp0gGUnGG7+ZtXmy1FxNGi0LIRgoC9tcdaX6shjwEI2YmDn6e2BOpp6M1utxjV6Qrc6LtUsLuayOqXlSFVHy3mHudAaF7sNnj08rTcXQHONY+qjVK9jeJYFqPHSXeWiuNvtSttO9Vv1tiuOCntmAdqVVvAV9IOEnoAfIbJDHo2u8BdaFZFv8YneXEeoNf8yxl5dlyg7X1ZhpmbRCPOHXhEeIfzuvxI0/OgdgQ+/QNuyfOf9id00Z6JOluzkaU3UEa0hKaMZf+JUE1k34qOuL9qtVmW6pBFlrKrK76c5rfN1q8vliHrWvyE0CRuOsh0q2MGU8Sd2GiYglUaKG2qpSnF9fMzJEKjPR7qOwhFF17t3tT+ijZSQv65PbxuN22ndsv4UMkw42vp1vQNnOtOZznSmM53pTGc605m+R382sgdS7a/UBgSyapKxrvw0F1lQZW38DyxJkaknxSOKAAAAAElFTkSuQmCC;" vertex="1" parent="1">
          <mxGeometry x="1354.51" y="571.2500000000001" width="36.71" height="38.9" as="geometry" />
        </mxCell>
        <mxCell id="-s2-TewTJ8OhEwa2nXqe-7" value="" style="shape=image;verticalLabelPosition=bottom;labelBackgroundColor=default;verticalAlign=top;aspect=fixed;imageAspect=0;image=data:image/png,iVBORw0KGgoAAAANSUhEUgAAANoAAADnCAMAAABPJ7iaAAAAwFBMVEXm5ua12BdNTU3p6enn5uqz1wBGRkZKSkrn5uhISEhCQkKVlZXn5uvs7OzBwcFERETU1NReXl7JycnPz8+kpKTm5uPg4ODY2Ni+vr5RUVHj5dnl5t9tbW3i5dVZWVl3d3fe5MexsbHc48CMjIzZ4rXX4q7R4JNmZmZ+fn7P34zg5M2cnJysrKyIiIjS4JrF3GS52TDV4aTA21W+2ke62SvK3n7A20/V4ajH3XPM3oDH3Wy92j7P343q5/XO3pU5OTk1A3vUAAASQklEQVR4nO1d11rrOBB2IsstNum9FwgkQEIINSy8/1utioskl9gc2xC+zM0usWXNrxlN09hHMtYV6Q9SZW1INeunuciGrJoEfpqHrOjPAjvTmc50pjOd6UxnOtOZ0iHtpxnIjhZN0/yb8LTF9vl+Ipnhd/T7p4pcHj7DwuZFkkMAaLPdRJPz5Skt0uT7AoT7j4kZCECbQbiZIaU9Sdlpww0CV9gs+gF6iaAVYOHxaTbsNWUTkSxrJwRT0xZ7BADuHiSfScHQCugaLBw2Tx9X9/cPl4vZqkdAngRCWfog4ODNrMmjo9AIQZYOu7fLWU8+BeuqrZ6JeAq7+x5rNhhoPGFBPm6uetLvtzGa/LK3de/9pe9KIxSag2+3OAHFlHuvDsPb15mNLhoauXlzAp5P02YF6DD8eDPBcYo2iUaG733u/X6llOTmG3TBwe0VilOOSQ3fuh3+frlhP3DwsMD97nN3HFoB7n6a71hk9q8gAw7GQIZuezsBsSGSJ5tYeDhsnxER9i8iTXspJAUHZ6eBTTKbN/E00YN2OAEXQEmexbEfLLabE/AAlGTtPqHgJieDDbm0xyTY4ONPM5yAzGEylXw4EUuCyfxMpJL7yalYErTfXhJBg++nIzb5MqGVPB2xJZRaAW5+muPYJD8kDErg7FQcgHyVFNrzT7Mcl+S3xHHy5YmITX5NHCUfTsRIyu/Js5sT8dvyNxK3x95JOAD5OTE0lHCfhNjkx8TIEJ2E3/4WtNPw23KirMbF9nICKvmdvXYilkQWiwgwVvEObuKJTUNEzuzIiVa+yyEaf7iZDK/2MbDdHOMTIer3hsPV7OXq5ubm4+PqZTXs54lOgAYf+7Jmzo5DK8CPULkROfUW92+bA39iV3h8Cjl0zgSaEGiRuN5cxMH21A/gUkOgJouPZ4rJNwbC58ugYZlAu2Hnh89UFNpTrGMAtnEB7ymt2V98vD/vo7YrArfIRy35fA3aUb3Wj2M3IXzF7TaEtOHs8uH1ECgr37DNKg/fwRcQDs5RkxkvIYCF7e7p6v5m83zYYp7jjCHD3prZC46DBp+c1ZQXsdmEcSTlG7UbZi44bcZYeuieD2rDQ0Jmk2IrPGR+QN73MMBHxnYlPA/4Bri3rE9HTM+xwRcPmpk8RU2MLesDcq//AO6aDOLkNZPk2A4ZH49oDgjITmQmLeJ9C9t2kq0xMZ8g7nDaL9gl1CY5QEPgFhnvt8XzAUd33G+9XKAVCpfZyo2kHcLyxYpHUiC4yL2s2Y+R2aSDLfeSbT9jn81Q3p0Nzcx9tksw72pE4or596Ht+rkii5WypYUt30Yi7SY/aIXCKk+VlD9yhAZfc4WWrDXhX7HlKTb5Pldorzk6NzNXaLmekOQrtdjl6FSg5brXcvXbiVsT/hVafh2J+fq1AlMozJ7yC7Qo5Xf6n2N4bNMhJ2R5JjUO5ZS4ac3ckcFNPptNy9ljE2y5GJL/cjb9FFr4aWR6pOWETDgGeexljszMKaGBG97DZF/dknPz1r3/uKN0uMtYI3OLQ+CrpK04H5NxIPlfbkURHH+Y3K7OtkiSZ7kHy4jzn5nWtr7RsPtt2mIR8eqfYSEhj2M1FwbJPrUV91tmrk3LtYxFQ32TjcO5M+c0ycw1BoEzonzCSxTZ1EiSvqnxr0RRaMMti/czC7HF6jpLkfa2ydBeOY3MAJm22ucrNAca33CUQfiv9Q95B/vOtpI5aDep28g8HZoNwgmGTTaQ5Fo8UqEkzRTf6MkKfIxTVRUawmbpaqTWS8DTwxvupNvu9w5OkWI+Z2/Lh28Ig1fpamR45BjQikoaIJu91WS2WFxeXr68vDwgur//vLp5e3p9fX+M+aK+W57ju6a2qUILa4CB8LDZiOYF2lPjZnCb7JZw/CUn/DGnfrwXdeDBDoZ5jUz3nc3gZjPcSzuU5ZXYVH50Vc0A3x+kpu6bEH3u1zQ1MvA7MXD7tCJfmzKFqzHyRX8/DXwKOh5xxMZ77ecUM5uAUxm4vRo63c8a3x0Tp4fFV5+Fq6AA1dltgtdOMbPRRE4g/Ox5nU0m/95NjHe8NP9mM3Gbmw/b3lklLo5M7yUybSgairc+2z0r7MQYTtVfXnlE3Pb9xwjwnqLg88RDahopRPxwf8k34psCo/ujCuMLAEitSl75odmlR8FEp1a045cMHsRmbrF9nG3kDSbfO/o08ggIeRyxNblg6z2tzSbsDJ9MRK93/NxZFt9cga9kiOY/tNv2A+aAaWkktwecZWShrbY8O/tjm00TUz87ntd6vvQC3lMV4GNkPxPfox7zUiV8DFgwcf8fNf8+R+nwKvs/R7a3xTZk7HBaRTsuOg0scoqvS8GPY9BWQqOouz1Fk+T5NhQZMJfSCf85fQtMckVvGyha7pFDQYW9gwrfQTJ8ttXbnGy9Vw7SaSPhoAUy7Xd8R7L8AGjeKy0FkZxr5oqBnUpCyiokfArk2RTClWPb3K+QXtO73+e5X57Rmvd7J+dLJfznoL0G3iJ2NcFd9GbzQWP3ju8FMuhJSNYmV0+v7++vNykAkzgLGRJE+Yz5Njog8UFjP3eEllJYKLZjRMN9+SgBTAcaa9tDwjdTzNmiQyHfUnBfcpLFECC14MPPCMN3iIHwBSSvkcvqC7QOnJTNB0EHMms9YJU/1ECIeXgkNNFUwB3Pu8ZXBrM7w2YTKZEJlxlRbJEWTExqfN864l8Hz64Zko8QQuIAYbdFFzA0IcN7EqUiBJPbzBSSNe1h3zcTvDDcRPpU7lMfcOt/dVKecDY0q/ZcIaEIeRVQMA2R+Sjf4AUXQXEpmwRm2DDIN2+EvDMt7I+ord/k7nwPvIftuwkJglIgPhdFaXbwd//5M76Ira9xlQIY8iZv87g7/XcS4ii4DX7Nke+P30Y8j3uPPWwNWA+RWlrtI/FsLaQ1pc9V7cJf8+SSoHDNbXqWJLumClP8LgB8CZqKl8ZV6GbjHGV4LZhx3BnaEX89JtAcm1ySH2r+2cJlxCkno5FZfprL9yGcwIIcF0CF1/7ZeDvihEC+9O7K8OUMrSdgC1R+rpwTWo7kEsDncNfO5AfHEsB/Iq3PfnYq7IWyHquRYdG/xkQaUZ830nquNzlabfkn0nqsGoVYLC5DDuunZf9Zh8i6XtNzlIdMX2BjsIX7ojiRNGtI95GpmKe4GX91WHMt2yFs73NdyWG5HYMfPkaZB5mpJqXcd+An6mnCP0nHO+OQzcZ+wiSywcXMExqSCoz6Bxf4/CdkHzEcw0iOc4UmmZNdIcJ9clILK2uZzHaMtA4mk9Zl/XUORHI/akNzZZSQWgN7SB/9Uhob3OQALfofEGQTkbB9xP4bU9G5OAste4WMJv5QJ0S8zPmx92GuQDK9KOHHPznPBVph6SOzH490tzDQtj8NjT3QD01qmPbDIwVGpqM622gkBnEVu9Dd4aU0RxqDGGg5vAQVTYxZD48zmJTmSDuXt1Kh1jYv4uLe0NdfvIOfY1mY50ryfJk+mBU2FgndHHZhGJ//HSkLeFv3yPFI9sQaiHCP1X/Hxnz7uHt/OPZApLs2pd9MnYzkT7erMSoP668mk9Ww15ePt6n1Fg8vL5ez2WyYKqPfoObVzm42jtwbtJc1Fsmm/Ev+GVO52cMfXX2ZpN2x/iuIdBz/glU+05nOdKYznelMRwgA8NMsZESgPe38TWyg82V8jVs/zUYW1FqqxaIy/YNyAxWErFhe/0FoUnuEsJX/otQkqWQo5Wr7T0Kzbuelv4mM+LXfhQx4HDGsCVwGXQEiFD8y4Lsn6oL9A3MlfK4YZLXqtYtaRcLjQL1Td55Z6dTY22qdOuD/F0j1WqdWl7wJ0XBuDADtWmfauai3LHFSPBYN5i6A9gUeDlrosRX7qfVOJXiu4wRAY9xVjOLo+sJCPrdrdKmFA52RoZbcJ1nrotGlkYZ1qxpdhA108MBy99oNQMBF19BLDNLavKoaZcMYjW85pkCLTGoo3fG65SlDZWQYJcm6GCiGUp3jC1ajaFRrQLKm1+h+Bc0lrlE4WbWqgb1RUdXLiClkvdUqhVbVi8UvR1Cggu5Su+SvdlUt6oNW687Q8cCi/rW2H9Ya6Og5F86Y1vxLJ88uqqoxYpmadsv0QlEtdxvuytyV0Q/1elEnF5bYIKFp9ZHlzVUuxZUbqFXpGExGqWWg/3SxBoA2/qXsTAumCvrzq02GdNHEo/q14g5UGpTtdpcZA9oD7w68dC4EqWQjtsGVWs7KELc4sC8aawvUMUNG67rsMXkbF9uSIFOVcllB6zPHf3VrGFqN8Fyylxo0MJsGuXKBp+6i2VRdUajEi8Tig4pCxthzjxX70QqdQ59a9rMMegEppEqX1F4ZHKepS2et9WsLXOBb1TudmWtUiYUNrMly6NXSdFpC8iODuxd+aJYIrYgVZb4uUUYoHA4aKBEAynLeWF+TB6tdIh3QUZw5Ow17Zad0eJXchmCMumVdRWENhYZ+Uqp3aC4ycbkUa7uRdUIbp24BYFXGdL3iQSsq13XLstpjwg4J91looD4ij75uo5uQScJ/KESXwEAnc7aRLbfad3iIupQ8aGizT+v16V21gecyqADHFfQYorDo5jjQwLRMVpMGEMSIxIamD6i3qBGVGbUFaBbRB31MDaNVV9Eg/Y4IjfLXsuck7BrYyDrQinihAYLiQnPnojKOo5DWnU72vcP/NAG0om0IQZdsPR808nOxZrOBHAa6Msc3zfFN5amziS+ocD1o+pxZe1sh7cdQJVPjJIQWeVbXdcV0aCxototAf1KNFKG1vwjH3lx3X2UyXCK2YuSyB6rEdrQ9aEzmYJuRgXP3te7MdZS8fUIBkKGxoCHzZc9OJG+0AQcNTDFPjlMgdFsiS0j8C1FN+8nEKmPxOgpZEaHpd47syVxqPYZGtlV2IN4gSlxoytyBVlICoFkNvNXKbKEEWNS8EMxeugpuyZ0XHjSGQQrN44LMFQcazYr1ubu0dJp40FyPtw6ERgH7mQAdw7WVzA/G1IGmjhhJ29DWmUJbi9DWcaD5vStFojPQCPflWxfa0g+tkRiao5Dus6hs4kFrJJYaSUkcZkWpdVxog1SgAWJZx+7f1lyENucemgCab6+BNsmE/HuN3Km4e00dpwLNIoa46hnTgWD8PYlSOxgbGg0GGAsJ2svyCD+4Vea9ArV63Vra0Kj7dNaWxPQcNFeipMKYBFrli1cICSUKOvFP1Hd6bndENlhLShcajVRpBIf/HDDRSIVAq1JDYNGQNj40ySqS8V40otvhGHUWbgQEpu5+TxUaySrRg0u0TrGmsSiBJrWIBJVb/FSLhimJoJWI4g3sGLLddWVD1cFOTUCLcPBVA2lDs2jqZAw69dp0SZHZ0CyKRum0rFanS3OCBNDsyF8Z1FGgK03pH8R4WCSHVdHuQhFwjWQ1+thLatKCJrVGdvVgNMKZb5WBVrJz5MF4qTp5b3xobio4Gs/nYztfazOg1e64VLruqjbM9KGBi6KXyxvzkhtDIg66Tl0DJYfFNQOtWGRLCwSCQqHprGG3s2xVoeUCVXWy7I5djVEUWxko6xSaG5x60Ny5qHdV46XZuHBlJ+wqyizIqtA1RKGJ4WBWUfRAaiMtd9UN16xiM0/zNaHmz1Y0EMtdN6IH065XkCEPtwdgM6ZwSTRJILy5SLSkxgJG1mpslBVFMYoNW+A2NKxqCpaYWkZ5hrVExntELwwUpEPO0hHplm0/hQsmznBckSuXdazMSHLGoOaxDGoDQyFarurG0i11gblRVLmQGqVdelE1HE8B2l9oLlZjI5HhLP52XWp0gGUnGG7+ZtXmy1FxNGi0LIRgoC9tcdaX6shjwEI2YmDn6e2BOpp6M1utxjV6Qrc6LtUsLuayOqXlSFVHy3mHudAaF7sNnj08rTcXQHONY+qjVK9jeJYFqPHSXeWiuNvtSttO9Vv1tiuOCntmAdqVVvAV9IOEnoAfIbJDHo2u8BdaFZFv8YneXEeoNf8yxl5dlyg7X1ZhpmbRCPOHXhEeIfzuvxI0/OgdgQ+/QNuyfOf9id00Z6JOluzkaU3UEa0hKaMZf+JUE1k34qOuL9qtVmW6pBFlrKrK76c5rfN1q8vliHrWvyE0CRuOsh0q2MGU8Sd2GiYglUaKG2qpSnF9fMzJEKjPR7qOwhFF17t3tT+ijZSQv65PbxuN22ndsv4UMkw42vp1vQNnOtOZznSmM53pTGc605m+R382sgdS7a/UBgSyapKxrvw0F1lQZW38DyxJkaknxSOKAAAAAElFTkSuQmCC;" vertex="1" parent="1">
          <mxGeometry x="1354.51" y="668.3500000000001" width="36.71" height="38.9" as="geometry" />
        </mxCell>
        <mxCell id="-s2-TewTJ8OhEwa2nXqe-8" value="" style="shape=image;verticalLabelPosition=bottom;labelBackgroundColor=default;verticalAlign=top;aspect=fixed;imageAspect=0;image=data:image/png,iVBORw0KGgoAAAANSUhEUgAAANoAAADnCAMAAABPJ7iaAAAAwFBMVEXm5ua12BdNTU3p6enn5uqz1wBGRkZKSkrn5uhISEhCQkKVlZXn5uvs7OzBwcFERETU1NReXl7JycnPz8+kpKTm5uPg4ODY2Ni+vr5RUVHj5dnl5t9tbW3i5dVZWVl3d3fe5MexsbHc48CMjIzZ4rXX4q7R4JNmZmZ+fn7P34zg5M2cnJysrKyIiIjS4JrF3GS52TDV4aTA21W+2ke62SvK3n7A20/V4ajH3XPM3oDH3Wy92j7P343q5/XO3pU5OTk1A3vUAAASQklEQVR4nO1d11rrOBB2IsstNum9FwgkQEIINSy8/1utioskl9gc2xC+zM0usWXNrxlN09hHMtYV6Q9SZW1INeunuciGrJoEfpqHrOjPAjvTmc50pjOd6UxnOtOZ0iHtpxnIjhZN0/yb8LTF9vl+Ipnhd/T7p4pcHj7DwuZFkkMAaLPdRJPz5Skt0uT7AoT7j4kZCECbQbiZIaU9Sdlpww0CV9gs+gF6iaAVYOHxaTbsNWUTkSxrJwRT0xZ7BADuHiSfScHQCugaLBw2Tx9X9/cPl4vZqkdAngRCWfog4ODNrMmjo9AIQZYOu7fLWU8+BeuqrZ6JeAq7+x5rNhhoPGFBPm6uetLvtzGa/LK3de/9pe9KIxSag2+3OAHFlHuvDsPb15mNLhoauXlzAp5P02YF6DD8eDPBcYo2iUaG733u/X6llOTmG3TBwe0VilOOSQ3fuh3+frlhP3DwsMD97nN3HFoB7n6a71hk9q8gAw7GQIZuezsBsSGSJ5tYeDhsnxER9i8iTXspJAUHZ6eBTTKbN/E00YN2OAEXQEmexbEfLLabE/AAlGTtPqHgJieDDbm0xyTY4ONPM5yAzGEylXw4EUuCyfxMpJL7yalYErTfXhJBg++nIzb5MqGVPB2xJZRaAW5+muPYJD8kDErg7FQcgHyVFNrzT7Mcl+S3xHHy5YmITX5NHCUfTsRIyu/Js5sT8dvyNxK3x95JOAD5OTE0lHCfhNjkx8TIEJ2E3/4WtNPw23KirMbF9nICKvmdvXYilkQWiwgwVvEObuKJTUNEzuzIiVa+yyEaf7iZDK/2MbDdHOMTIer3hsPV7OXq5ubm4+PqZTXs54lOgAYf+7Jmzo5DK8CPULkROfUW92+bA39iV3h8Cjl0zgSaEGiRuN5cxMH21A/gUkOgJouPZ4rJNwbC58ugYZlAu2Hnh89UFNpTrGMAtnEB7ymt2V98vD/vo7YrArfIRy35fA3aUb3Wj2M3IXzF7TaEtOHs8uH1ECgr37DNKg/fwRcQDs5RkxkvIYCF7e7p6v5m83zYYp7jjCHD3prZC46DBp+c1ZQXsdmEcSTlG7UbZi44bcZYeuieD2rDQ0Jmk2IrPGR+QN73MMBHxnYlPA/4Bri3rE9HTM+xwRcPmpk8RU2MLesDcq//AO6aDOLkNZPk2A4ZH49oDgjITmQmLeJ9C9t2kq0xMZ8g7nDaL9gl1CY5QEPgFhnvt8XzAUd33G+9XKAVCpfZyo2kHcLyxYpHUiC4yL2s2Y+R2aSDLfeSbT9jn81Q3p0Nzcx9tksw72pE4or596Ht+rkii5WypYUt30Yi7SY/aIXCKk+VlD9yhAZfc4WWrDXhX7HlKTb5Pldorzk6NzNXaLmekOQrtdjl6FSg5brXcvXbiVsT/hVafh2J+fq1AlMozJ7yC7Qo5Xf6n2N4bNMhJ2R5JjUO5ZS4ac3ckcFNPptNy9ljE2y5GJL/cjb9FFr4aWR6pOWETDgGeexljszMKaGBG97DZF/dknPz1r3/uKN0uMtYI3OLQ+CrpK04H5NxIPlfbkURHH+Y3K7OtkiSZ7kHy4jzn5nWtr7RsPtt2mIR8eqfYSEhj2M1FwbJPrUV91tmrk3LtYxFQ32TjcO5M+c0ycw1BoEzonzCSxTZ1EiSvqnxr0RRaMMti/czC7HF6jpLkfa2ydBeOY3MAJm22ucrNAca33CUQfiv9Q95B/vOtpI5aDep28g8HZoNwgmGTTaQ5Fo8UqEkzRTf6MkKfIxTVRUawmbpaqTWS8DTwxvupNvu9w5OkWI+Z2/Lh28Ig1fpamR45BjQikoaIJu91WS2WFxeXr68vDwgur//vLp5e3p9fX+M+aK+W57ju6a2qUILa4CB8LDZiOYF2lPjZnCb7JZw/CUn/DGnfrwXdeDBDoZ5jUz3nc3gZjPcSzuU5ZXYVH50Vc0A3x+kpu6bEH3u1zQ1MvA7MXD7tCJfmzKFqzHyRX8/DXwKOh5xxMZ77ecUM5uAUxm4vRo63c8a3x0Tp4fFV5+Fq6AA1dltgtdOMbPRRE4g/Ox5nU0m/95NjHe8NP9mM3Gbmw/b3lklLo5M7yUybSgairc+2z0r7MQYTtVfXnlE3Pb9xwjwnqLg88RDahopRPxwf8k34psCo/ujCuMLAEitSl75odmlR8FEp1a045cMHsRmbrF9nG3kDSbfO/o08ggIeRyxNblg6z2tzSbsDJ9MRK93/NxZFt9cga9kiOY/tNv2A+aAaWkktwecZWShrbY8O/tjm00TUz87ntd6vvQC3lMV4GNkPxPfox7zUiV8DFgwcf8fNf8+R+nwKvs/R7a3xTZk7HBaRTsuOg0scoqvS8GPY9BWQqOouz1Fk+T5NhQZMJfSCf85fQtMckVvGyha7pFDQYW9gwrfQTJ8ttXbnGy9Vw7SaSPhoAUy7Xd8R7L8AGjeKy0FkZxr5oqBnUpCyiokfArk2RTClWPb3K+QXtO73+e5X57Rmvd7J+dLJfznoL0G3iJ2NcFd9GbzQWP3ju8FMuhJSNYmV0+v7++vNykAkzgLGRJE+Yz5Njog8UFjP3eEllJYKLZjRMN9+SgBTAcaa9tDwjdTzNmiQyHfUnBfcpLFECC14MPPCMN3iIHwBSSvkcvqC7QOnJTNB0EHMms9YJU/1ECIeXgkNNFUwB3Pu8ZXBrM7w2YTKZEJlxlRbJEWTExqfN864l8Hz64Zko8QQuIAYbdFFzA0IcN7EqUiBJPbzBSSNe1h3zcTvDDcRPpU7lMfcOt/dVKecDY0q/ZcIaEIeRVQMA2R+Sjf4AUXQXEpmwRm2DDIN2+EvDMt7I+ord/k7nwPvIftuwkJglIgPhdFaXbwd//5M76Ira9xlQIY8iZv87g7/XcS4ii4DX7Nke+P30Y8j3uPPWwNWA+RWlrtI/FsLaQ1pc9V7cJf8+SSoHDNbXqWJLumClP8LgB8CZqKl8ZV6GbjHGV4LZhx3BnaEX89JtAcm1ySH2r+2cJlxCkno5FZfprL9yGcwIIcF0CF1/7ZeDvihEC+9O7K8OUMrSdgC1R+rpwTWo7kEsDncNfO5AfHEsB/Iq3PfnYq7IWyHquRYdG/xkQaUZ830nquNzlabfkn0nqsGoVYLC5DDuunZf9Zh8i6XtNzlIdMX2BjsIX7ojiRNGtI95GpmKe4GX91WHMt2yFs73NdyWG5HYMfPkaZB5mpJqXcd+An6mnCP0nHO+OQzcZ+wiSywcXMExqSCoz6Bxf4/CdkHzEcw0iOc4UmmZNdIcJ9clILK2uZzHaMtA4mk9Zl/XUORHI/akNzZZSQWgN7SB/9Uhob3OQALfofEGQTkbB9xP4bU9G5OAste4WMJv5QJ0S8zPmx92GuQDK9KOHHPznPBVph6SOzH490tzDQtj8NjT3QD01qmPbDIwVGpqM622gkBnEVu9Dd4aU0RxqDGGg5vAQVTYxZD48zmJTmSDuXt1Kh1jYv4uLe0NdfvIOfY1mY50ryfJk+mBU2FgndHHZhGJ//HSkLeFv3yPFI9sQaiHCP1X/Hxnz7uHt/OPZApLs2pd9MnYzkT7erMSoP668mk9Ww15ePt6n1Fg8vL5ez2WyYKqPfoObVzm42jtwbtJc1Fsmm/Ev+GVO52cMfXX2ZpN2x/iuIdBz/glU+05nOdKYznelMRwgA8NMsZESgPe38TWyg82V8jVs/zUYW1FqqxaIy/YNyAxWErFhe/0FoUnuEsJX/otQkqWQo5Wr7T0Kzbuelv4mM+LXfhQx4HDGsCVwGXQEiFD8y4Lsn6oL9A3MlfK4YZLXqtYtaRcLjQL1Td55Z6dTY22qdOuD/F0j1WqdWl7wJ0XBuDADtWmfauai3LHFSPBYN5i6A9gUeDlrosRX7qfVOJXiu4wRAY9xVjOLo+sJCPrdrdKmFA52RoZbcJ1nrotGlkYZ1qxpdhA108MBy99oNQMBF19BLDNLavKoaZcMYjW85pkCLTGoo3fG65SlDZWQYJcm6GCiGUp3jC1ajaFRrQLKm1+h+Bc0lrlE4WbWqgb1RUdXLiClkvdUqhVbVi8UvR1Cggu5Su+SvdlUt6oNW687Q8cCi/rW2H9Ya6Og5F86Y1vxLJ88uqqoxYpmadsv0QlEtdxvuytyV0Q/1elEnF5bYIKFp9ZHlzVUuxZUbqFXpGExGqWWg/3SxBoA2/qXsTAumCvrzq02GdNHEo/q14g5UGpTtdpcZA9oD7w68dC4EqWQjtsGVWs7KELc4sC8aawvUMUNG67rsMXkbF9uSIFOVcllB6zPHf3VrGFqN8Fyylxo0MJsGuXKBp+6i2VRdUajEi8Tig4pCxthzjxX70QqdQ59a9rMMegEppEqX1F4ZHKepS2et9WsLXOBb1TudmWtUiYUNrMly6NXSdFpC8iODuxd+aJYIrYgVZb4uUUYoHA4aKBEAynLeWF+TB6tdIh3QUZw5Ow17Zad0eJXchmCMumVdRWENhYZ+Uqp3aC4ycbkUa7uRdUIbp24BYFXGdL3iQSsq13XLstpjwg4J91looD4ij75uo5uQScJ/KESXwEAnc7aRLbfad3iIupQ8aGizT+v16V21gecyqADHFfQYorDo5jjQwLRMVpMGEMSIxIamD6i3qBGVGbUFaBbRB31MDaNVV9Eg/Y4IjfLXsuck7BrYyDrQinihAYLiQnPnojKOo5DWnU72vcP/NAG0om0IQZdsPR808nOxZrOBHAa6Msc3zfFN5amziS+ocD1o+pxZe1sh7cdQJVPjJIQWeVbXdcV0aCxototAf1KNFKG1vwjH3lx3X2UyXCK2YuSyB6rEdrQ9aEzmYJuRgXP3te7MdZS8fUIBkKGxoCHzZc9OJG+0AQcNTDFPjlMgdFsiS0j8C1FN+8nEKmPxOgpZEaHpd47syVxqPYZGtlV2IN4gSlxoytyBVlICoFkNvNXKbKEEWNS8EMxeugpuyZ0XHjSGQQrN44LMFQcazYr1ubu0dJp40FyPtw6ERgH7mQAdw7WVzA/G1IGmjhhJ29DWmUJbi9DWcaD5vStFojPQCPflWxfa0g+tkRiao5Dus6hs4kFrJJYaSUkcZkWpdVxog1SgAWJZx+7f1lyENucemgCab6+BNsmE/HuN3Km4e00dpwLNIoa46hnTgWD8PYlSOxgbGg0GGAsJ2svyCD+4Vea9ArV63Vra0Kj7dNaWxPQcNFeipMKYBFrli1cICSUKOvFP1Hd6bndENlhLShcajVRpBIf/HDDRSIVAq1JDYNGQNj40ySqS8V40otvhGHUWbgQEpu5+TxUaySrRg0u0TrGmsSiBJrWIBJVb/FSLhimJoJWI4g3sGLLddWVD1cFOTUCLcPBVA2lDs2jqZAw69dp0SZHZ0CyKRum0rFanS3OCBNDsyF8Z1FGgK03pH8R4WCSHVdHuQhFwjWQ1+thLatKCJrVGdvVgNMKZb5WBVrJz5MF4qTp5b3xobio4Gs/nYztfazOg1e64VLruqjbM9KGBi6KXyxvzkhtDIg66Tl0DJYfFNQOtWGRLCwSCQqHprGG3s2xVoeUCVXWy7I5djVEUWxko6xSaG5x60Ny5qHdV46XZuHBlJ+wqyizIqtA1RKGJ4WBWUfRAaiMtd9UN16xiM0/zNaHmz1Y0EMtdN6IH065XkCEPtwdgM6ZwSTRJILy5SLSkxgJG1mpslBVFMYoNW+A2NKxqCpaYWkZ5hrVExntELwwUpEPO0hHplm0/hQsmznBckSuXdazMSHLGoOaxDGoDQyFarurG0i11gblRVLmQGqVdelE1HE8B2l9oLlZjI5HhLP52XWp0gGUnGG7+ZtXmy1FxNGi0LIRgoC9tcdaX6shjwEI2YmDn6e2BOpp6M1utxjV6Qrc6LtUsLuayOqXlSFVHy3mHudAaF7sNnj08rTcXQHONY+qjVK9jeJYFqPHSXeWiuNvtSttO9Vv1tiuOCntmAdqVVvAV9IOEnoAfIbJDHo2u8BdaFZFv8YneXEeoNf8yxl5dlyg7X1ZhpmbRCPOHXhEeIfzuvxI0/OgdgQ+/QNuyfOf9id00Z6JOluzkaU3UEa0hKaMZf+JUE1k34qOuL9qtVmW6pBFlrKrK76c5rfN1q8vliHrWvyE0CRuOsh0q2MGU8Sd2GiYglUaKG2qpSnF9fMzJEKjPR7qOwhFF17t3tT+ijZSQv65PbxuN22ndsv4UMkw42vp1vQNnOtOZznSmM53pTGc605m+R382sgdS7a/UBgSyapKxrvw0F1lQZW38DyxJkaknxSOKAAAAAElFTkSuQmCC;" vertex="1" parent="1">
          <mxGeometry x="1354.51" y="773.5500000000002" width="36.71" height="38.9" as="geometry" />
        </mxCell>
        <mxCell id="-s2-TewTJ8OhEwa2nXqe-13" style="edgeStyle=orthogonalEdgeStyle;rounded=0;orthogonalLoop=1;jettySize=auto;html=1;exitX=-0.001;exitY=0.941;exitDx=0;exitDy=0;exitPerimeter=0;fillColor=#e51400;strokeColor=#B20000;" edge="1" parent="1" source="P5fyJ_uZ24H15enQcCNX-6" target="P5fyJ_uZ24H15enQcCNX-131">
          <mxGeometry relative="1" as="geometry">
            <Array as="points">
              <mxPoint x="1082" y="830" />
              <mxPoint x="540" y="830" />
              <mxPoint x="540" y="851" />
            </Array>
          </mxGeometry>
        </mxCell>
      </root>
    </mxGraphModel>
  </diagram>
</mxfile>
